<?xml version="1.0" encoding="utf-8"?>
<!-- Generator: Adobe Illustrator 22.1.0, SVG Export Plug-In . SVG Version: 6.00 Build 0)  -->
<svg version="1.1" id="Layer_1" xmlns="http://www.w3.org/2000/svg" xmlns:xlink="http://www.w3.org/1999/xlink" x="0px" y="0px"
	 viewBox="0 0 24 24" style="enable-background:new 0 0 24 24;" xml:space="preserve">
<style type="text/css">
	.st0{display:none;fill:#BA3535;}
	.st1{fill:#FFFFFF;}
</style>
<g>
	<circle class="st0" cx="12" cy="12" r="12"/>
	<path class="st1" d="M11.2,5h1.3c1,0,1.8,0.8,1.8,1.8v6l2.2-0.6l0.2,0.2c0.5,0.5,0.8,1.1,0.8,1.8s-0.3,1.3-0.8,1.8l-2.9,2.9
		c-1,1-2.7,1-3.7,0l-3-2.9c-0.5-0.5-0.8-1.1-0.8-1.8s0.3-1.3,0.8-1.8l0.2-0.2l2.2,0.6v-6C9.5,5.8,10.3,5,11.2,5 M13.2,14.1V6.7
		c0-0.4-0.3-0.7-0.7-0.7h-1.3c-0.4,0-0.7,0.3-0.7,0.7V14l-2.9-0.8c-0.4,0.6-0.4,1.4,0.2,2l2.9,2.9c0.6,0.6,1.6,0.6,2.2,0l2.9-2.9
		c0.5-0.5,0.6-1.4,0.2-2L13.2,14.1z"/>
</g>
</svg>
