<?xml version="1.0" encoding="utf-8"?>
<!-- Generator: Adobe Illustrator 22.1.0, SVG Export Plug-In . SVG Version: 6.00 Build 0)  -->
<svg version="1.1" id="Layer_1" xmlns="http://www.w3.org/2000/svg" xmlns:xlink="http://www.w3.org/1999/xlink" x="0px" y="0px"
	 viewBox="0 0 100 30.8" style="enable-background:new 0 0 100 30.8;" xml:space="preserve">
<style type="text/css">
	.st0{fill:#FFFFFF;}
</style>
<g>
	<path class="st0" d="M42.6,26h-3.5h-0.4h-7.2h-1.2h-0.2v-5.6h0.2h1.2h7.2h0.4h3.5c1.3,0,2.4-1.1,2.4-2.4c0-1.3-1.1-2.4-2.4-2.4
		h-3.5h-0.4h-7.2h-1.2h-2.7c-1.3,0-2.4,1.1-2.4,2.4v10.4v0c0,1.3,1.1,2.4,2.4,2.4h2.7h1.2h7.2h0.4h3.5c1.3,0,2.4-1.1,2.4-2.4v0
		C45.1,27,44,26,42.6,26z"/>
	<path class="st0" d="M40.3,0h-1.4h-2.4h-4.9h-1.4h-2.4c-1.3,0-2.4,1.1-2.4,2.4v0v3.9v2.3v1.5c0,1.3,1.1,2.4,2.4,2.4
		c1.3,0,2.4-1.1,2.4-2.4V8.6V6.3V4.9h1.4h4.9h2.4h1.4c1.3,0,2.4-1.1,2.4-2.4v0C42.8,1.1,41.7,0,40.3,0z"/>
	<path class="st0" d="M8.4,16.4l14.4,14.4h-6.4L4.9,19.7v11.1H0V14.1l0,0l0,0V0h4.9v9.4L14.6,0H21L7.7,13.4
		c-0.1,0.3-0.2,0.6-0.2,0.9C7.4,14.3,7.3,15.3,8.4,16.4z"/>
	<path class="st0" d="M59.9,0h-6.5h-3.1h-1.7v5.2v20.5v5.2h1.7h3.1h6.5c8.4,0,15.3-6.9,15.3-15.4C75.1,6.9,68.3,0,59.9,0z
		 M53.2,26.3v-22l6.6,0c5.9,0,10.7,4.9,10.7,11c0,6.1-4.8,11-10.7,11L53.2,26.3z"/>
	<path class="st0" d="M95.6,0v21.2c0,2.7-3.1,5-7,5c-3.8,0-7-2.2-7-5V0h-4.4v21.3c0,5.2,5.1,9.5,11.4,9.5c6.3,0,11.4-4.2,11.4-9.5V0
		H95.6z"/>
</g>
</svg>
