<?xml version="1.0" encoding="iso-8859-1"?>
<!-- Generator: Adobe Illustrator 18.0.0, SVG Export Plug-In . SVG Version: 6.00 Build 0)  -->
<!DOCTYPE svg PUBLIC "-//W3C//DTD SVG 1.1//EN" "http://www.w3.org/Graphics/SVG/1.1/DTD/svg11.dtd">
<svg xmlns="http://www.w3.org/2000/svg" xmlns:xlink="http://www.w3.org/1999/xlink" version="1.1" id="Capa_1" x="0px" y="0px" viewBox="0 0 433.479 433.479" style="enable-background:new 0 0 433.479 433.479;" xml:space="preserve" width="512px" height="512px">
<g>
	<path d="M0,89.245v254.988h433.479V89.245H0z M418.479,329.234H15V104.245h403.479V329.234z" fill="#FFFFFF"/>
	<path d="M408.444,316.988V116.491H25.035v200.496H408.444z M60.899,301.988v-13.84h59v13.84H60.899z M40.035,301.988V131.491   h353.409v170.496H134.899v-28.84h-89v28.84H40.035z" fill="#FFFFFF"/>
	<path d="M153.406,234.482h-34.5v-6.167c0-7.444,6.056-13.5,13.5-13.5c15.715,0,28.5-12.785,28.5-28.5s-12.785-28.5-28.5-28.5   s-28.5,12.785-28.5,28.5h15c0-7.444,6.056-13.5,13.5-13.5s13.5,6.056,13.5,13.5s-6.056,13.5-13.5,13.5   c-15.715,0-28.5,12.785-28.5,28.5v21.167h49.5V234.482z" fill="#FFFFFF"/>
	<path d="M264.74,234.482h-34.5v-6.167c0-7.444,6.056-13.5,13.5-13.5c15.715,0,28.5-12.785,28.5-28.5s-12.785-28.5-28.5-28.5   c-15.715,0-28.5,12.785-28.5,28.5h15c0-7.444,6.056-13.5,13.5-13.5s13.5,6.056,13.5,13.5s-6.056,13.5-13.5,13.5   c-15.715,0-28.5,12.785-28.5,28.5v21.167h49.5V234.482z" fill="#FFFFFF"/>
	<polygon points="181.24,225.982 196.24,225.982 196.24,216.815 205.406,216.815 205.406,201.815 196.24,201.815 196.24,192.648    181.24,192.648 181.24,201.815 172.073,201.815 172.073,216.815 181.24,216.815  " fill="#FFFFFF"/>
	<rect x="288.74" y="191.815" width="33.333" height="15" fill="#FFFFFF"/>
	<rect x="288.74" y="211.815" width="33.333" height="15" fill="#FFFFFF"/>
</g>
<g>
</g>
<g>
</g>
<g>
</g>
<g>
</g>
<g>
</g>
<g>
</g>
<g>
</g>
<g>
</g>
<g>
</g>
<g>
</g>
<g>
</g>
<g>
</g>
<g>
</g>
<g>
</g>
<g>
</g>
</svg>
