<?xml version="1.0" encoding="utf-8"?>
<!-- Generator: Adobe Illustrator 22.1.0, SVG Export Plug-In . SVG Version: 6.00 Build 0)  -->
<svg version="1.1" id="Layer_1" xmlns="http://www.w3.org/2000/svg" xmlns:xlink="http://www.w3.org/1999/xlink" x="0px" y="0px"
	 viewBox="0 0 100 100" style="enable-background:new 0 0 100 100;" xml:space="preserve">
<path d="M94.5,64.8c-0.7-0.7-2-0.7-2.7,0l-0.7-0.7c0,0-0.7-0.7,2.1-3.4l4-4c3.7-3.7,3.7-9.8,0-13.5c0,0-6.5-6.5-6.5-6.5l-0.4,0.4
	c0,0-0.4,0.4-0.1,0.8c0.4,0.4,0.2,1.8-0.8,2.8c-0.7,0.7-2,0.7-2.8-0.1l-4.3-4.3l0.1,0.1c-0.9-0.9-1-2.2-0.3-3c1-1,2.4-1.2,3.1-0.4
	l0.4-0.4c0,0,0.4-0.4-4-4.9L68.9,15c0,0-1.4-1.4-0.7-2c0,0-0.7,0.7,0,0c0,0,0.7-0.7,1-0.3s1.6,0.4,2.3-0.4c0.7-0.7,0.7-2,0-2.7l-4-4
	c-0.7-0.7-2-0.7-2.7,0c-0.7,0.7-0.7,2,0,2.7l-0.7,0.7c0,0-0.7,0.7-3.4-2.1l-4-4C53-0.9,47-0.9,43.3,2.8l-6.5,6.5l0.5,0.5l0.4,0.4
	c0.7-0.7,2.2-0.5,3.1,0.4c0.7,0.7,0.7,2-0.1,2.8c-0.1,0.1-3.5,3.5-4.2,4.2c-0.9,0.9-2.2,1-3,0.3c-1-1-1.2-2.4-0.4-3.1l-0.4-0.4
	c0,0-0.4-0.4-4.9,4L13.6,32.5l-0.6-0.6l-0.4-0.4c0,0-0.4-0.4,0-0.7c0.4-0.4,0.4-1.6-0.4-2.3c-0.7-0.7-2-0.7-2.7,0l-4,4
	c-0.7,0.7-0.7,2,0,2.7c0.7,0.7,2,0.7,2.7,0l1.3,1.3l-1,1l-5.8,5.8h0c-3.7,3.7-3.7,9.8,0,13.5v0c0,0,0,0,2.7,2.7l3.7,3.7h0l0.9-0.9
	c-0.7-0.7-0.5-2.2,0.4-3.1c0.7-0.7,2-0.7,2.8,0.1h0c0,0,0,0,1.4,1.4l2.9,2.9l-0.1-0.1c0.9,0.9,1,2.2,0.3,3c-1,1-2.4,1.2-3.1,0.5v0
	l-0.9,0.9L31.1,85c0,0,1.4,1.4,0.7,2c0,0,0.7-0.7,0,0c0,0-0.7,0.7-1,0.3c-0.4-0.4-1.6-0.4-2.3,0.4c-0.7,0.7-0.7,2,0,2.7l4,4
	c0.7,0.7,2,0.7,2.7,0c0.7-0.7,0.7-2,0-2.7l0.7-0.7c0,0,0.7-0.7,3.4,2.1l4,4c3.7,3.7,9.8,3.7,13.5,0h0c0,0,0,0,2.7-2.7l3.7-3.7
	l-0.9-0.9c-0.7,0.7-2.2,0.5-3.1-0.4c-0.7-0.7-0.7-2,0.1-2.8v0l4.3-4.3l-0.1,0.1c0.9-0.9,2.2-1,3-0.3c1,1,1.2,2.4,0.4,3.1l0,0
	l0.9,0.9h0L85,68.9c0,0,1.4-1.4,2-0.7c0,0-0.7-0.7,0,0c0,0,0.7,0.7,0.3,1s-0.4,1.6,0.4,2.3c0.7,0.7,2,0.7,2.7,0l4-4
	C95.3,66.8,95.3,65.6,94.5,64.8"/>
</svg>
