<?xml version="1.0" encoding="utf-8"?>
<!-- Generator: Adobe Illustrator 22.1.0, SVG Export Plug-In . SVG Version: 6.00 Build 0)  -->
<svg version="1.1" id="Layer_1" xmlns="http://www.w3.org/2000/svg" xmlns:xlink="http://www.w3.org/1999/xlink" x="0px" y="0px"
	 viewBox="0 0 256 149" style="enable-background:new 0 0 256 149;" xml:space="preserve">
<style type="text/css">
	.st0{clip-path:url(#SVGID_2_);}
	.st1{fill:#F9F9F9;}
	.st2{fill:none;}
	.st3{fill:#F08914;}
	.st4{fill:#2189C1;}
	.st5{fill:#7CB529;}
</style>
<g>
	<defs>
		<rect id="SVGID_1_" x="-0.5" width="256.5" height="149"/>
	</defs>
	<clipPath id="SVGID_2_">
		<use xlink:href="#SVGID_1_"  style="overflow:visible;"/>
	</clipPath>
	<g class="st0">
		<g>
			<g>
				
					<image style="overflow:visible;opacity:0.25;" width="183" height="183" xlink:href="49A7AF2BD14E44B8.png"  transform="matrix(1 0 0 1 124.508 -17)">
				</image>
				<g>
					<path class="st1" d="M240.2,1.5c-1.2,1.2-1.2,3.2,0,4.4L238,8.1l-11-11c-6.1-6.1-16-6.1-22.1,0L194.2,7.7l1.5,1.5
						c1.2-1.2,3.5-0.9,5.1,0.7c1.2,1.2,1.1,3.3-0.2,4.6l-7.1,7.1l0.2-0.2c-1.5,1.5-3.6,1.7-4.9,0.4c-1.6-1.6-2-3.9-0.7-5.1l-1.5-1.5
						l-30.5,30.5l-2.2-2.2c1.2-1.2,1.2-3.2,0-4.4c-1.2-1.2-3.2-1.2-4.4,0l-6.6,6.6c-1.2,1.2-1.2,3.2,0,4.4c1.2,1.2,3.2,1.2,4.4,0
						l2.2,2.2l-11,11c-6.1,6.1-6.1,16,0,22.1L149.2,96l0.8-0.8l0.7-0.7c-1.2-1.2-0.9-3.5,0.7-5.1c1.2-1.2,3.3-1.1,4.6,0.2l6.8,6.8
						c1.5,1.5,1.7,3.6,0.4,4.9c-1.6,1.6-3.9,2-5.1,0.7l-1.5,1.5l30.5,30.5l-1,1l-1.2,1.2c-1.2-1.2-3.2-1.2-4.4,0
						c-1.2,1.2-1.2,3.2,0,4.4l6.6,6.6c1.2,1.2,3.2,1.2,4.4,0c1.2-1.2,1.2-3.2,0-4.4l2.2-2.2l1.6,1.6l9.5,9.5c6.1,6.1,16,6.1,22.1,0
						l0,0l10.6-10.6v0l-1.5-1.5c-1.2,1.2-3.5,0.9-5.1-0.7c-1.2-1.2-1.1-3.3,0.2-4.6l7.1-7.1l-0.2,0.2c1.5-1.5,3.6-1.7,4.9-0.4
						c1.6,1.6,2,3.9,0.7,5.1l1.5,1.5l30.5-30.5l2.2,2.2c-1.2,1.2-1.2,3.2,0,4.4c1.2,1.2,3.2,1.2,4.4,0l6.6-6.6
						c1.2-1.2,1.2-3.2,0-4.4c-1.2-1.2-3.2-1.2-4.4,0l-2.2-2.2l11-11c6.1-6.1,6.1-16,0-22.1v0l-10.6-10.6l-1.5,1.5
						c1.2,1.2,0.9,3.5-0.7,5.1c-1.2,1.2-3.3,1.1-4.6-0.2l-7.1-7.1l0.2,0.2c-1.5-1.5-1.7-3.6-0.4-4.9c1.6-1.6,3.9-2,5.1-0.7l0,0
						l1.5-1.5l-30.5-30.5l2.2-2.2c1.2,1.2,3.2,1.2,4.4,0c1.2-1.2,1.2-3.2,0-4.4l-6.6-6.6C243.4,0.3,241.4,0.3,240.2,1.5"/>
					<path class="st2" d="M240.2,1.5c-1.2,1.2-1.2,3.2,0,4.4L238,8.1l-11-11c-6.1-6.1-16-6.1-22.1,0L194.2,7.7l1.5,1.5
						c1.2-1.2,3.5-0.9,5.1,0.7c1.2,1.2,1.1,3.3-0.2,4.6l-7.1,7.1l0.2-0.2c-1.5,1.5-3.6,1.7-4.9,0.4c-1.6-1.6-2-3.9-0.7-5.1l-1.5-1.5
						l-30.5,30.5l-2.2-2.2c1.2-1.2,1.2-3.2,0-4.4c-1.2-1.2-3.2-1.2-4.4,0l-6.6,6.6c-1.2,1.2-1.2,3.2,0,4.4c1.2,1.2,3.2,1.2,4.4,0
						l2.2,2.2l-11,11c-6.1,6.1-6.1,16,0,22.1L149.2,96l0.8-0.8l0.7-0.7c-1.2-1.2-0.9-3.5,0.7-5.1c1.2-1.2,3.3-1.1,4.6,0.2l6.8,6.8
						c1.5,1.5,1.7,3.6,0.4,4.9c-1.6,1.6-3.9,2-5.1,0.7l-1.5,1.5l30.5,30.5l-1,1l-1.2,1.2c-1.2-1.2-3.2-1.2-4.4,0
						c-1.2,1.2-1.2,3.2,0,4.4l6.6,6.6c1.2,1.2,3.2,1.2,4.4,0c1.2-1.2,1.2-3.2,0-4.4l2.2-2.2l1.6,1.6l9.5,9.5c6.1,6.1,16,6.1,22.1,0
						l0,0l10.6-10.6v0l-1.5-1.5c-1.2,1.2-3.5,0.9-5.1-0.7c-1.2-1.2-1.1-3.3,0.2-4.6l7.1-7.1l-0.2,0.2c1.5-1.5,3.6-1.7,4.9-0.4
						c1.6,1.6,2,3.9,0.7,5.1l1.5,1.5l30.5-30.5l2.2,2.2c-1.2,1.2-1.2,3.2,0,4.4c1.2,1.2,3.2,1.2,4.4,0l6.6-6.6
						c1.2-1.2,1.2-3.2,0-4.4c-1.2-1.2-3.2-1.2-4.4,0l-2.2-2.2l11-11c6.1-6.1,6.1-16,0-22.1v0l-10.6-10.6l-1.5,1.5
						c1.2,1.2,0.9,3.5-0.7,5.1c-1.2,1.2-3.3,1.1-4.6-0.2l-7.1-7.1l0.2,0.2c-1.5-1.5-1.7-3.6-0.4-4.9c1.6-1.6,3.9-2,5.1-0.7l0,0
						l1.5-1.5l-30.5-30.5l2.2-2.2c1.2,1.2,3.2,1.2,4.4,0c1.2-1.2,1.2-3.2,0-4.4l-6.6-6.6C243.4,0.3,241.4,0.3,240.2,1.5"/>
				</g>
			</g>
			<path class="st3" d="M249.9,86.4L229.5,66l-13,13l11.5,6.3v1.8c0,8.3-6.8,15.1-15.1,15.1h-24.3c-4,0-7.8-1.6-10.7-4.4
				c-2.9-2.9-4.4-6.7-4.4-10.7V62.9c0-4,1.6-7.8,4.4-10.7c2.9-2.9,6.7-4.4,10.7-4.4h1.8l6.3,11.5l25.5-25.5c4-4,10.5-4,14.5,0
				l32.9,32.9c4,4,4,10.5,0,14.5l-5.2,5.2C260.4,90.4,253.9,90.4,249.9,86.4 M195.3,69.2l-8.4-15.3c-1.8,0.3-3.4,1.2-4.8,2.5
				c-1.7,1.7-2.7,4-2.7,6.4v24.3c0,2.4,1,4.7,2.7,6.4c1.7,1.7,4,2.7,6.4,2.7h24.3c4.5,0,8.2-3.2,9-7.4l-15.3-8.4l22.9-22.9
				l24.6,24.6c1.7,1.7,4.4,1.7,6.1,0l5.2-5.2c1.7-1.7,1.7-4.4,0-6.1l-32.9-32.9c-1.7-1.7-4.4-1.7-6.1,0L195.3,69.2z"/>
		</g>
		<g>
			
				<image style="overflow:visible;opacity:0.25;" width="162" height="163" xlink:href="49A7AF2BD14E44B9.png"  transform="matrix(1 0 0 1 16.508 -70)">
			</image>
			<g>
				<path class="st1" d="M166.2-23c-1.7,0-3.1,1.4-3.1,3.1h-3.1v-15.6c0-8.6-7-15.6-15.6-15.6h-15v2.1c1.7,0,3.1,1.9,3.1,4.2
					c0,1.7-1.5,3.1-3.4,3.1h-10h0.3c-2.1,0-3.7-1.4-3.7-3.1c0-2.3,1.4-4.2,3.1-4.2v-2.1H75.6l0-3.1c1.7,0,3.1-1.4,3.1-3.1
					s-1.4-3.1-3.1-3.1h-9.4c-1.7,0-3.1,1.4-3.1,3.1s1.4,3.1,3.1,3.1v3.1H50.6c-8.6,0-15.6,7-15.6,15.6v15h1.1h1
					c0-1.7,1.9-3.1,4.2-3.1c1.7,0,3.1,1.5,3.1,3.4v9.7c0,2.1-1.4,3.7-3.1,3.7c-2.3,0-4.2-1.4-4.2-3.1H35v43.1h-1.5h-1.6
					c0-1.7-1.4-3.1-3.1-3.1c-1.7,0-3.1,1.4-3.1,3.1v9.4c0,1.7,1.4,3.1,3.1,3.1c1.7,0,3.1-1.4,3.1-3.1H35v2.2v13.4
					c0,8.6,7,15.6,15.6,15.6v0h15v-2.1c-1.7,0-3.1-1.9-3.1-4.2c0-1.7,1.5-3.1,3.4-3.1h0h10h-0.3c2.1,0,3.7,1.4,3.7,3.1
					c0,2.3-1.4,4.2-3.1,4.2v2.1h43.1v3.1c-1.7,0-3.1,1.4-3.1,3.1c0,1.7,1.4,3.1,3.1,3.1h9.4c1.7,0,3.1-1.4,3.1-3.1
					c0-1.7-1.4-3.1-3.1-3.1v-3.1h15.6c8.6,0,15.6-7,15.6-15.6h0v-15h-2.1c0,1.7-1.9,3.1-4.2,3.1c-1.7,0-3.1-1.5-3.1-3.4v-10v0.3
					c0-2.1,1.4-3.7,3.1-3.7c2.3,0,4.2,1.4,4.2,3.1h2.1v-43.1l3.1,0c0,1.7,1.4,3.1,3.1,3.1c1.7,0,3.1-1.4,3.1-3.1v-9.4
					C169.3-21.6,167.9-23,166.2-23"/>
				<path class="st2" d="M166.2-23c-1.7,0-3.1,1.4-3.1,3.1h-3.1v-15.6c0-8.6-7-15.6-15.6-15.6h-15v2.1c1.7,0,3.1,1.9,3.1,4.2
					c0,1.7-1.5,3.1-3.4,3.1h-10h0.3c-2.1,0-3.7-1.4-3.7-3.1c0-2.3,1.4-4.2,3.1-4.2v-2.1H75.6l0-3.1c1.7,0,3.1-1.4,3.1-3.1
					s-1.4-3.1-3.1-3.1h-9.4c-1.7,0-3.1,1.4-3.1,3.1s1.4,3.1,3.1,3.1v3.1H50.6c-8.6,0-15.6,7-15.6,15.6v15h1.1h1
					c0-1.7,1.9-3.1,4.2-3.1c1.7,0,3.1,1.5,3.1,3.4v9.7c0,2.1-1.4,3.7-3.1,3.7c-2.3,0-4.2-1.4-4.2-3.1H35v43.1h-1.5h-1.6
					c0-1.7-1.4-3.1-3.1-3.1c-1.7,0-3.1,1.4-3.1,3.1v9.4c0,1.7,1.4,3.1,3.1,3.1c1.7,0,3.1-1.4,3.1-3.1H35v2.2v13.4
					c0,8.6,7,15.6,15.6,15.6v0h15v-2.1c-1.7,0-3.1-1.9-3.1-4.2c0-1.7,1.5-3.1,3.4-3.1h0h10h-0.3c2.1,0,3.7,1.4,3.7,3.1
					c0,2.3-1.4,4.2-3.1,4.2v2.1h43.1v3.1c-1.7,0-3.1,1.4-3.1,3.1c0,1.7,1.4,3.1,3.1,3.1h9.4c1.7,0,3.1-1.4,3.1-3.1
					c0-1.7-1.4-3.1-3.1-3.1v-3.1h15.6c8.6,0,15.6-7,15.6-15.6h0v-15h-2.1c0,1.7-1.9,3.1-4.2,3.1c-1.7,0-3.1-1.5-3.1-3.4v-10v0.3
					c0-2.1,1.4-3.7,3.1-3.7c2.3,0,4.2,1.4,4.2,3.1h2.1v-43.1l3.1,0c0,1.7,1.4,3.1,3.1,3.1c1.7,0,3.1-1.4,3.1-3.1v-9.4
					C169.3-21.6,167.9-23,166.2-23"/>
			</g>
		</g>
		<path class="st4" d="M72.2,54.2h-7.4c-5.7,0-10.3-4.6-10.3-10.3V-2.6c0-5.7,4.6-10.3,10.3-10.3h36.1l-3.7-12.6l1.3-1.3
			c2.8-2.8,6.6-4.4,10.7-4.4c4,0,7.8,1.6,10.7,4.4L137-9.6c2.8,2.8,4.4,6.6,4.4,10.7c0,4-1.6,7.8-4.4,10.7l-17.2,17.2
			c-5.9,5.9-15.5,5.9-21.4,0l-1.3-1.3l3.7-12.6H82.4v28.8C82.4,49.6,77.8,54.2,72.2,54.2 M64.8-6.9c-2.4,0-4.3,1.9-4.3,4.3v46.5
			c0,2.4,1.9,4.3,4.3,4.3h7.4c2.4,0,4.3-1.9,4.3-4.3V9.1h32.4L104,25.8c3.6,2.4,8.5,2.1,11.6-1.1l17.2-17.1c1.7-1.7,2.7-4,2.7-6.5
			c0-2.4-0.9-4.7-2.7-6.5l-17.2-17.2c-1.7-1.7-4-2.7-6.5-2.7c-1.9,0-3.7,0.6-5.2,1.6l4.9,16.7H64.8z"/>
		<g>
			<g>
				
					<image style="overflow:visible;opacity:0.25;" width="160" height="160" xlink:href="49A7AF2BD14E44BF.png"  transform="matrix(1 0 0 1 15.508 60)">
				</image>
				<g>
					<path class="st1" d="M152.4,91.1c-1.6,0.4-2.6,2.1-2.2,3.7l-3,0.7l-3.6-14.8c-2-8.2-10.3-13.2-18.5-11.2c0,0-14.2,3.5-14.2,3.5
						l0.5,2c1.6-0.4,3.4,1,3.9,3.2c0.4,1.6-0.7,3.3-2.5,3.8l-9.5,2.3l0.3-0.1c-2,0.5-3.9-0.4-4.3-2.1c-0.5-2.2,0.4-4.3,2-4.7l-0.5-2
						l-40.9,10l-0.7-3c1.6-0.4,2.6-2.1,2.2-3.7c-0.4-1.6-2.1-2.6-3.7-2.2l-8.9,2.2c-1.6,0.4-2.6,2.1-2.2,3.7
						c0.4,1.6,2.1,2.6,3.7,2.2l0.7,3l-14.8,3.6C28,93.4,23,101.6,25,109.8l3.5,14.2l1-0.3l0.9-0.2c-0.4-1.6,1-3.4,3.2-3.9
						c1.6-0.4,3.3,0.7,3.8,2.5l2.3,9.2c0.5,2-0.5,3.9-2.1,4.3c-2.2,0.5-4.3-0.4-4.7-2l-2,0.5l10,40.9l-1.4,0.3l-1.6,0.4
						c-0.4-1.6-2.1-2.6-3.7-2.2c-1.6,0.4-2.6,2.1-2.2,3.7l2.2,8.9c0.4,1.6,2.1,2.6,3.7,2.2c1.6-0.4,2.6-2.1,2.2-3.7l3-0.7l0.5,2.1
						l3.1,12.7l0,0c2,8.2,10.3,13.2,18.5,11.2l0,0l14.2-3.5l-0.5-2c-1.6,0.4-3.4-1-3.9-3.2c-0.4-1.6,0.7-3.3,2.5-3.8l0,0l9.5-2.3
						l-0.3,0.1c2-0.5,3.9,0.5,4.3,2.1c0.5,2.2-0.4,4.3-2,4.7l0.5,2l40.9-10l0.7,3c-1.6,0.4-2.6,2.1-2.2,3.7c0.4,1.6,2.1,2.6,3.7,2.2
						l8.9-2.2c1.6-0.4,2.6-2.1,2.2-3.7c-0.4-1.6-2-2.6-3.7-2.2l-0.7-3l14.8-3.6c8.2-2,13.2-10.3,11.2-18.5l0,0l-3.5-14.2l-2,0.5
						c0.4,1.6-1,3.4-3.2,3.9c-1.6,0.4-3.3-0.7-3.8-2.5l-2.3-9.5l0.1,0.3c-0.5-2,0.5-3.9,2.1-4.3c2.2-0.5,4.3,0.4,4.7,2l0,0l2-0.5
						l-10-40.9l3-0.7c0.4,1.6,2.1,2.6,3.7,2.2c1.6-0.4,2.6-2.1,2.2-3.7l-2.2-8.9C155.7,91.7,154,90.7,152.4,91.1"/>
					<path class="st2" d="M152.4,91.1c-1.6,0.4-2.6,2.1-2.2,3.7l-3,0.7l-3.6-14.8c-2-8.2-10.3-13.2-18.5-11.2c0,0-14.2,3.5-14.2,3.5
						l0.5,2c1.6-0.4,3.4,1,3.9,3.2c0.4,1.6-0.7,3.3-2.5,3.8l-9.5,2.3l0.3-0.1c-2,0.5-3.9-0.4-4.3-2.1c-0.5-2.2,0.4-4.3,2-4.7l-0.5-2
						l-40.9,10l-0.7-3c1.6-0.4,2.6-2.1,2.2-3.7c-0.4-1.6-2.1-2.6-3.7-2.2l-8.9,2.2c-1.6,0.4-2.6,2.1-2.2,3.7
						c0.4,1.6,2.1,2.6,3.7,2.2l0.7,3l-14.8,3.6C28,93.4,23,101.6,25,109.8l3.5,14.2l1-0.3l0.9-0.2c-0.4-1.6,1-3.4,3.2-3.9
						c1.6-0.4,3.3,0.7,3.8,2.5l2.3,9.2c0.5,2-0.5,3.9-2.1,4.3c-2.2,0.5-4.3-0.4-4.7-2l-2,0.5l10,40.9l-1.4,0.3l-1.6,0.4
						c-0.4-1.6-2.1-2.6-3.7-2.2c-1.6,0.4-2.6,2.1-2.2,3.7l2.2,8.9c0.4,1.6,2.1,2.6,3.7,2.2c1.6-0.4,2.6-2.1,2.2-3.7l3-0.7l0.5,2.1
						l3.1,12.7l0,0c2,8.2,10.3,13.2,18.5,11.2l0,0l14.2-3.5l-0.5-2c-1.6,0.4-3.4-1-3.9-3.2c-0.4-1.6,0.7-3.3,2.5-3.8l0,0l9.5-2.3
						l-0.3,0.1c2-0.5,3.9,0.5,4.3,2.1c0.5,2.2-0.4,4.3-2,4.7l0.5,2l40.9-10l0.7,3c-1.6,0.4-2.6,2.1-2.2,3.7c0.4,1.6,2.1,2.6,3.7,2.2
						l8.9-2.2c1.6-0.4,2.6-2.1,2.2-3.7c-0.4-1.6-2-2.6-3.7-2.2l-0.7-3l14.8-3.6c8.2-2,13.2-10.3,11.2-18.5l0,0l-3.5-14.2l-2,0.5
						c0.4,1.6-1,3.4-3.2,3.9c-1.6,0.4-3.3-0.7-3.8-2.5l-2.3-9.5l0.1,0.3c-0.5-2,0.5-3.9,2.1-4.3c2.2-0.5,4.3,0.4,4.7,2l0,0l2-0.5
						l-10-40.9l3-0.7c0.4,1.6,2.1,2.6,3.7,2.2c1.6-0.4,2.6-2.1,2.2-3.7l-2.2-8.9C155.7,91.7,154,90.7,152.4,91.1"/>
				</g>
			</g>
			<path class="st5" d="M110.4,179.4l-7,1.7c-5.4,1.3-10.8-2-12.1-7.4l-8.1-33.2L72,147l-1.5-0.9c-3.4-2-5.7-5.3-6.7-9.1
				c-0.9-3.8-0.3-7.8,1.7-11.2l12.3-20.3c4.2-7,13.3-9.2,20.3-5l20.3,12.3c3.4,2,5.7,5.3,6.7,9.1c0.9,3.8,0.3,7.8-1.7,11.2l-0.9,1.5
				l-12.9-0.5l8.1,33.2C119.1,172.6,115.8,178.1,110.4,179.4 M87,131.6l10,40.7c0.5,2.2,2.8,3.6,5.1,3.1l7-1.7
				c2.2-0.6,3.6-2.8,3.1-5.1l-10-40.7l17,0.7c1.5-3.9,0-8.5-3.7-10.8l-20.3-12.3c-4.2-2.6-9.7-1.2-12.3,3l-12.3,20.3
				c-2.3,3.7-1.5,8.5,1.7,11.3L87,131.6z"/>
		</g>
	</g>
</g>
</svg>
