<?xml version="1.0" encoding="utf-8"?>
<!-- Generator: Adobe Illustrator 22.1.0, SVG Export Plug-In . SVG Version: 6.00 Build 0)  -->
<svg version="1.1" id="Layer_1" xmlns="http://www.w3.org/2000/svg" xmlns:xlink="http://www.w3.org/1999/xlink" x="0px" y="0px"
	 viewBox="0 0 24 24" style="enable-background:new 0 0 24 24;" xml:space="preserve">
<style type="text/css">
	.st0{display:none;fill:#1B2827;}
	.st1{fill:#FFFFFF;}
</style>
<g>
	<circle class="st0" cx="12" cy="12" r="12"/>
	<path class="st1" d="M12.8,19h-1.3c-1,0-1.8-0.8-1.8-1.8v-6l-2.2,0.6l-0.2-0.2c-0.5-0.5-0.8-1.1-0.8-1.8S6.8,8.5,7.3,8l2.9-2.9
		c1-1,2.7-1,3.7,0l3,2.9c0.5,0.5,0.8,1.1,0.8,1.8s-0.3,1.3-0.8,1.8l-0.2,0.2l-2.2-0.6v6C14.5,18.2,13.7,19,12.8,19 M10.8,9.9v7.4
		c0,0.4,0.3,0.7,0.7,0.7h1.3c0.4,0,0.7-0.3,0.7-0.7V10l2.9,0.8c0.4-0.6,0.4-1.4-0.2-2l-2.9-2.9c-0.6-0.6-1.6-0.6-2.2,0l-3,2.9
		c-0.5,0.5-0.6,1.4-0.2,2L10.8,9.9z"/>
</g>
</svg>
