<?xml version="1.0" encoding="utf-8"?>
<!-- Generator: Adobe Illustrator 21.1.0, SVG Export Plug-In . SVG Version: 6.00 Build 0)  -->
<svg version="1.1" id="Lag_1" xmlns="http://www.w3.org/2000/svg" xmlns:xlink="http://www.w3.org/1999/xlink" x="0px" y="0px"
	 viewBox="0 0 400 400" style="enable-background:new 0 0 400 400;" xml:space="preserve">
<style type="text/css">
	.st0{fill:#D74127;}
	.st1{fill:#FEFEFE;}
	.st2{fill:#D7D4D4;}
	.st3{fill:#B6857D;}
	.st4{fill:#CF4B2D;}
	.st5{fill:#C3492D;}
	.st6{fill:#B78983;}
	.st7{fill:#BD8075;}
</style>
<g>
	<g>
		<path class="st0" d="M2,263.6c0-2.7,0-5.4,0-8.1c2.9-4.9,7.2-7.2,12.7-6.2c8,1.6,9-2.9,8.9-9.2c-0.1-19.6,0.2-39.2-0.1-58.8
			c-0.2-10.9,1.2-21.6,2.5-32.3c1.1-9.1,5.3-11.8,14-7.9c7.3,3.3,9.3,0.1,9.8-6.1c0.3-3.7,0.3-7.4,0.1-11.1
			c-0.4-9.9-1.4-10.5-11.5-8.4c-7.4,1.6-11.8-1.2-12.3-9.1c-1-14.5-1.8-29.2,0.2-43.5C28.8,45.4,40.8,27.6,67.1,29
			c31.1,0,62.2,0,93.2,0c34.6,0,69.1,0,103.6,0c23.6,0,47.3-0.1,70.9,0c28.6,0.1,45.2,16.5,45.5,45c0.1,7.8,0,15.5,0.1,23.3
			c0.1,5.2,1.4,8.4,7.9,6.9c7.6-1.7,12.6,1.1,12.6,9.8c0,10.1,0,20.2,0,30.3c0.4,8.1-3.4,12.8-11.5,11.2c-8.3-1.7-9.1,2.4-9.1,8.7
			c0,24,0,48,0,72c0,5.1,0.1,10.1-0.2,15.2c-0.7,12.1-4.8,15.2-16.1,11.3c-6.4-2.2-8.9,0.2-9.8,6c-0.5,3-0.3,6.1-0.3,9.1
			c0.2,13.1,1.2,13.9,13.5,10.1c6.6-2,11.7,0.7,12.2,7.9c1.1,14.8,1.9,29.8-0.6,44.5c-3.3,19.2-14,31.7-34,34.8
			c-73.1,0-146.2,0-219.3,0c-20.3-2.3-40.6-0.4-60.8-1c-28.1,1.6-39.5-20.9-41.2-40.1c-0.7-8.4-0.5-16.8-0.2-25.2
			c0.2-6.7-1.4-10.1-9.1-8.8C7.4,301.2,3,297.7,3,289.9c0-3.3,0-6.6,0-9.9C2.5,274.5,4.2,268.9,2,263.6z"/>
		<path class="st1" d="M64.8,29.8c-16,1.4-32.8,17.6-34.2,34.7c-1.1,14.5-0.6,29-0.8,43.6c0,1.9-0.5,4.2,1.8,5.3
			c2.7,1.2,4.2-0.4,5.8-2.5c3-3.9,6.8-6.7,12.1-4.7c5.5,2.1,5.6,6.9,5.6,11.8c-0.1,7.4,0,14.9-0.1,22.3c-0.1,4.2-0.5,8.2-5.4,9.7
			c-4.7,1.5-8.5,0.2-11.7-3.5c-1.6-1.9-2.3-5.6-5.9-4.1c-3.7,1.5-2.1,5.2-2.3,8c-2,34.1-0.6,68.2-1.2,102.3c0,2.9,2.3,7.2-2.6,8.5
			c-3.9,1.1-4.7-2.4-6.5-4.9c-5.2-7.1-11.6-1.3-17.5-1c0-72.8,0.2-145.7-0.2-218.5c0-8.1,2.4-9.3,9.6-9.1C29.2,28.4,47.1,28,65,28
			C66.4,28.8,66.3,29.4,64.8,29.8z"/>
		<path class="st1" d="M345.2,375.2c3.2-4.2,8.6-4.4,12.5-7.5c10.3-8.2,16.5-18.9,17.4-31.8c1-13.4,0.4-27,0.5-40.5
			c0-2,0.2-4.3-2.4-4.9c-2.5-0.6-4.6,0.1-5.8,2.8c-2.3,5.1-6.9,6.5-11.7,5.2c-6-1.6-6.7-6.7-6.5-12.2c0.2-7.4-0.1-14.9,0.1-22.3
			c0.1-4.3,2.1-7.8,6.2-9.6c4.4-1.9,8,0.5,10.7,3.4c2.1,2.2,3.4,5.4,7.1,4.1c4-1.5,2.2-5.2,2.2-7.9c0.1-33.8,0-67.6,0.3-101.3
			c0-2.9-2.4-7,2.4-8.6c4.4-1.5,5.2,2.7,7.5,4.8c5.2,4.6,10.5,6.1,14.4-1.8c-0.1-1.6,0.5-2,1.9-1.2c0,74.1-0.1,148.2,0.2,222.3
			c0,6.1-1.2,7.5-7.3,7.3C378.4,374.9,361.8,375.2,345.2,375.2z"/>
		<path class="st1" d="M400.1,112.7c-4.9-7.9-10.3-6.1-15.1-0.3c-2,2.4-3.2,5.3-6.9,4.1c-4.2-1.4-2.2-5.1-2.4-7.8
			c-0.8-13.1,1.4-26.2,0.1-39.3c-2.2-22.8-20-39.2-43.1-39.3c-22.2-0.1-44.5-0.2-66.7-0.3c-1.5-0.5-1.5-1.1-0.1-1.7
			c43.3,0,86.6,0.1,129.9-0.1c5.1,0,6.3,1.1,6.2,6.2c-0.3,26.4-0.1,52.8-0.1,79.2C400.9,114.5,400.3,114.3,400.1,112.7z"/>
		<path class="st1" d="M3.8,290.8c5.3,7.9,11.4,8.2,16.5,0.5c1.6-2.5,3-3.4,5.5-3.1c3.8,0.3,2.5,3.4,2.6,5.5
			c0.1,13.2-0.2,26.4,0.1,39.5c0.5,20.1,15.4,37.4,34.3,40.2c1.5,0.5,1.6,1.2,0.2,1.9c-18.6,0-37.2-0.2-55.8,0.1
			c-4.4,0.1-5.3-0.8-5.2-5.2C2.2,343.4,2,316.7,2,290C3.3,288.8,3.8,289.1,3.8,290.8z"/>
		<path class="st2" d="M266,28c0,0.6,0,1.1,0.1,1.7c-35.2,0-70.4,0.1-105.6,0.1c-1.5-0.5-1.5-1.1-0.1-1.8C195.6,28,230.8,28,266,28z
			"/>
		<path class="st3" d="M160.4,28c-0.1,0.6,0,1.2,0.1,1.8c-31.9,0-63.8,0-95.7,0C65,29.3,65,28.6,65,28C96.8,28,128.6,28,160.4,28z"
			/>
		<path class="st4" d="M62.9,375.2c-0.1-0.6-0.1-1.3-0.2-1.9c17.8,0,35.6-0.1,53.4-0.1c3.4,0,6.8-0.1,9.7,2
			C104.9,375.2,83.9,375.2,62.9,375.2z"/>
		<path class="st5" d="M400.1,112.7c0.7,0.1,1.3,0.3,1.9,0.6c0,10.8,0,21.7,0,32.5c-0.6,0.4-1.3,0.8-1.9,1.2
			C400.1,135.5,400.1,124.1,400.1,112.7z"/>
		<path class="st6" d="M2,263.6c3.8,5.1,1.5,10.7,1.7,16.2c-0.5,1.5-1.1,1.5-1.7,0.1C2,274.4,2,269,2,263.6z"/>
		<path class="st7" d="M2,279.8c0.6,0,1.1-0.1,1.7-0.1c0,3.7,0.1,7.3,0.1,11c-0.6-0.3-1.2-0.5-1.8-0.8C2,286.6,2,283.2,2,279.8z"/>
		<path class="st1" d="M132.7,201.6c0-27.1,0-54.1,0-81.2c0-4.4-0.7-9.1,4.1-11.7c4.7-2.6,8.4,0.2,12.1,2.6
			c42.5,27.5,85.1,55,127.6,82.6c10.1,6.5,10.1,11.5,0,17.9c-42.8,27.1-85.6,54.1-128.4,81.2c-3.8,2.4-7.6,5-12.2,2.5
			c-4.7-2.6-3.9-7.4-3.9-11.8c0-27.4,0-54.8,0-82.2C132.2,201.6,132.5,201.6,132.7,201.6z"/>
	</g>
</g>
</svg>
