<?xml version="1.0" encoding="utf-8"?>
<!-- Generator: Adobe Illustrator 21.1.0, SVG Export Plug-In . SVG Version: 6.00 Build 0)  -->
<svg version="1.1" id="Lag_1" xmlns="http://www.w3.org/2000/svg" xmlns:xlink="http://www.w3.org/1999/xlink" x="0px" y="0px"
	 viewBox="0 0 400 400" style="enable-background:new 0 0 400 400;" xml:space="preserve">
<style type="text/css">
	.st0{fill:#D74127;}
	.st1{fill:#FEFEFE;}
	.st2{fill:#FEFDFD;}
	.st3{fill:#CFC4C2;}
	.st4{fill:#F8F8F8;}
	.st5{fill:#F1EDED;}
	.st6{fill:#D75F4D;}
	.st7{fill:#C98174;}
	.st8{fill:#DC4328;}
	.st9{fill:#D73E23;}
	.st10{fill:#D43217;}
	.st11{fill:#D12608;}
	.st12{fill:#D6371A;}
	.st13{fill:#D43417;}
	.st14{fill:#F24A2C;}
	.st15{fill:#D32C0E;}
	.st16{fill:#D12506;}
	.st17{fill:#D5391D;}
</style>
<g>
	<g>
		<path class="st0" d="M9,24.5c0-3.4,0-6.8,0-10.2c1.8-7,5.1-12.2,13.5-11.2c4.6,0,9.3,0,13.9,0c18.7-0.2,34.4,6.1,46,21.4
			c4.8,6.3,11.6,7.6,19,7.6c31.6,0,63.1,0,94.7,0c47.8,0,95.7,0,143.5,0c6.8,0,13.5,0.1,20.2,1.6c23.8,5.1,33.5,16.8,33.8,41
			c0,85.7,0,171.4,0,257.1c-1.2,24.3-15.3,38.9-39.4,40.1c-19.3,0.9-38.7,0.3-58,0.3c-62.8,0-125.5,0-188.3,0
			c-6.4,0-12.9-0.6-19.1,1.7c-3.4,1.7-6.6,3.7-8.2,7.4c-10,15.1-25.2,19.4-42.1,19.8c-6,0-11.9,0-17.9,0c-7.8,0.3-9.7-5.4-11.6-11.2
			c0-3.4,0-6.8,0-10.2c2-10,8.3-13.8,18.2-15.5c23.5-4.1,34.2-17.6,34.2-41.6c0-11.1,1.2-22.2-0.8-33.2c-0.3-0.1-0.7-0.4-0.9-0.4
			c-17,3.5-17,3.6-17-14.3c0-1.7,0-3.4,0-5.1c0-17,0.3-17.3,16.6-14.5c0.6,0.1,1.2-0.5,1.6-1.2c1.4-19.4,0.3-38.8,0.6-58.2
			c0.2-12.9-0.3-25.9,0.2-38.8c0.5-11.3,3.8-13.7,14.8-10.6c6.6,1.8,8.9-0.9,9.3-6.8c0.3-3.7,0.3-7.5,0.1-11.2
			c-0.5-9.5-1.7-10.4-10.9-8.1c-8.1,2-12.3-0.8-13.1-9.4c-0.9-10.5-0.2-21.1-0.5-31.6c-0.6-21.5-12.3-35.1-33.8-37.8
			C17,40,11.3,34.5,9,24.5z"/>
		<path class="st1" d="M9,24.5c4.8,7.6,11.1,11.2,20.7,11.7c19.7,0.9,36.1,19.3,36.6,39.7c0.3,12.2,0,24.5,0.1,36.7
			c0,2.1-1.4,5.1,2,5.9c2.2,0.5,3.9-0.5,5.2-2.4c2.9-4.4,6.9-6.4,12.1-4.4c5.6,2.1,5.5,7.1,5.4,12c-0.1,6.5,0,12.9,0,19.4
			c0,4.7-1,8.8-5.8,10.8c-4.5,1.9-7.7-1-11.1-3.2c-2-1.3-2.4-5.5-6.1-3.6c-3.1,1.6-1.7,4.9-1.7,7.3c-0.2,35-0.2,70-0.3,105.1
			c-4.3,2.8-7.7,1.8-10.2-2.4c-1.9-3.2-4.8-3.6-7.9-2.4c-2.9,1.1-4.1,3.6-4.1,6.5c-0.2,7.5-0.2,14.9,0,22.4c0.1,3.4,1.8,5.9,4.8,7.1
			c3,1.2,5-1.2,7-3c2.9-2.5,4.5-9,10.1-3.4c-0.3,20.4,4.7,41.2-3.8,60.9c-5.7,13.2-16.1,21.8-30.8,23c-9.3,0.8-17,3.2-22.1,11.4
			C9,261.2,9,142.9,9,24.5z"/>
		<path class="st1" d="M393,73.2c-3.8-22.6-20.1-35.7-44.6-35.7c-83.3,0-166.6-0.1-249.9,0.1c-7.7,0-13-1.8-18-8.3
			C69.3,14.9,54.2,6.2,35.8,4c-1.6-0.5-1.7-1.1-0.2-1.9c117,0,234,0.1,351-0.2c7,0,8.6,1.3,8.4,8.4c-0.6,21.1-0.2,42.2-0.2,63.3
			C394,74.9,393.4,74.8,393,73.2z"/>
		<path class="st2" d="M39.6,400c15.8-2.8,29-10,39.2-22.6c0.9-2.1,2.2-4,4.2-5.4c3.6-5.3,8.9-5.1,14.5-5.1
			c84.3,0.1,168.6,0.1,252.9,0.1c22.5,0,37.7-12.3,42.6-34.4c0.7-1.4,1.3-1.3,2,0c0,20.4-0.3,40.7,0.2,61.1c0.2,6.6-0.8,8.6-8.2,8.5
			c-115.7-0.3-231.4-0.2-347.1-0.2C38.3,401.4,38.3,400.7,39.6,400z"/>
		<path class="st3" d="M394.8,332.7l-1-0.1c0,0-1,0-1,0c0.1-86.5,0.1-172.9,0.2-259.4c0.6-0.2,1.2-0.1,1.8,0.2
			C394.8,159.9,394.8,246.3,394.8,332.7z"/>
		<path class="st4" d="M21.2,4.1C15.1,5,13.2,11,9,14.3C6.7,3.8,10.8-0.3,21.3,2C22.7,2.8,22.7,3.4,21.2,4.1z"/>
		<path class="st5" d="M9,389.8c4,2.9,4.9,8.8,10.5,10.1c1.2,0.9,1.1,1.6-0.3,2.2C6.6,405.7,9.2,396.6,9,389.8z"/>
		<path class="st6" d="M19.2,402c0.1-0.7,0.2-1.4,0.3-2.2c6.7,0,13.4,0.1,20,0.1c0,0.7,0.1,1.4,0.1,2.1C32.9,402,26,402,19.2,402z"
			/>
		<path class="st7" d="M21.2,4.1c0.2-0.7,0.2-1.3,0.1-2c4.8,0,9.5,0,14.3,0c-0.1,0.7,0,1.3,0.2,1.9C30.9,4,26.1,4,21.2,4.1z"/>
		<path class="st2" d="M215.2,114.4c24.7-2.5,48.1,0.9,68.2,16.7c29.2,23.1,41.6,53.6,33.9,89.9c-7.7,36-30.8,59.3-67.1,68.3
			c-3.1,0.8-5.9,1.3-7.6,4.3c-9,0.4-17.9,0.5-26.8-0.6c-2.8-0.3-5.4-0.4-6.6-3.4c-17-6-32.4-14.6-44.4-28.5
			c-18-20.8-24.4-45-20.9-72.1c0.5-4,1.2-8,1.8-12c2.3-1.3-0.2-4.4,2.2-5.6c11.7-26.9,31.3-45.5,59.2-55
			C209.4,114.6,211.7,111.9,215.2,114.4z"/>
		<path class="st8" d="M65.8,284.3c-3.4,0.3-6.4,0.4-8.3,4.4c-1.6,3.4-5.2,5.5-9.4,3.6c-3.6-1.6-6.1-4.3-6-8.6
			c0.1-7.8-0.1-15.6,0.2-23.4c0.1-3.1,1-6.8,4.5-7.1c3.4-0.3,8-1.9,10.2,2.1c2.2,4.1,5.1,5,9.2,4.2c-4.1,6.6-7.7,2.8-11.1-0.7
			c-5.6-5.6-8.3-2.7-9,3.4c-0.6,5.7-0.3,11.4-0.2,17.2c0.1,3.3-0.7,7.3,3.1,8.9c3.5,1.4,5.2-2.2,7.5-4
			C59.5,281.9,62.7,276.4,65.8,284.3z"/>
		<path class="st9" d="M209.1,289.5c7.6,3.5,15.6,0.8,23.4,1.8c3.4,0.4,7.4-1.9,10,2.2C230.8,297.4,219.5,297.1,209.1,289.5z"/>
		<path class="st10" d="M242,111.6c-7,0-14,0-20.9,0c0-0.3,0-0.6,0-0.9c7,0,14,0,20.9,0C242,111.1,242,111.4,242,111.6z"/>
		<path class="st11" d="M140.2,210.6c0-4.9,0-9.8,0-14.7c0.2,0,0.3,0,0.5-0.1c0,4.9,0,9.8,0,14.7
			C140.5,210.6,140.4,210.6,140.2,210.6z"/>
		<path class="st12" d="M215.2,114.4c-2.7,0.7-5.5,1.3-8.2,2C208.7,111.7,211.6,111.6,215.2,114.4z"/>
		<path class="st13" d="M147.8,171.4c-0.7,1.9-1.5,3.7-2.2,5.6c0.4-2.4-1.8-4.9,0.5-7.1C146.2,169.9,147.2,170.9,147.8,171.4z"/>
		<path class="st14" d="M82.9,372c-0.7,2.4-2.1,4.1-4.2,5.4C77.3,373.4,80.4,373,82.9,372z"/>
		<path class="st0" d="M305.1,212.3c-3.4,28.8-19.2,48.6-45.2,59.9c-26.5,11.5-51.5,7.2-74.4-10c-11.2-8.4-20.1-18.8-23.6-32.9
			c-0.9-4.5-1.8-9.1-2.8-13.6c-1.9-8.6-0.4-17.4-1.2-26c4.6-46,58-76.1,101.9-57c26.5,11.5,42.3,31.7,45.4,61
			C303.2,199.9,303.3,206.1,305.1,212.3z"/>
		<path class="st15" d="M157.8,189.7c4.3,8.6,1.2,17.8,2.2,26.6c-0.8,1.2-1.5,1.2-2.2,0c-0.1-1.1-0.1-2.2-0.2-3.2
			c-1.1-7.3-1.2-14.7,0-22C157.3,190.6,157.4,190.2,157.8,189.7z"/>
		<path class="st0" d="M157.7,191.1c0.9,7.3,0.9,14.7,0,22C155.2,205.8,155.5,198.5,157.7,191.1z"/>
		<path class="st16" d="M305.1,212.3c-3.2-6.2-3.3-12.4,0.1-18.5C306.2,200,306.2,206.1,305.1,212.3z"/>
		<path class="st17" d="M157.9,216.3c0.7,0,1.5,0,2.2,0c2.2,4.1,2.1,8.6,1.8,13C158.8,225.6,158.2,221,157.9,216.3z"/>
		<path class="st1" d="M231.5,152.9c27.7,0.2,49.9,22.2,49.1,49.9c-0.9,30.3-20.5,49.5-49.4,49.3c-30.8-0.2-49.5-20-49.5-50.3
			C181.7,173.5,202.2,153,231.5,152.9z"/>
	</g>
</g>
</svg>
