<?xml version="1.0" encoding="utf-8"?>
<!-- Generator: Adobe Illustrator 21.1.0, SVG Export Plug-In . SVG Version: 6.00 Build 0)  -->
<svg version="1.1" id="Lag_1" xmlns="http://www.w3.org/2000/svg" xmlns:xlink="http://www.w3.org/1999/xlink" x="0px" y="0px"
	 viewBox="0 0 400 400" style="enable-background:new 0 0 400 400;" xml:space="preserve">
<style type="text/css">
	.st0{fill:#248DC1;}
	.st1{fill:#FEFEFE;}
	.st2{fill:#E2E3E4;}
	.st3{fill:#F4F6F7;}
	.st4{fill:#EEF0F2;}
	.st5{fill:#C5CDD6;}
	.st6{fill:#9CB8D1;}
	.st7{fill:#9EB9D1;}
	.st8{fill:#FDFEFE;}
	.st9{fill:#1E8CC0;}
	.st10{fill:#1486BD;}
	.st11{fill:#1586BD;}
	.st12{fill:#1787BE;}
	.st13{fill:#1D8CC0;}
</style>
<g>
	<g>
		<path class="st0" d="M381.8,401c-6.1,0-12.1,0-18.2,0c-2.3-1.6-5-1.9-7.7-2.1c-12.1-1-21.8-6.5-28.9-16.2
			c-7.2-9.9-16.5-13.3-28.7-13.3c-80.7,0.3-161.4,0.2-242.1,0.1c-7.7,0-15.2-0.5-22.6-3.7c-17.5-7.5-23.8-21.5-24.6-39.2
			C9,243.6,9,160.4,9,77.3c1.7-9.3,1-18.8,8.4-27.1c11.1-12.6,24.1-17.9,40.8-17.9c79.3,0.3,158.5,0,237.8,0.3
			c12.4,0,22.4-2.2,31.3-12.2C337.9,8.2,352.8,3.3,369,2.5c4.6-0.9,9.3-0.3,14-0.4c7,0.5,12.2,2.9,11.9,11.1c0,3.3,0,6.5,0,9.8
			c-2.2,12.4-3.7,13.8-16,15.3c-25,3-36.9,16.4-36.7,41.8c0,7.4,0,14.8,0.1,22.2c0.1,4.7,0.9,7.3,7.1,6.4
			c11.5-1.6,16.1,2.9,16.8,14.4c0.4,6.4,0.5,12.8-0.1,19.2c-0.8,9.6-5.1,14-14.4,12.2c-8.7-1.7-9.6,1.9-9.6,8.8
			c0.2,24.2,0.1,48.5,0.1,72.7c0,4,0.1,8.1-0.3,12.1c-1,8.9-4.1,11.1-12.6,9c-8.1-2-10.3-0.5-11.1,7.7c-0.4,3.7-0.3,7.4-0.1,11.1
			c0.5,10.3,2.5,11.7,12.2,8.9c7.2-2.1,10.7,0.1,11.5,8c1,10.1,0.5,20.2,0.4,30.3c-0.1,24.7,10.6,37.4,35,41
			c14.3,2.1,15.3,3,17.7,14.8c0,3.2,0,6.4,0,9.6C395.7,397.9,388.9,399.6,381.8,401z"/>
		<path class="st1" d="M394.2,378.5c-2.7-8.6-10.3-9.4-17.1-9.7c-25-1.1-41.2-21-40.7-45.9c0.3-11.6,0-23.3,0-36.4
			c-3.7,2.8-5.8,4.8-8.2,6.2c-8.3,4.6-14.8,1.2-15.3-8.2c-0.3-7.1-0.1-14.1-0.1-21.2c0-5.7-0.9-12.1,6-14.6
			c6.7-2.4,11.6,1.2,15.7,6.9c3-3.5,1.8-7.3,1.8-10.6c0.1-31,0-61.9,0.2-92.9c0-3.2-2.6-8,2.7-9.4c4-1.1,7.6-0.4,9.3,4.8
			c1,3,4.5,3.6,7.8,2.7c3.4-0.9,5-3.2,4.9-6.7c0-7.7,0.2-15.5-0.1-23.2c-0.1-3.4-1.4-6.8-5.3-7.7c-3.7-0.8-7.1,0.5-8.1,4.1
			c-1.4,5-4.9,3.8-8,3.6c-4.9-0.3-3.3-4.3-3.3-7c0.4-14.8-1.3-29.6,1-44.3c3.3-20.6,17.9-33.8,39-35.2c7.6-0.5,15-1.2,17.7-10.2
			c0.1-0.6,0.2-1.2,0.3-1.8c0.4,0.5,0.9,0.9,1.3,1.4c0,118.5,0,237,0,355.6c-0.4,0.4-0.8,0.9-1.1,1.3
			C394.6,379.6,394.4,379,394.2,378.5z"/>
		<path class="st1" d="M369.6,3.1c-19.5,5.1-36.7,13.9-48.3,31.2c-3.3,4.9-7.7,3.3-11.7,3.3c-82,0.1-164,0.1-246,0.1
			c-33.1,0-43,7-53.8,37.9c-0.5,1.5-1.1,1.5-1.8,0.1C8,53.2,8.3,30.6,7.8,8.1c-0.1-6,1.2-7.3,7.3-7.2C133.3,1.1,251.5,1,369.6,1
			C371,1.7,371,2.4,369.6,3.1z"/>
		<path class="st1" d="M10.6,328.1c3.5,23.3,23.5,37,44.9,36.8c84.3-0.9,168.7-0.3,253-0.5c7.5,0,12.3,2.1,16.5,8.5
			c7.5,11.4,18,19.4,31.1,23.8c2.8,0.9,6.1,0.8,7.5,4.3c-115.6,0-231.1-0.1-346.7,0.2c-7.9,0-9.3-2.2-9.1-9.5
			C8.4,370.6,8,349.5,8,328.3C8.8,326.9,9.6,326.8,10.6,328.1z"/>
		<path class="st2" d="M10.6,328.1c-0.9,0.1-1.7,0.2-2.6,0.2c0-84.2,0-168.4,0-252.5c0.6-0.1,1.2-0.2,1.8-0.1
			C9.9,155.1,10,234.5,10.1,314C10.1,318.7,10.4,323.4,10.6,328.1z"/>
		<path class="st3" d="M394.2,12.9c-1.8-5-5.6-8-10.3-10.1c-1.5-0.5-1.5-1.1-0.1-1.8c10.4-2.3,14.4,1.8,12.1,12.1
			C395.1,14.6,394.5,14.5,394.2,12.9z"/>
		<path class="st4" d="M381.8,401c5.3-2.8,10.8-5.3,12.5-11.8c0.2-0.5,0.4-1.1,0.5-1.6c0.4,0.4,0.7,0.9,1.1,1.3
			C395.9,401,395.9,401,381.8,401z"/>
		<path class="st5" d="M383.8,1c0,0.6,0,1.2,0.1,1.8c-4.7,0.1-9.5,0.2-14.2,0.3c0-0.7,0-1.4,0-2.1C374.4,1,379.1,1,383.8,1z"/>
		<path class="st6" d="M394.2,12.9c0.6-0.1,1.2,0,1.7,0.3c0,3.4,0,6.7,0,10.1l-0.7,0.7c0,0-0.9-0.2-0.9-0.2
			C394.2,20.1,394.2,16.5,394.2,12.9z"/>
		<path class="st7" d="M395.9,388.9l-0.8,0.4c0,0-0.9-0.1-0.9-0.1c0-3.6,0-7.2-0.1-10.8c0.6-0.2,1.2-0.1,1.7,0.3
			C395.9,382.2,395.9,385.5,395.9,388.9z"/>
		<path class="st8" d="M187.2,112.5c18.5,5.3,35.7,12.9,49.5,27.2c43.3,44.8,27.4,120.7-30.4,143.9C146,307.8,85.5,264,83.7,201.9
			c-1.1-39.9,28.3-77.1,67.8-87.2c2.2-0.6,4.4-1.5,6.6-2.2c2.2-2.6,5.3-0.7,7.9-1.7c4.5-1,8.9-1,13.4,0
			C181.8,111.8,185,109.9,187.2,112.5z"/>
		<path class="st9" d="M179.7,112c-4.7,0-9.4,0-14.1,0c-1.4-0.6-1.4-1.2,0-1.9c4.7-2.8,9.4-2.8,14.2,0
			C181.1,110.8,181.1,111.4,179.7,112z"/>
		<path class="st10" d="M179.7,112c0-0.6,0-1.2,0-1.8c2.4,0.9,6.1-2.3,7.5,2.3C184.7,112.3,182.2,112.1,179.7,112z"/>
		<path class="st11" d="M165.6,110.2c0,0.6,0,1.2,0,1.9c-2.5,0.2-5,0.3-7.5,0.5C159.5,108.3,163.1,110.9,165.6,110.2z"/>
		<path class="st0" d="M248.6,201.4c-1.8,42.6-32.4,75.5-76,75.6c-43.2,0.1-75.3-34.7-75.5-75.8c-0.3-41.8,35.3-76.3,76.4-75.7
			C213.4,126.2,247.6,157.9,248.6,201.4z"/>
		<path class="st1" d="M179.2,150.8c10.6,3.3,20.9,6.9,29,15.3c15.8,16.4,19,40.8,7.5,60.5c-11.4,19.3-33.8,28.6-55.4,22.9
			c-22.3-5.9-36.9-24.7-37-47.8c-0.1-25.5,12.6-40.6,42.9-50.9C170.5,148.7,174.8,148.7,179.2,150.8z"/>
		<path class="st12" d="M179.2,150.8c-4.3,0-8.7,0-13,0c4.2-4.5,9.1-2.1,13.9-1.5c-0.1,0.3,0,0.6-0.2,0.8
			C179.7,150.4,179.4,150.6,179.2,150.8z"/>
		<path class="st13" d="M121.1,201.3c-0.3,0.8-0.6,1.4-0.8,2c-0.4-0.7-1-1.5-1.1-2.2c0-0.8,0.6-1.5,1-2.3
			C120.6,199.7,120.9,200.6,121.1,201.3z"/>
	</g>
</g>
</svg>
