<?xml version="1.0" encoding="utf-8"?>
<!-- Generator: Adobe Illustrator 21.1.0, SVG Export Plug-In . SVG Version: 6.00 Build 0)  -->
<svg version="1.1" id="Lag_1" xmlns="http://www.w3.org/2000/svg" xmlns:xlink="http://www.w3.org/1999/xlink" x="0px" y="0px"
	 viewBox="0 0 400 400" style="enable-background:new 0 0 400 400;" xml:space="preserve">
<style type="text/css">
	.st0{fill:#248DC1;}
	.st1{fill:#FEFEFE;}
	.st2{fill:#CAD3DB;}
	.st3{fill:#F7F9FA;}
	.st4{fill:#F7F8FA;}
	.st5{fill:#E9ECEF;}
	.st6{fill:#FDFEFE;}
	.st7{fill:#1F8EC2;}
	.st8{fill:#1F8DC2;}
	.st9{fill:#1E8DC2;}
	.st10{fill:#1E8ABF;}
	.st11{fill:#2285B5;}
	.st12{fill:#1688BE;}
	.st13{fill:#0F83BB;}
	.st14{fill:#1D8ABF;}
	.st15{fill:#1F8BC0;}
	.st16{fill:#1B8ABF;}
</style>
<g>
	<g>
		<path class="st0" d="M34.3,402c-4,0-8.1,0-12.1,0C13.8,401,9,396.3,8,387.9c0-2,0-4,0-6.1c2.5-10.8,8-16.7,20.4-17.6
			c16.1-1.1,26.3-11.8,32.2-26.5c1.4-3.5,1.4-8.2,6.3-9.5c5-2,2.3-6.3,2.6-9.5c0.5-5.6,0.1-11.3,0.1-15.4c-0.8,7.1,1.4,15.9-1,24.5
			c-5.1,0.2-5.9-3.5-6.4-7.2c-0.5-3.7-0.4-7.4-0.5-11c-0.1-11.6-0.2-11.5-11.9-13.1c-6.7-0.9-11.1-4.5-11.8-11.6
			c-0.7-7.7-0.8-15.4-0.2-23.1c0.8-10.4,6.7-14.8,17-12.6c2.9,0.6,5.7,2.4,8.3-0.4c5.1-3.4,4.3-8.8,4.4-13.7
			c0.1-23.4,0-46.9,0.1-70.3c0-4-0.6-8.1,1.1-11.9c1.8-3.3,4.7-4.5,8.3-4.1c4.1,0.5,7.2-0.7,8.7-4.8c2.5-7.9,2.6-15.7-0.1-23.5
			c-1.4-3.6-4.3-4.7-7.9-4.6c-3.1,0.1-5.9-0.4-7.3-3.8c-1.9-9.2-0.3-18.3-0.9-25.3c-0.6,8.6,0.7,19.4-0.4,30.2
			c-6.7,1.3-6.8-3.8-7.2-8c-0.8-8.7-0.9-17.5-0.3-26.2c1.9-26.6-16.5-40.5-35-42.8C16.4,38.7,10.3,34.4,8,24.2c0-2.7,0-5.4,0-8.1
			c2-8,5.8-13.9,15.3-13.1c4,0,8,0,12,0c19.5,0.5,36,7.4,48.5,22.8c5.5,6.8,13,7.6,20.9,7.6c41.4,0,82.7,0,124.1,0
			c38.3,0,76.7,0,115,0c5.7,0,11.4,0,17.1,1.1c22.9,4.2,32.9,15.7,33.9,39.3c0,85.3,0,170.7,0,256c-1,26.9-14.7,40.5-41.8,40.6
			c-80.6,0.2-161.3,0.3-241.9-0.1c-13.3-0.1-24.4,2.4-32.8,13.4C67.3,398.4,50.4,399.3,34.3,402z"/>
		<path class="st1" d="M8,24.2c6,8.6,14.7,10.9,24.6,12.3C51,39,64.6,54.6,66.8,73.1c1.8,14.6-1.4,29.3,1.8,43.7
			c1.8-0.7,0.2-5.2,4-3.6c7.1-3,14.4-6.8,18.5,4c1.1,10.1,1.1,20.1,0,30.2c-4.2,10.8-11,8.7-18.4,3.9c-5.7,2.1-4.1,7.1-4.1,11.1
			c-0.1,28.7,0,57.5-0.1,86.2c0,3.2,1,6.7-0.9,9.8c-4.6,3.1-8.6,3.5-11.3-2.5c-1.7-3.8-5.1-4.1-8.5-3.2c-3.6,0.9-5.5,3.5-5.5,7.4
			c0.1,7.7,0.1,15.4,0,23.2c-0.1,3.7,0.6,6.6,4.5,8c3.9,1.3,7.4,0.9,9.8-2.6c2.1-2.9,4.1-5.6,8.1-3.9c3.7,1.6,2.4,5.1,2.6,7.9
			c0.6,11.7-1,23.4,1,35.1l-0.1,0.7c-4.3,21.6-15.4,37.5-38.4,40.2C19.7,370,13,373.6,8,381.8C8,262.6,8,143.4,8,24.2z"/>
		<path class="st1" d="M394.2,72.5c-4.2-20-18.8-34.2-44.1-34.2c-84.5,0.1-169-0.1-253.5,0.2c-7.1,0-11.5-1.9-15.8-7.8
			C69.5,15,53,7.2,34.3,3.7c-1.5-0.5-1.5-1.1,0-1.7C152.1,2,270,2.1,387.8,1.8c6.9,0,8.5,1.3,8.3,8.3c-0.6,20.9-0.2,41.7-0.2,62.6
			C395.2,74.1,394.6,74.1,394.2,72.5z"/>
		<path class="st1" d="M34.3,402c16.9-5.2,34.1-10.7,44.6-25.9c6.6-9.6,14.6-10.5,24.7-10.5c82.7,0.3,165.4,0.2,248,0.1
			c23.3,0,37.3-11.2,42.6-34.2c0.3-1.6,0.9-1.6,1.7-0.2c0,20.8-0.3,41.7,0.2,62.5c0.2,6.6-0.8,8.5-8.1,8.4
			c-115.2-0.3-230.4-0.2-345.7-0.2C39.7,402,37,402,34.3,402z"/>
		<path class="st2" d="M395.9,331.3l-0.8,0.3c0,0-0.9-0.1-0.9-0.1c-0.1-54.8-0.3-109.5-0.3-164.3c0-31.6,0.2-63.2,0.3-94.7
			c0.6-0.2,1.1-0.1,1.7,0.2C395.9,158.9,395.9,245.1,395.9,331.3z"/>
		<path class="st3" d="M22.1,3.7C14.8,4.9,12.2,11.5,8,16.2C8,2,8,2,22.2,2C23.6,2.6,23.6,3.2,22.1,3.7z"/>
		<path class="st4" d="M8,387.9c3.7,5.7,7.7,11.2,14.1,14.1C8,402,8,402,8,387.9z"/>
		<path class="st5" d="M22.1,3.7c0-0.6,0-1.1,0-1.7c4,0,8.1,0,12.1,0c0,0.6,0,1.1,0,1.7C30.3,3.7,26.2,3.7,22.1,3.7z"/>
		<path class="st6" d="M240.3,113c33.2,5.6,58,22.6,72.7,53.5c3.9,8.2,4.6,17.3,8.1,25.5c1.7,7.3,1.8,14.5-0.1,21.8
			c-3.6,11.7-6.6,23.5-12.9,34.2c-10.8,18.3-26.5,30.5-46,38.3c-5.8,2.3-11.7,4.1-17.6,6.1c-8.8,1-17.5,3.2-26.3-0.1
			c-7.9-6-18.2-4.9-26.9-9.7c-60.9-33.5-63.1-113.2-13.8-151.1c12.2-9.4,26.4-13.9,40.7-18.4C225.5,111.3,232.9,111.7,240.3,113z"/>
		<path class="st7" d="M67.7,258.4c-0.1-34.8-0.2-69.5-0.2-104.3c0-2.3-1.3-5.8,2.8-6.3c2.3-0.3,2.2,1.9,2.5,3.5
			c-2.3,4.7-2.1,9.7-2.1,14.7c0,26.7,0,53.4,0,80.2C70.6,250.4,71.4,255,67.7,258.4z"/>
		<path class="st8" d="M68.2,328.5c0,0,0.1-0.7,0.1-0.7c0-13,0-25.9,0-38.9C69.2,302.2,73.6,315.5,68.2,328.5z"/>
		<path class="st9" d="M72.7,113.2c-2,0.4-0.8,4.4-4,3.6c0-12.6,0-25.3,0-37.9C72.3,90.2,68.3,102.1,72.7,113.2z"/>
		<path class="st10" d="M218.2,292.5c8.8,0.4,17.5-1.9,26.3,0.1C235.8,296.2,227,296.3,218.2,292.5z"/>
		<path class="st11" d="M91.2,147.4c0-10.1,0-20.1,0-30.2C93.8,127.3,93.8,137.4,91.2,147.4z"/>
		<path class="st12" d="M321,213.9c0-7.3,0.1-14.5,0.1-21.8C324.5,199.3,324.6,206.6,321,213.9z"/>
		<path class="st13" d="M240.3,113c-7.4,0.1-14.8,0.2-22.1,0.3C225.5,109.9,232.9,110.2,240.3,113z"/>
		<path class="st0" d="M306.7,210.1c-5.5,33.8-23.8,56.4-57.3,65.8c-3.5,1-7.3,0.9-10.9,1.3c-4.8-0.7-9.6-0.4-14.4-0.3
			c-36.3-0.3-68.5-35.9-67.6-75.1c0.7-29.2,13.8-51.8,39.4-65.7c25.6-13.9,51.8-13,76.3,3c19.6,12.8,31.4,31.3,34.4,54.9
			C305.6,199.4,305.5,204.7,306.7,210.1z"/>
		<path class="st14" d="M224.1,276.9c4.9-3,9.7-3,14.4,0.3C233.7,278.7,228.9,278.8,224.1,276.9z"/>
		<path class="st15" d="M306.7,210.1c-2.4-5.3-2.4-10.7-0.1-16C307.5,199.4,307.5,204.7,306.7,210.1z"/>
		<path class="st1" d="M281,212.1c-8.3,33.7-41.7,52.3-76.3,33.2c-15.4-8.5-24.2-25.4-22.8-45.2c1.3-19,10-33.1,26.6-42
			c26.3-14.2,58.7-1.8,69.9,26.3c0.7,1.8,1.6,3.6,2.4,5.4C284,197.3,286,204.7,281,212.1z"/>
		<path class="st16" d="M281,212.1c2.1-7.4,0.4-14.8-0.2-22.2C285.4,197.3,287.6,204.6,281,212.1z"/>
	</g>
</g>
</svg>
