<?xml version="1.0" encoding="utf-8"?>
<!-- Generator: Adobe Illustrator 21.1.0, SVG Export Plug-In . SVG Version: 6.00 Build 0)  -->
<svg version="1.1" id="Lag_1" xmlns="http://www.w3.org/2000/svg" xmlns:xlink="http://www.w3.org/1999/xlink" x="0px" y="0px"
	 viewBox="0 0 400 400" style="enable-background:new 0 0 400 400;" xml:space="preserve">
<style type="text/css">
	.st0{fill:#FEFEFE;}
	.st1{fill:#FAFBFC;}
	.st2{fill:#FCFDFD;}
	.st3{fill:#F5F5F5;}
	.st4{fill:#F2F2F2;}
	.st5{fill:#EBEBEC;}
	.st6{fill:#E3E4E5;}
	.st7{fill:#E5E6E7;}
	.st8{fill:#298CC0;}
	.st9{fill:#95BAD5;}
	.st10{fill:#2A8DC1;}
	.st11{fill:#1883BB;}
</style>
<g>
	<g>
		<path class="st0" d="M2,257.5c0-74.8,0.1-149.6-0.2-224.4c0-6.1,1.2-7.4,7.3-7.3C29.1,26.3,49.1,26,69,26c0.1,5.2-4.4,3.9-7.2,4.9
			c-10.2,3.8-19.6,8.5-23.6,19.7c-7.8,18.3-6.1,37.2-3,56c4.4-1.6,8.4-4.6,13.5-3.6c6.6,1.3,10,5.3,10.6,11.8
			c0.7,8.4,0.9,16.9,0,25.3c-1.1,10.3-7.4,15.2-17.4,12.4c-6.8-1.9-6.3,1.6-6.8,5.9c-3.5,27.3-1,54.6-1.7,81.9
			c-0.1,4.4,0.3,8.8-0.3,13.2c-1.2,9.3-5.7,11.6-13.9,7.2c-2.7-1.5-5.2-3.2-8.2-3.6C7.9,256,5.1,259.1,2,257.5z"/>
		<path class="st0" d="M402,145.8c0,74.8-0.1,149.6,0.2,224.4c0,6.1-1.2,7.4-7.3,7.3c-20-0.5-39.9-0.2-59.9-0.2
			c-0.8-0.9-1-1.9-0.7-3.1c1.8-3.4,5.5-3.5,8.6-4.7c16.2-6.4,25.7-20.1,25.8-37.6c0.1-11.1,0.3-22.2-0.2-33.1
			c-3.9-1.2-6.3,1.5-9.3,1.6c-6.4,0.3-12-1.6-13.5-8.1c-2.4-10.9-2.1-22.1-0.1-33.2c0.5-2.7,2.8-4.6,5.3-5.8
			c4.3-1.9,8.6-2.1,12.5,0.7c5.9,4.4,6.7,1.6,7.5-4.2c3.6-27.6,1.1-55.2,1.9-82.8c0.1-5.1-0.3-10.1,0.2-15.2c1-8.3,4.5-10.4,11-5.5
			C390.8,151.5,396.1,145.9,402,145.8z"/>
		<path class="st1" d="M282.2,377.3c-90.4,0-180.9-0.1-271.3,0.2c-8.1,0-9.2-2.4-9-9.6C2.3,342,2,316,2,290c0.8-0.7,1.7-1.1,2.8-1.1
			c4.9,1.4,9.6,2.4,14.4-0.9c3.3-2.3,7-2.4,9.2,2.2c0.6,13.1,2.7,26.1,2.9,39.2c0.4,24.5,18.6,42.9,43,43
			c64.8,0.2,129.6,0,194.3,0.2C273.4,372.6,279.7,370.1,282.2,377.3z"/>
		<path class="st2" d="M121.8,26c90.4,0,180.9,0.1,271.3-0.2c8.1,0,9.2,2.4,9,9.6c-0.5,26-0.2,52-0.2,78c-0.8,0.7-1.7,1.1-2.8,1.1
			c-4.9-1.4-9.6-2.4-14.4,0.9c-3.3,2.3-7,2.4-9.2-2.2c-1.8-11.4,0-23-1-34.4c-1.3-15.5-5.4-29.7-19.2-39.4
			c-8.3-5.8-17.2-8.6-27.5-8.6C263.9,31,199.7,31,135.5,30.8C130.7,30.8,124.4,33.3,121.8,26z"/>
		<path class="st3" d="M121.8,26c3.4,3.5,7.7,1.9,11.6,1.9c65,0.1,129.9,0.4,194.9,0c28.6-0.2,47.9,21.1,49.3,49.1
			c0.7,12.8,0.1,25.7,0.1,38.6c-7.3,1.5-6.5-4.4-6.9-8.3c-0.7-8.8-0.7-17.6-0.2-26.3c1.5-30.7-22.1-48.6-47.7-48.1
			c-50,1-100-0.1-150,0.5c-27.1,0.3-54-1.6-81-2.3C74,30.6,57.4,32.8,44.5,46.8c-1.1,1.2-2.8,1.9-4.4,2.4c-1.3,0.2-2.5,0-3.5-0.8
			c4.6-12.1,15.1-16.6,26.2-20.2c2.1-0.7,4.7,0.1,6.3-2.2C86.6,26,104.2,26,121.8,26z"/>
		<path class="st4" d="M282.2,377.3c-3.4-3.5-7.7-1.9-11.5-1.9c-65.5-0.1-131.1-0.1-196.6-0.1c-25.8,0-45.6-19.7-45.7-45.2
			c0-14.1-3.2-28.1-2-42.3c7.3-1.4,6.6,4.4,6.9,8.3c0.8,9.1,0.2,18.2,0.3,27.3c0.4,29.6,17.3,46.6,46.8,46.7c50,0.1,100,0.5,150-0.1
			c31.4-0.4,62.7,2.8,94.1,2.3c3.7-0.1,7.5-0.1,10.5,2.8c0,0.7,0,1.5,0,2.2C317.4,377.3,299.8,377.3,282.2,377.3z"/>
		<path class="st5" d="M402,145.8c-6.7,7.1-13.5,9.6-21,0.9c-3.2-3.7-4.6-0.7-5.1,2.2c-0.4,2.3-0.2,4.7-0.2,7.1
			c0,21.9-0.4,43.9,0.2,65.8c0.3,11.5-2.9,22.7-2.2,34.2c0.1,2,0,4.2-2.4,5c-2.6,0.9-4.6,0.1-6.1-2.1c-3.7-5.5-8.9-5-14.4-3.6
			c1.2-6.9,6.3-6.9,10.7-5c6.8,3,6.8-0.4,7.4-5.5c3.4-27.3,0.9-54.6,1.7-82c0.2-5.4-0.4-10.8,0.5-16.2c1-6.1,4.8-7.7,10.4-6
			c13.1,4,13.1,4,16.2-9.8c0.2-1,0.7-1.9,1.2-2.8c0.8-1,1.8-1.2,3-0.6C402,133.6,402,139.7,402,145.8z"/>
		<path class="st5" d="M2,257.5c2.2-1.3,4.4-2.6,6.6-3.8c0.4,7.5-1.9,14.6-3.7,21.7c-0.8,0.9-1.8,1.1-2.9,0.4
			C2,269.7,2,263.6,2,257.5z"/>
		<path class="st6" d="M402,127.6c-0.7,0-1.3,0-2,0c-3.7-4.5-3.5-9.2-0.7-14c0.9-0.1,1.8-0.2,2.7-0.3C402,118.1,402,122.8,402,127.6
			z"/>
		<path class="st7" d="M2,275.8c0.7,0,1.3,0,2,0c3.7,4.5,3.5,9.2,0.7,14c-0.9,0.1-1.8,0.2-2.7,0.2C2,285.3,2,280.5,2,275.8z"/>
		<path class="st8" d="M4.7,289.7c-0.2-4.7-0.4-9.3-0.7-14c1.4-7.4-1.7-15.7,4.6-22.1c4.6-0.8,8.8-0.2,11.6,4.1
			c1.9,3,4.7,3.9,7.8,2.6c3.3-1.4,2.2-4.6,2.2-7.1c0.1-26.3,0.1-52.7,0-79c0-10,3.1-19.7,1.8-29.2c3.9-1.5,4.6,1.1,5.9,2.4
			c3.7,3.6,8.2,5,12.9,2.9c4.4-2,6-6,5.9-10.9c-0.1-7.4-0.1-14.9,0-22.3c0-5.2-0.2-10.6-6.4-12.3c-5.8-1.6-10.7,0.2-13.7,5.7
			c-0.9,1.7-1.9,2.7-3.9,2.5c-0.5-21.8-6.4-44.1,6-64.7c12-15.4,28.1-20.9,47.2-20.1c82,3.3,164.1,1.9,246.2,2.4
			c22.2,0.1,41.5,20.4,41.9,43.6c0.2,11.2-0.1,22.3,0.1,33.5c0.1,2.8-2.1,7.3,3.6,7.8c2.5,0.8,4.5,0.3,6.1-2
			c5.1-7.2,10.4-5.5,15.6,0c0.2,4.7,0.5,9.3,0.7,14c-0.1,3-0.6,6.1-0.4,9.1c0.4,5.1-0.7,9.7-5.2,12.2c-4.9,2.8-8.1-0.8-11-4.4
			c-1.9-2.5-4.6-2.8-7.3-2c-3.6,1.1-2.5,4.4-2.5,6.9c-0.1,21.2-0.5,42.4,0.1,63.6c0.4,15.2-2.2,30-2.4,45.9
			c-7-2.3-12.5-12.8-20.7-3.6c-6.7,12.8-4.3,26.3-1.5,39.1c1.4,6.3,9.2,5.7,14.6,2.2c2.4-1.5,4-4.1,8.3-8.7
			c-0.6,20.4,2.4,38.2-1.5,55.4c-4.1,18-18.5,27.1-35.7,31.7c-86.3-2.7-172.7-2.4-259.1-2.4c-26.4,0-45.7-19.3-45.8-45.8
			c0-10.5,0.1-20.9-0.1-31.4c-0.1-2.9,2-7.3-3.7-7.7c-2.5-0.7-4.5-0.2-6.1,2C15.1,297,9.9,295.1,4.7,289.7z"/>
		<path class="st9" d="M38.7,48.5c-9.8,20.8-4.7,43-6,64.7c-4.6-9.5-1.4-19.7-2-29.5c-0.8-12.1-1-24.3,5.9-35.3
			C37.3,48.4,38,48.5,38.7,48.5z"/>
		<path class="st0" d="M132.4,113.4c4.1-7.5,9.4-7.2,16-3c42.5,27.6,85.1,55.1,127.6,82.7c9.2,6,9.1,11.8-0.1,17.7
			c-42.7,27.2-85.6,54.3-128.3,81.6c-4.3,2.8-8.4,4.1-13.1,1.5c-2.8-2.8-3.4-6.3-3.4-10.2C131,228.9,131,174,131,119
			C131,117.1,130.5,114.9,132.4,113.4z"/>
		<path class="st10" d="M132.4,113.4c0,55.6,0,111.1-0.1,166.7c0,4.7-0.2,9.4,2.1,13.8c-4.6-1.5-4.4-5.4-4.4-9.2
			c0-54.7,0-109.5,0-164.2C130,118,129.4,115.1,132.4,113.4z"/>
		<path class="st11" d="M144.5,104.2c-2.1,1.4-4.2,1.2-7,0.1C140.2,102.8,142.2,102.7,144.5,104.2z"/>
	</g>
</g>
</svg>
