<?xml version="1.0" encoding="utf-8"?>
<!-- Generator: Adobe Illustrator 22.1.0, SVG Export Plug-In . SVG Version: 6.00 Build 0)  -->
<svg version="1.1" id="Lag_1" xmlns="http://www.w3.org/2000/svg" xmlns:xlink="http://www.w3.org/1999/xlink" x="0px" y="0px"
	 viewBox="0 0 400 400" style="enable-background:new 0 0 400 400;" xml:space="preserve">
<style type="text/css">
	.st0{fill:#FEFEFE;}
	.st1{fill:#F2F2F3;}
	.st2{fill:#F6F6F6;}
	.st3{fill:#FDFDFD;}
	.st4{fill:#505053;}
	.st5{fill:#7D818D;}
	.st6{fill:#424A61;}
	.st7{fill:#C4C4C4;}
	.st8{fill:#131416;}
	.st9{fill:#232329;}
	.st10{fill:#9E9E9E;}
	.st11{fill:#020202;}
	.st12{fill:#5B9DCA;}
	.st13{fill:#EFEFF0;}
	.st14{fill:#F9F9F9;}
	.st15{fill:#5C9DCA;}
	.st16{fill:#FCFCFC;}
	.st17{fill:#FAFAFA;}
	.st18{fill:#E4E6E7;}
	.st19{fill:#FBFBFB;}
	.st20{fill:#F4F5F5;}
	.st21{fill:#F8F8F8;}
	.st22{fill:#213874;}
	.st23{fill:#0B0C0F;}
	.st24{fill:#5F9ECB;}
	.st25{fill:#E0E4EE;}
	.st26{fill:#F5F5F5;}
	.st27{fill:#CCD6E6;}
	.st28{fill:#E9E9E9;}
	.st29{fill:#EFEFEF;}
	.st30{fill:#EAEAEA;}
	.st31{fill:#5C5C5C;}
	.st32{fill:#65A1CC;}
	.st33{fill:#EBEBEB;}
	.st34{fill:#BDBDBE;}
	.st35{fill:#EEEEEE;}
	.st36{fill:#EDEDED;}
	.st37{fill:#1F4297;}
	.st38{fill:#E6E7E8;}
	.st39{fill:#E4E6E8;}
	.st40{fill:#F9F9FA;}
	.st41{fill:#E9E9EA;}
	.st42{fill:#F4F5F6;}
	.st43{fill:#F3F4F5;}
	.st44{fill:#F9FAFB;}
	.st45{fill:#27292D;}
	.st46{fill:#E8E8E9;}
	.st47{fill:#1A1E2A;}
	.st48{fill:#E9EAEA;}
	.st49{fill:#2549A3;}
	.st50{fill:#C3C4C6;}
	.st51{fill:#0D101B;}
	.st52{fill:#4B5263;}
	.st53{fill:#010000;}
	.st54{fill:#1F4296;}
	.st55{fill:#2049A0;}
	.st56{fill:#080A0F;}
	.st57{fill:#14499B;}
	.st58{fill:#1F4196;}
	.st59{fill:#184699;}
	.st60{fill:#104B9C;}
	.st61{fill:#C4C5C7;}
	.st62{fill:#07080C;}
	.st63{fill:#214499;}
	.st64{fill:#2247A4;}
	.st65{fill:#214192;}
	.st66{fill:#294796;}
	.st67{fill:#EAEBEC;}
	.st68{fill:#F3F3F3;}
	.st69{fill:#ECEDED;}
	.st70{fill:#F1F1F2;}
	.st71{fill:#E8E9EA;}
	.st72{fill:#D3D4D6;}
	.st73{fill:#5499C8;}
	.st74{fill:#F7F8F8;}
	.st75{fill:#ECEDEE;}
	.st76{fill:#214291;}
	.st77{fill:#0F121B;}
	.st78{fill:#23459A;}
	.st79{fill:#141C33;}
	.st80{fill:#13182A;}
	.st81{fill:#0C0908;}
	.st82{fill:#0B0806;}
	.st83{fill:#184799;}
	.st84{fill:#13499B;}
	.st85{fill:#0258A0;}
	.st86{fill:#1F4397;}
	.st87{fill:#1D4CA7;}
	.st88{fill:#194796;}
	.st89{fill:#01529E;}
	.st90{fill:#20459E;}
	.st91{fill:#1C2545;}
	.st92{fill:#253E81;}
	.st93{fill:#16161E;}
	.st94{fill:#274BA7;}
	.st95{fill:#13110D;}
	.st96{fill:#151C2F;}
	.st97{fill:#111421;}
	.st98{fill:#050305;}
	.st99{fill:#0C0907;}
</style>
<g>
	<path class="st0" d="M146.9,373.6c0,0,17.9,14.6,32.3,14.4s144-36.1,148.7-45c4.6-8.9,12.8-127.1,10.5-164.6s4.1-72.8,4.1-72.8
		s2.1-53.5-3-62.6s-38-26.6-38-26.6L171.3,39.5L145,129.6L146.9,373.6z"/>
	<g>
		<g>
			<path class="st1" d="M142.8,13.2c16.3-2.6,32.2-7.8,49.1-6.7c3.5,0.2,7.4,1.3,10.3-2.1c-0.8-0.5-1-0.9-0.8-1.4s0.5-0.7,0.7-0.7
				c1.5,0,3.1-0.1,4.6-0.1c0.6-0.8,1.3-1.5,2-2.1c3.7,0,7.3,0,11,0c3.1,3.8,7.3,1.7,11,2.2c3.5,6.1,10.8,3.1,15.4,6.6
				c1.1,1,2.5,1.1,3.9,1.2c2.3,0.1,4.4,1.2,4.8,3.5c0.5,3.3-2.5,3.9-4.9,4.5c-2.4,0.6-4.8,1.3-7.2,2c-9.2,2-18.5,3.8-27.7,5.7
				c-9.4,1.9-18.7,2.1-28-0.1c-12-2.7-24.2-4.7-36.3-7C147.5,18,143.1,18.5,142.8,13.2z"/>
			<path class="st2" d="M112,400c-0.9-0.8-1.9-1.7-2.8-2.5c7.7-6.6,16.9-8.8,26.8-9c-3.2,7.8-12.2,6.7-17.4,11.5
				C116.4,400,114.2,400,112,400z"/>
			<path class="st3" d="M230.7,2.2c-7.8,3.7-10.2,3.2-11-2.2c3.7,0,7.3,0,11,0C230.7,0.7,230.7,1.5,230.7,2.2z"/>
			<path class="st4" d="M50.5,265.9c0-6.6,0-13.2,0-19.8c1.3-0.7,2.4-0.5,3.3,0.7c2.6,6.1,2.6,12.3,0,18.4
				C52.9,266.4,51.8,266.6,50.5,265.9z"/>
			<path class="st5" d="M52.6,292.5l-1-0.3l-1.1,0.1c0-6.6,0-13.2,0-19.8c2.2-0.5,3.3,0.9,4.1,2.7c1.4,4.8,1.3,9.6,0.2,14.4
				C54.3,290.8,53.6,291.7,52.6,292.5z"/>
			<path class="st6" d="M52.8,246.2c-0.7,0-1.5,0-2.2,0c0-2.9,0-5.9,0-8.8c0.5-0.7,1.1-0.9,1.8-0.5c4.5-0.2,4.2,2.9,4,5.9
				C55.8,244.5,54.7,245.7,52.8,246.2z"/>
			<path class="st7" d="M349.5,281.3l-0.9,0.3l-0.9-0.1c-4.2-3.7-3.6-8-1.6-12.5c0.9-1.2,2-1.5,3.3-0.8
				C349.5,272.5,349.5,276.9,349.5,281.3z"/>
			<path class="st7" d="M347.6,241.6c0.6-0.2,1.2-0.2,1.8,0.1c0,4.4,0,8.8,0,13.2c-1.3,0.7-2.4,0.4-3.3-0.8
				C344.1,249.7,343.6,245.4,347.6,241.6z"/>
			<path class="st8" d="M347.6,254.2c0.7,0,1.3,0.2,1.8,0.7c0,4.4,0,8.8,0,13.2c-0.5,0.5-1.1,0.8-1.8,0.7
				C343.5,264,343.5,259.1,347.6,254.2z"/>
			<path class="st9" d="M53,274.9c-0.8-0.8-1.7-1.6-2.5-2.4c0-2.2,0-4.4,0-6.6c0.7-0.1,1.4-0.2,2-0.1c1.9,0.9,2.8,2.6,3.5,4.4
				c0.4,1.5,0.3,2.9-0.5,4.3C54.8,275.2,53.9,275.4,53,274.9z"/>
			<path class="st10" d="M208.7,0c-0.7,0.7-1.3,1.4-2,2.1c-0.1-0.7-0.2-1.4-0.2-2.1C207.3,0,208,0,208.7,0z"/>
			<path class="st11" d="M136,388.5c-8.5,4.2-17.1,8.4-26.8,9c-19.1-1.2-29-14.1-37-29.3c-4.2-8-8-16.1-9.2-25.2
				c0.8-0.7,1.8-1,2.8-0.9c5.5,3.1,6.7,9.1,9.4,14c3.6,6.6,7,13.4,12.7,18.6c3.4,4,6.4,8.4,11.6,10.4c3.9,1.6,7.8,1.5,11.7,0
				c6-2.6,9.4-7.4,11.7-13.3c1.8-4.3,2.4-9.1,4.8-13.2c4-8.6,3.6-18.3,6.3-27.2c1.9-8.2,1.6-16.4,0.3-24.6c-2.2-13.7-4.6-27.5-11-40
				c-2.2,0.8-2.7,2.9-3.9,4.5c-1.7,2.4-3.2,5-5,7.3c-3.4,2.9-6.7,6.5-10.7,0.9c-1.6-4.8,1-8.5,3.3-12.3
				c14.1-20.7,14.3-21.3,0.6-42.1c-5.7-8.6-10.3-18.5-20.6-23.1c-4.6-2-9.3-1.9-13.9-0.1c-3.8,1.2-5.7,5.8-10.3,5.7
				c-1.6-0.6-2.8-1.5-1.7-3.5c3.4-9.9,12.7-13.5,20.2-19c6.4-4.6,13.1-2.2,19.7-0.7c1.1,0.3,2.2,0.7,3.2,1.2
				c16.1,9.9,26.4,24.7,33.8,41.7c4.5,10.4,8,21.1,11.5,31.8c4.6,17.3,8.7,35.1,8.4,52.8c-0.4,18,1,36.6-5.8,54.1
				c-0.7,3.2-2.8,5.5-5.2,7.6C143.4,378.6,139.7,383.5,136,388.5z"/>
			<path class="st12" d="M81.4,145c-0.4-3.7-0.7-7.4-1.1-11.1c3.8-5.9,7.5-1.2,10.6,0.6c9.5,5.6,18.3,12.6,28.2,17.7
				c3.9,2.9,8.3,5,12.5,7.4c18.1,14.7,38.3,15.9,59.9,9.7c43.1-12.3,86.1-24.9,128.6-39.3c6.8-2.3,13-6.6,20.5-6.9v0.1
				c1-1.3,1.6-1.1,1.8,0.4c-0.4,6.4-0.8,12.8-6.3,17.3c-32.6,12.5-66.2,22.3-99.2,33.7c-19.6,6.8-39.5,12.9-59,19.9
				c-10.1,3.6-19.5,0.8-28.6-3.5c-22.5-10.8-43-24.9-63.5-39C83.8,150.2,83,147.3,81.4,145z"/>
			<path class="st13" d="M340.8,123.1c-26.2,12.2-54.2,19.5-81.6,28.2c-24.4,7.6-49.2,14-73.5,21.7c-21.2,6.7-39.5,2-56.1-11.8
				c-1.4-2.2-3.8-3.7-4.4-6.5c-0.9-19.6-1.2-39.1,0.8-58.7c1.9-19.1,0.8-38.5,0.3-57.8c0-1.5-1-2.7-2.2-3.6c-3-1.6-6.1-3-9.4-3.6
				c-3.1-1-6.3-1.7-9.3-2.9c-1.4-0.9-2.6-1.9-2-3.9c6.8-7,16.8-1.7,24.2-6.6c9.9-3.2,19.2,0.7,28.7,2.1c11.8,1.7,23.5,4,35.1,6.9
				c4.7,2.2,12.9,1.5,8.7,10.8c-1.5,0.7-2.9,1.5-4.4,2.2c-7.4,2.4-15,0.2-22.4,1.2c-4.3,0.3-8.5-0.7-12.7-1.4
				c-4.6-1.6-9.4-1.3-14.1-2.1c-4.7-0.9-6.9,1-6.8,5.8c0.9,37.2-4.1,74.2-2.1,111.4c0.1,1.5,0.7,2.8,1.4,4.1c3.5,3.3,6.7,7,11.6,8.5
				c7.1,3.9,14.6,4.4,22.4,3.3c2.4-0.3,5.1,0.9,7.3-1.1c18.1-2.5,35.4-8.3,52.7-13.6c33.8-10.3,68.1-19.2,100.6-33.4
				C336.4,121,338.5,122,340.8,123.1z"/>
			<path class="st14" d="M147.1,373.6c0.8-2.1,1.7-4.3,2.5-6.4c2-0.8,4.4-1.1,5.2-3.7c0.8-1.9,1.4-3.9,2.1-5.9
				c4-21,2.7-41.9,0.5-62.9c0-4.4,0.5-8.8-0.4-13.1c-0.3-1-0.6-2-0.8-3.1c-0.5-3.6-1-7.2-3.4-10.2c-2.1-5-4.1-10-1.6-15.4
				c3.2-14.7,0.5-29.6,1.6-44.4c0.9-12.5,4.1-14.6,16.9-10.8c1.8,17.4,0.7,34.9,1.5,52.4c1.6,37.8,1.7,75.7,3.5,113.6
				c0.3,5.7,1.5,11.8-3.2,16.7C161.4,384.9,155.7,373.7,147.1,373.6z"/>
			<path class="st15" d="M228.5,72.7c3.5,3.1,8.6,4.8,9.1,10.4c-2.9,3.6-0.3,7.8-1,9.6c0.2-1.8-1.5-5.9,1.1-9.5
				c5.3,14.2,3.5,17.1-10.7,18c-10.1,0.7-19.2,3.9-26.9,10.7c-7.2-0.3-7.2-6-7.5-10.8C191.3,85.1,207.9,65.9,228.5,72.7z"/>
			<path class="st15" d="M307.2,55c10.9,6,12.6,15.1,9.1,26.1c-9.6,2.4-20.1,0.4-28.8,6.5c-3.6,0.3-5.9,6-9.5,3.5
				c-3.8-2.6-3.8-7.6-3.3-12c1.1-11.2,6.2-19.8,16.8-24.5C296.8,53.7,302.1,53,307.2,55z"/>
			<path class="st16" d="M171.4,380.2c1-42.8-3-85.4-2.7-128.2c0.1-14-1.6-28.3-1.7-42.5c0-4.1,0-8.1,2.2-11.7
				c2.2-1.9,4.4-1.9,6.6,0c-2.5,4-2.3,8.4-2.2,12.8c0.7,46,1.3,92,2.4,137.9c0.2,9,2.7,18,2,27.1C177.7,380,177.6,384.4,171.4,380.2
				z"/>
			<path class="st17" d="M171.4,39.6c8.1,0,16.1,0,24.2,0c-7,4.5-14.7,1.2-22,2.2c-2.6,19.5-0.2,39.1-2.1,58.7
				c-1.9,19.9-1.2,39.9-1.3,59.9c0,4,0.1,8.1-2.9,11.3c-8.8,3-12.1-1.4-12.4-9.5c-0.3-8.4-0.4-16.7,0-25.1c7-24.4,5.2-49.1,2.7-73.8
				c-0.7-4.4-0.7-8.7-0.5-13.1C157.7,38.9,159.3,37.7,171.4,39.6z"/>
			<path class="st18" d="M85.9,149.2c18.5,11.7,37.1,23.2,55.6,35c16,10.2,32.4,10.7,50.2,4.5c44.5-15.4,89.3-30,134-44.8
				c3.4-1.1,7-1.9,10.5-2.9c-2.6,4.9-7.9,4.8-12.2,6.3c-47.9,16.2-95.9,32.3-143.8,48.4c-9.8,2-19.6,1.1-29.4,0.9
				c-4.8-2.8-10-4.9-14.9-7.5c-7.4-4.7-15.6-8.2-22.5-13.7c-9.3-6.8-19.2-12.9-28.3-19.9c-1.1-1.1-1.7-2.6-2.2-4
				C83.2,149.5,83.9,148.5,85.9,149.2z"/>
			<path class="st19" d="M167,171.4c-1.3-40.4,3.8-80.8,2.2-121.2c-0.1-3.5-1.1-7.7,4.3-8.5c4.3,15.8,2.7,31.9,1.2,47.8
				c-2.4,24.8-0.4,49.7-1.1,74.5c-0.1,4.6,2.9,5.3,6.6,5.3c-1.6,2.6-4.2,2.1-6.6,2.2C171.4,172.9,169.2,172.9,167,171.4z"/>
			<path class="st20" d="M149.4,193.4c10,4.4,20.5,1.3,30.8,2.2c-0.9,1.8-2.6,2.2-4.4,2.2c-2.2,0-4.4,0-6.6,0
				c-10.3-1.8-14.2,2.1-13.4,12.8c0.9,11.9,0.3,23.9,0.2,35.9c0,3.5,1,7.6-4.3,8.4c-5.9-2.9-5.8-8.7-7-14c0.1-4.3-1.5-8.3-3.1-12.2
				c-0.3-1.1-0.4-2.2-0.4-3.3c2.1-7.8,0.6-15.8,1.2-23.7C142.7,197.9,141.1,191.1,149.4,193.4z"/>
			<path class="st21" d="M243.9,17.6c2.1-3.8,6.7-0.8,9.3-3.4c-0.7-4.2-5.8-2.2-7.1-5.4c10.5-0.3,20.7,1.3,30.8,4.4
				c2.2,6.6-0.1,10.9-6.6,13.2c-9.5,1.5-19,2.9-28.6,4.4c-0.1-3.6-4.6-4.6-4.8-8.2c3.9-5,10.2-1.5,14.4-4.1c1.9-0.4,0.4-2.5,0.7-1.1
				c0.1,0.4-0.1,0.5-0.4,0.7C249.1,19.1,246.4,20,243.9,17.6z"/>
			<path class="st22" d="M336.6,303.1c0.7-24.7,1.4-49.4,2.2-74.2c1.7-0.3,3,0.4,3.3,2c5.5,23.2,6.1,46.2-1.6,69.1
				C339.9,301.8,338.9,303.3,336.6,303.1z"/>
			<path class="st23" d="M336.6,303.1c10.4-24.4,9.9-49.2,2.2-74.2c0-0.8-0.1-1.7-0.1-2.5c2.6-1.4-1.6-7.1,4.1-6.6
				c1.6,7.3,3.3,14.5,4.9,21.8c0,4.2,0,8.4-0.1,12.6c0,4.9,0,9.7,0,14.6c0,4.2,0,8.4,0.1,12.6c-2,9.8-2,20.3-9.2,28.5
				c-5.4-0.6-2.9-4-2.4-6.7L336.6,303.1z"/>
			<path class="st24" d="M270.5,113.5c2.5-0.3,4.7-0.2,4.3,3c-0.6,5.1-4.2,8.3-8.3,10.7c-3.8,2.2-7.7,2.3-11.1-0.5
				c-3.7-3.1-5-6.9,0.5-9.1C260.6,115.6,265.6,114.8,270.5,113.5z"/>
			<path class="st19" d="M270.4,26.4c4.9-3.1,4.1-8.9,6.6-13.2c7.7-0.9,14.9,1.8,24.6,3.2C291.2,24.3,280.1,23.6,270.4,26.4z"/>
			<path class="st25" d="M228.5,72.7c-19.5-0.9-31,6.8-34.2,23.1c-1.3,6.3-1.1,12.5,5.7,16.1c-4.9,4.3-6.5-0.7-7.9-3.4
				c-3.8-7.3,0-22.2,7-29.5C207.3,70.3,217.4,68.1,228.5,72.7z"/>
			<path class="st1" d="M199.9,37.4c1.7-7.6-6.2-5.5-8.8-8.8c6.7-4.2,14.2-1.2,21.2-2.3c5.4-0.4,11.1-1.1,11.8,6.7
				C216.4,36.1,208.4,37.9,199.9,37.4z"/>
			<path class="st26" d="M224.1,33c-2.2-5.1-6.8-4.4-11-4.4c7.1-7,15.2-7.8,24.2-4.4c2.6,0.5,6-1.4,7.5,1.8c1.1,2.3-2.4,2.9-3.1,4.8
				C236,32.5,230.1,33.5,224.1,33z"/>
			<path class="st27" d="M287.6,87.6c8.2-8.4,18.8-6,28.8-6.5C306.8,83.3,297.1,85.4,287.6,87.6z"/>
			<path class="st28" d="M342.6,123.6c-0.6-0.1-1.2-0.3-1.8-0.4c0-5.9,0-11.7,0-17.6c0.6,0,1.2,0,1.8,0
				C342.6,111.7,342.6,117.6,342.6,123.6z"/>
			<path class="st29" d="M338.8,213.8c-0.1-6.8-0.2-13.6-0.3-20.4c0.7-1,1.4-1,2.1,0c-0.1,6.8-0.2,13.6-0.3,20.4l-0.8,0.5
				L338.8,213.8z"/>
			<path class="st30" d="M340.6,193.4h-1.1h-1.1c0-5,0-10,0-15c0.7,0,1.4,0,2.1-0.1C340.6,183.3,340.6,188.4,340.6,193.4z"/>
			<path class="st31" d="M338.8,213.8c0.5-0.1,1-0.1,1.6,0c0.8,2,1.6,4.1,2.4,6.1c-3.6,0.8-1.5,5.1-4.1,6.6
				C338.6,222.2,338.8,218,338.8,213.8z"/>
			<path class="st32" d="M307.2,55c-5.2-0.1-10.5-0.2-15.7-0.3C296.9,51.5,302.1,50.8,307.2,55z"/>
			<path class="st33" d="M193.6,387.8c-6.4,1.4-9.9,1.6-14.4,0.2C183.8,386.3,187.3,386.6,193.6,387.8z"/>
			<path class="st34" d="M336.1,303.2c1.4,2-0.8,5.3,2.4,6.7c-0.9,0.9-1.9,1.9-2.8,2.8C332.9,309.4,333.9,306.3,336.1,303.2z"/>
			<path class="st35" d="M285,357.1c2.4-1.9,4.4-3.9,8.1-2.4C290.6,357,288.6,358.9,285,357.1z"/>
			<path class="st36" d="M278,9.7c3.7-0.9,5.9-1.7,8,0.4C283.6,11.4,281.4,11.4,278,9.7z"/>
			<path class="st36" d="M247.9,5.5c2.3-1.6,4.5-1.4,7.5-0.1C252.6,7,250.4,7.1,247.9,5.5z"/>
			<path class="st37" d="M88.5,199.8c18,11,27.3,28.5,32.7,47.7c2.3,8-7.2,13.9-11.5,20.6c-5.3,3.2-9.8,1.5-14-2.3
				c-4.2-14.4-1.3-29.2-1.9-43.6c-2.4,13.8,1,27.6-2,41.2c-2,3.6-3.9,7.7-9.1,4c-1.8-4.6-3.1-9.4-5.1-13.9c-0.6-4.6-2.8-8.8-4-13.3
				c-0.2-1-0.3-2-0.2-3c0.3-5,0.2-9.9-4.1-13.6c-3.1,1.5-0.9,3.8-0.8,5.7c0.7,2.3,1.5,4.5,2.3,6.8c0.9,2.8,2.2,5.3,3.5,7.9
				c1.5,3.2,2.6,6.5,3.1,10c1.4,3.9,4,7.6,2.9,12.1c-2.1,6-6.7,8.8-12.7,9.9c-4.5,0.2-8-1.4-10.6-5.2c-6.2-7.2-2.1-15.8-3.2-23.7
				c3.8-5.3,1.1-11,1.2-16.5c-0.3-0.6-0.4-1.3-0.4-2c0.7-4,1.1-8,3.1-11.7c2.1-3.4,2-8.1,6-10.4c2.6-2.4,4-6.3,8.1-6.9
				C77.4,198.4,83,198.5,88.5,199.8z"/>
			<path class="st38" d="M103.2,24.1c0.7,0.7,1.5,1.5,2.2,2.2c7.5,1.9,7.7,7.9,7.6,13.8c-0.5,26.5,1.2,53-1.6,79.4
				c-0.9,8-2.6,16.6,1.3,24.5c2.5,3.1,7.5,4.8,5.8,10.3c-10.5-4.1-18.9-11.9-28.7-17.3c-2.9-1.6-5.2-5.5-9.5-3.1
				c-0.5-1.4-0.9-2.8-1.4-4.2c1.8-1.8,0.8-3.8,0.3-5.8c-0.2-5.4-0.4-10.8,0.2-16.1c2.1-8.4,3.3-16.9,4.4-25.4c0.4-2.4,2.3-4,2.9-6.3
				c-1.3-6.4,0.7-12.6,1.5-18.9c3.9-10.9,3.4-23.1,10.6-32.9C100.3,24.2,101.8,24.2,103.2,24.1z"/>
			<path class="st39" d="M85.8,153.8c10.2,5.6,19.7,12.3,28.6,19.8c3,4.8,3.9,9.7,1,14.9c-4.7,4-8.2-1.6-12.4-1.4l0.2,0.1
				c-5.4-3.3-11.9-2.8-17.7-5c0.1-2.1,0.2-4.3,0.3-6.4C82.7,168.5,82.2,161.2,85.8,153.8z"/>
			<path class="st40" d="M237.3,24.2c-8.3-0.1-16.4,1.5-24.2,4.4c-7.3,0-14.7,0-22,0c-21.2-3.7-42.5-7.3-63.7-11
				c4.7-2.9,10-4,15.4-4.4c30.1,7.2,60.2,16.2,91.5,5.9c3-1,6.4-1,9.6-1.5c2.8,0,5.6,0,9.1,0C248.6,23.5,241.4,20,237.3,24.2z"/>
			<path class="st41" d="M98.9,24.2c-2.9,11-5.9,21.9-8.8,32.9c-2.4,0.5,0.2,6.1-4.4,4.4C88.3,48.5,87.4,34.2,98.9,24.2z"/>
			<path class="st42" d="M85.8,81.3c-0.2,9-1.3,17.8-4.4,26.3c-1.7-1-2.1-2.6-2.2-4.4c0.7-4.4-1.8-9.3,2.2-13.2
				c2.2-2.8,0.3-6.3,1.4-9.1C83.8,78.5,85.2,77.3,85.8,81.3z"/>
			<path class="st43" d="M85.7,61.6c2.9-0.1,0.4-5.5,4.4-4.4c-0.7,6.6-1.5,13.2-2.2,19.8c-0.7,0.9-1.5,0.8-2.2,0
				C86.2,71.8,81.4,66.7,85.7,61.6z"/>
			<path class="st44" d="M79,103.3c1.8,0.9,2.2,2.6,2.2,4.4c0,6.6,0,13.2,0,19.8c-5.1,0.1-2.8-3.8-3.2-6.1c-0.7-3.8,1-7.8-1.2-11.4
				C76.9,107.5,76.5,104.9,79,103.3z"/>
			<path class="st42" d="M85.8,153.8c0,7.3,0,14.7,0,22c-2.9-0.1-4.3-1.6-4.4-4.4c2.3-4.8,0.6-10,1.1-14.9c0-1.7-0.2-3.4,1.2-4.8
				C84.3,152.4,85,153.1,85.8,153.8z"/>
			<path class="st45" d="M63.8,206.7c-1.3,3.7-1.7,7.7-4.6,10.6c-1.3-0.2-2.2-0.8-2.5-2.1c0.3-4.2,1.5-8.1,4.6-11.1
				C62.2,204.9,63,205.8,63.8,206.7z"/>
			<path class="st46" d="M76.9,109.9c5.3,4.9-0.9,12.7,4.4,17.5c1.7,3.4-1.5,1.6-2.4,2.2C74.8,123.5,77.8,116.5,76.9,109.9z"/>
			<path class="st18" d="M85.4,182.3c6.3,0.4,12.8-0.4,17.7,5c-7.2-1-14.2-3.8-21.6-2.1C81.9,183,83.7,182.5,85.4,182.3z"/>
			<path class="st47" d="M56.8,215.2c0.8,0.7,1.7,1.4,2.5,2.1c-2.6,3.4-0.9,8.4-4.5,11.4C50.8,223.6,55.2,219.6,56.8,215.2z"/>
			<path class="st28" d="M202.1,2.3c0,0.7,0,1.4,0,2.1c-6.4,0-12.9,0-19.3,0c0-0.7,0-1.4,0-2.1C189.2,2.3,195.7,2.3,202.1,2.3z"/>
			<path class="st48" d="M85.7,76.9c0.7,0,1.5,0,2.2,0c0,1.8-0.4,3.4-2.2,4.4c-4.8,1.3-0.2,7.2-4.4,8.8
				C82.8,85.7,77.8,79.2,85.7,76.9z"/>
			<path class="st49" d="M55.2,230.8c3,5.1,3.3,10.2-0.2,15.3c-0.6-0.5-0.9-1-0.7-1.5c0.2-0.5,0.4-0.8,0.6-0.8c0-2.6,0.2-5.3-2.5-7
				C51.3,233.9,54.1,232.8,55.2,230.8z"/>
			<path class="st28" d="M83.4,155.9c-0.7,5.2,2.1,10.8-2.1,15.5c0-5.2,0.1-10.3,0.1-15.5C82,155,82.8,155,83.4,155.9z"/>
			<path class="st50" d="M83.4,155.9l-1,0.1l-1-0.1c0-3.6,0-7.3,0-10.9c1.5,1.4,3,2.8,4.5,4.2c-0.8,0.8-1.6,1.7-2.3,2.5
				C83.5,153.1,83.4,154.5,83.4,155.9z"/>
			<path class="st51" d="M65.5,342.9c-0.8,0-1.7,0.1-2.5,0.1c-2.9-3.2-1.6-7.7-3.3-11.2c0.5-1.4,1.1-2.7,2.4-3.5
				c3.9-2.4,5.8-6.5,8.3-10c1-1.6,1.8-3.4,2.7-5.1c1.6-2.5,3.5-4.8,6-6.4c1.5-0.5,3-0.4,4.5,0.3c5.4,4.5,1.3,8.5-0.7,12.6
				C77,327.3,73.7,336.9,65.5,342.9z"/>
			<path class="st52" d="M52.6,292.5c0.2-0.8,0.5-1.5,0.7-2.3c3.8,0.3,3.5,3.5,4.2,6c0.2,3.3,1.2,6.4,1.5,9.7
				c-0.1,1.8-0.6,3.4-1.9,4.6c-1.2,0.6-2.2,0.4-3-0.6C51.6,304.3,53.5,298.3,52.6,292.5z"/>
			<path class="st53" d="M54,310c0.9,0.1,1.9,0.2,2.8,0.3c2.1,0.9,3.2,2.6,4,4.6c0.8,2.6,0.8,5.2-0.5,7.7c-0.8,0.9-1.7,1.1-2.7,0.5
				C55.2,319,54.1,314.6,54,310z"/>
			<path class="st51" d="M57.7,323c0.5-0.1,1-0.1,1.4,0c5.2,0.4,4.1,3.3,2.6,6.4c-0.6,0.8-1.2,1.6-1.9,2.4
				C59,328.9,58.3,326,57.7,323z"/>
			<path class="st54" d="M54.8,243.8c0,0.8,0.1,1.5,0.1,2.3c1.1,8.2-3.3,17.3,4.3,24.4c-1.5,1.2-2.9,1.1-4.3-0.1
				c-2-0.9-2.1-2.7-2.4-4.5c0.1-6.6,0.1-13.1,0.2-19.7C53.4,245.4,54.1,244.6,54.8,243.8z"/>
			<path class="st55" d="M55.2,296.6c-0.4-2.2,0.2-4.7-1.9-6.4c-0.1-5.1-0.2-10.2-0.3-15.3c0.6-0.1,1.2,0,1.7,0.2
				c3.3-0.4,5.3,1.2,5.9,4.4c-0.3,4.9-0.6,9.8-1.7,14.6C58.2,295.7,57.2,296.9,55.2,296.6z"/>
			<path class="st56" d="M59.3,279.1c-1.5-1.3-3.1-2.6-4.6-4c0.1-1.6,0.2-3.2,0.3-4.8c1.4,0,2.8,0.1,4.3,0.1
				c2.2,2.7,5.3,3.8,8.6,4.7c5.6-0.2,9,2.3,9.8,8.1c-0.8,2.2-2.5,3.3-4.7,3.7c-2.7,0.2-5-0.9-7.3-2C63,283.7,60.5,282.1,59.3,279.1z
				"/>
			<path class="st57" d="M76.2,283.2c-0.7-4.8-5.9-5-8.4-8c4-3.1,8.8-5.1,11.7-9.5c1.3-1.1,2.6-1.1,3.9,0.1c3.9,4.6,4.3-1.8,6.6-2.1
				c1,0.3,1.9,0.8,2.9,1.1c0.7,0,1.4,0,2.1,0c0.8-0.1,1.4,0.3,1.6,1.1c4.3,0.7,8.7,1.5,13,2.2c-1.3,3.7-5.1,6.4-4.1,10.9
				c-0.8,7.8,1.8,14.9,4.5,22c1,3.8,2.5,7.3,5.2,10.2c3.8,8.2-3.4,11-7.6,15.2c-0.9,0-1.8-0.3-2.6-0.7c-1.3-1.2-2.1-2.9-3.7-3.7
				c-1.4-0.1-2.7,0.2-4,0.5c-0.9,0.2-1.7,0.3-2.6,0.4s-1.7,0.1-2.6,0.1s-1.8-0.1-2.6-0.2c-0.9-0.1-1.8-0.3-2.7-0.4
				c-2.1-0.8-6,1.2-5.5-3.5c0.9-3.6,5.4-6.5,2.1-10.9c0.4-0.3,0.7-0.6,1.1-0.9c0.7-0.2,1.4-0.3,2.1-0.1c-2.4-7.5-0.1-16.8-8.1-22.2
				C77.5,284.4,76.8,284,76.2,283.2z"/>
			<path class="st58" d="M98.8,386.9c-5.6-1.7-10.4-4.2-11.1-10.9c0.3-0.4,0.6-0.8,0.9-1.2c1.6-1.1,3.5-1.6,5.3-2.4
				c0.8-0.7,1.3-1.5,1.7-2.5c0.8-10.8,0.1-21.6,0.4-32.4c0.1-4.7,0-9.5,4.3-12.8c1.8-0.9,3.6-0.9,5.2,0.4l0.2,0.1
				c1.8,1.8,3.2,3.7,3.3,6.3c-0.1,3.9,1.2,7.4,2.4,11c0.8,2.6,1.1,5.4,2.4,7.9c1.6,2.8,2.8,5.8,5,8.1c0.7,0.7,1.3,1.4,1.9,2.1
				c4,3.4,4.5,8,4.3,12.8c-2.6,6.1-6,11.5-12.9,13.4C107.8,386.7,103.2,386.7,98.8,386.9z"/>
			<path class="st37" d="M81.3,318.8c1.2,3.7,5-0.6,6.5,2.1c3.6,3.9,3.1,8.8,3,13.4c-0.3,12.7,1,25.4-0.8,38
				c-0.6,1.3-1.4,2.5-2.3,3.5l-0.1,0.2c-7.4-1.2-8.6-8.1-11.6-13c-4-6.4-7-13.4-10.5-20.1C69.2,333.7,75.7,326.5,81.3,318.8z"/>
			<path class="st18" d="M102.9,187.1c4.1-1.1,7.5,1.7,11.4,1.9c10.4,2.4,13.4,12.1,19.1,19.1c3.8,6.5,8.2,12.7,9.4,20.5l0,0
				c1.8,3.5,2.4,7.5,4.4,11c0,5.6,2.4,10.4,4.4,15.4c1.4,4.4,1.1,9.4,4.3,13.2c2.6,3.3-0.5,7.7,2.2,11l0,0c2.7,4.1-0.6,9.1,2.2,13.2
				c0.8,20,4.5,40.1,0.1,60.2c-0.6,2.7,0.5,5.9-2.2,8c-2.9-2.5-2.4-5.8-2.2-9c3-31,0-61.4-7.6-91.5c-0.3-1.1-0.7-2-1.5-2.7
				c-5-12.4-8.8-25.2-15.1-37.1C124.7,206.9,115.8,195.2,102.9,187.1z"/>
			<path class="st54" d="M136.5,331.8c-1.9,9.8-1.5,20.2-6.6,29.3c1.5,0.1-2.3-0.3-0.9-0.7c0.1,0,0-0.6,0-0.9
				c-3.1,4.2-6.5,4.3-10.3,1l-0.4-0.4c-2.5-3.2-3.9-6.7-3.6-10.8c1.4-5.1,1.1-10.2-0.7-15c-3.2-8.4-2.1-15.4,5.5-20.9
				C133.6,315.6,137.6,319.9,136.5,331.8z"/>
			<path class="st59" d="M122.7,263.1c1.1-4.1,3.6-5.8,4.6-0.6c2.6,14.5,9.3,28,9.2,43c0.9,3.7,2.7,9.4-0.9,10.5
				c-5.7,1.8-10.5-2.5-13.9-7.3c1.9-11.8-2.3-22.2-8-32.1c1.5-2.2,3-4.4,4.5-6.6C121.8,269.2,122.2,266.1,122.7,263.1z"/>
			<path class="st60" d="M113.7,276.6c10.6,8.2,14,18.5,9.3,31.2c-6.2,3.1-9.7-3.7-15-4.1c-1.9-8.1-8.9-15.7-2.4-24.7
				C110.2,284.4,111,277.5,113.7,276.6z"/>
			<path class="st61" d="M146.8,257.3c6.2,6.2,5.3,14.8,6.9,22.3c4.9,23.7,7.6,47.7,4.4,72.1c-2.7,4.1,0.5,9.2-2.1,13.3
				c-0.2,2,0.6,4.5-1.8,5.5c-2.7,1-2.8-2.5-4.6-3.2C158.8,330.3,154.9,293.7,146.8,257.3z"/>
			<path class="st62" d="M108,303.8c6.7-4.9,9.3,5.3,15,4.1c3.9,2.5,7.8,5,11.7,7.6c2.9-3.4,1-6.8,1.8-9.9c3.2,8.7,3.1,17.5,0,26.2
				c1-13-10.7-12.9-17.8-17.6c-1.6-0.4-3-1-4.4-1.9C109.3,311.6,110.2,306.6,108,303.8z"/>
			<path class="st63" d="M118.7,360.5c2.1-3.3,7.2,4.1,8.6-2.3c0.1-0.7-0.1-3.8,2-1.4c0.8,0.9,0.4,2.8,0.5,4.3
				c-3.3,3.5-1,9.2-4.8,12.4C123,369.2,120.8,364.8,118.7,360.5z"/>
			<path class="st64" d="M98.8,386.9c4.5-3.5,8.9-3.5,13.3,0C107.8,390,103.2,389.9,98.8,386.9z"/>
			<path class="st65" d="M122.7,263.1c0.8,2.6,4,5.1,1.3,7.9c-1.9,2-3.9-0.5-5.9-1C118.8,267.2,120.5,264.9,122.7,263.1z"/>
			<path class="st66" d="M88.5,199.8c-5.5,0-11.1,0-16.6,0C77.4,196.1,82.9,196.3,88.5,199.8z"/>
			<path class="st67" d="M118.5,154.4c-0.4-4-4.8-4.3-6.5-7.2c-1-2.8-1.3-5.7-1.1-8.6c3-34.9,2-69.8,2.2-104.8
				c0-1.8,0.2-3.6,1.1-5.3c3.2-0.3,6.1,0.7,8.8,2.2c1.7,2,3,4.3,3,6.9c-0.2,20.7,0.7,41.4-0.9,62.2c-1.4,18.6-4.4,37.7,2.3,56.1
				c0.7,1.7,1.3,3.4,2,5.1C125.3,159.7,121.5,157.9,118.5,154.4z"/>
			<path class="st68" d="M147.2,35.2c4.4,0.7,9.3-1.8,13.2,2.2c-4.1,3.2-5.1,7.7-5.4,12.6c-1.2,25.6-3.3,51.1-2.4,76.7
				c0.5,14.3,0,28.5-3.2,42.5c-5.1,0.2-6.9-5-11-6.6c-3.4-5.5-0.7-11.4-1-17.2c-1.5-33.2,2.2-66.3,2.3-99.5
				C139.7,41.4,138,34.1,147.2,35.2z"/>
			<path class="st2" d="M149.4,169.2c-1.9-3.3-2.9-6.9-2.1-10.5c4-16.5,2.2-33.3,1.8-49.9c-0.5-21.5,3.8-42.7,2.4-64.1
				c-0.4-6.9,3.5-7.8,8.8-7.4c3.7,0.5,7.9-1.5,11,2.2c-9.1-1.5-12.1,2.7-11.1,11.4c0.5,4.2,0.1,8.5,0.1,12.8
				c-2.6,24.1,0.2,48.4-2.2,72.5c0,9,0.4,17.9-0.1,26.9c-0.4,6.9,2.7,9,8.9,8.3c2.2,0,4.4,0,6.6,0
				C165,176.3,157.1,173.4,149.4,169.2z"/>
			<path class="st69" d="M127.5,156c-6.6-3-6.6-8.7-6.7-14.8c-0.2-36.8,3.8-73.6,2.3-110.5c7.6,0.8,6.7,6.5,6.6,11.5
				C128.9,80.2,128.2,118.1,127.5,156z"/>
			<path class="st70" d="M147.2,35.2c-5.4,0.8-4.3,5-4.4,8.5c-0.5,33.9-3.7,67.8-2.1,101.7c0.3,6-2.3,11.4-2.3,17.3
				c-4.6-2.1-4.3-6.2-4.4-10.3c-1.5-36.9,3.4-73.7,2.3-110.7C136.1,34.2,139.4,30.3,147.2,35.2z"/>
			<path class="st71" d="M114.2,28.6c4.2,19.8,2.6,39.7,0.8,59.6c-0.4,4.7-1.2,9.4-0.1,14c3.6,15.3,0,30.2-2.9,45
				c-3.9-2-5.3-4.4-4.8-9.5c3.1-32.9,2.7-65.9,2.7-98.8c0-4.9,0.1-9.5-4.5-12.6C108.7,26,111.5,27.1,114.2,28.6z"/>
			<path class="st72" d="M156.1,364.9c0.5-4.5-1.7-9.3,2.1-13.3c0,2.9,0.1,5.9,0.1,8.8C158.1,362.3,157.7,363.9,156.1,364.9z"/>
			<path class="st20" d="M160.4,292.3c-3.9-3.9-1.5-8.8-2.2-13.2C162.2,283,159.7,287.9,160.4,292.3z"/>
			<path class="st20" d="M158.2,279.1c-3.6-3.1-1.7-7.3-2.2-11C159.7,271.2,157.7,275.4,158.2,279.1z"/>
			<path class="st73" d="M237.6,83.2c-0.2,4.5-0.5,9.1-0.7,13.6C235.1,92,233.6,87.3,237.6,83.2C237.6,83.1,237.6,83.2,237.6,83.2z"
				/>
			<path class="st74" d="M158.2,136.3c-3.6-3.2-2.1-7.5-2.1-11.3c-0.2-16.7-0.1-33.3-0.1-50c0-4.3-0.7-8.9,4.4-11.3
				c3.1,22.1,4.7,44.2-1.1,66.2C158.7,132,158.5,134.1,158.2,136.3z"/>
			<path class="st70" d="M142.8,228.6c-4.5-6.1-8.3-12.6-11-19.8c-1.8-4.6-3.6-9.3-2.7-14.4c0.7-4,1.8-7.8,7.1-7.6
				c4.2,2.7,9.9,2.2,13.2,6.6c-6.1,1-4.2,5.9-4.3,9.5C144.8,211.5,146.6,220.3,142.8,228.6z"/>
			<path class="st75" d="M136.2,186.8c-8.4,5.9-2.8,14.7-4.4,22c-5.9-6.6-11.7-13.2-17.6-19.8c0-5.1,0-10.3,0-15.4
				C121.7,178,128.9,182.4,136.2,186.8z"/>
			<path class="st70" d="M147.2,239.6c-3.5-2.9-4.5-6.7-4.4-11C146.3,231.4,147.3,235.3,147.2,239.6z"/>
			<path class="st76" d="M92.7,268c-2-0.7-2.4-2.4-2.6-4.2c0-14.9-0.1-29.8,0.2-44.7c0-2.2-3-8.4,4.3-5.8c0,0.6,0,1.2-0.1,1.8
				c-0.1,8.6,0,17.2,0,25.8C93.8,249.9,96.2,259.1,92.7,268z"/>
			<path class="st54" d="M96.8,265.9c-0.6,0-1.1,0-1.7,0c-3.4-8.5-0.7-17.4-1.6-26.1c0.5-8.8-1.1-17.6,0.9-26.4l0.3-0.3
				c4.5,10.4,1.2,21.4,2,32C97.2,252.1,96.8,259,96.8,265.9z"/>
			<path class="st77" d="M83.4,265.8c-1.3,0-2.6-0.1-3.9-0.1c-1.5-3.6-2.9-7.2-4.4-10.8c0.8-1.6,1.4-3.4,3.8-2.1
				C82.3,256.5,83.5,261,83.4,265.8z"/>
			<path class="st78" d="M70,222.5c6.3,3.4,7.7,8.5,4.8,14.9c-1.6-0.2-2.8-1-3.7-2.3c-1.4-2.7-2.9-5.3-2.8-8.5
				C68.4,225,68.8,223.6,70,222.5z"/>
			<path class="st79" d="M78.9,252.8c-1.3,0.7-2.5,1.4-3.8,2.1c-0.9-3.6-1.9-7.2-2.9-10.8c0.2-1.8,0.6-3.6,2.4-4.6
				C77.8,243.4,79,247.9,78.9,252.8z"/>
			<path class="st80" d="M70,222.5c0,1.4-0.1,2.7-0.1,4.1c-1,1.5-0.5,4.3-3.4,4.2c0-3.2-4.4-5.6-2-9C66.3,219.1,68.2,221.6,70,222.5
				z"/>
			<path class="st81" d="M74.8,239.5c-0.2,1.9-0.5,3.7-2.4,4.6c-2.1-1.9-3-4.3-3.1-7c0.3-1.6,1.1-2.5,2.9-1.7c0.9,0.7,1.8,1.3,2.7,2
				C74.8,238.1,74.7,238.8,74.8,239.5z"/>
			<path class="st82" d="M72.2,235.3c-1,0.6-1.9,1.1-2.9,1.7c-0.9-2.1-1.8-4.2-2.7-6.3c1.1-1.4,2.3-2.8,3.4-4.2
				C70.7,229.5,71.3,232.4,72.2,235.3z"/>
			<path class="st83" d="M59.3,279.1c2.4,1.4,4.7,2.7,7.1,4.1c-2.6,8.1-1.5,15.5,4.7,21.5c2.8,2.7,2.5,6.4,3.6,9.6
				c0.1,1.9-0.6,3.3-2.3,4.3c-1.5-0.2-2.7-0.7-3.8-1.7c-3.8-3.2-7-4-10.1-2.3c-0.5-1.5-1.1-3-1.6-4.5c0.2-1.6,0.4-3.2,0.6-4.8
				c-0.2-3.6,0.6-7.3-0.3-10.9C57.2,289.3,56.2,283.9,59.3,279.1z"/>
			<path class="st84" d="M74.8,314.3c-3.2-4.3-6.4-8.6-9.5-12.9c-4.5-6.3-5.7-12.5,1.2-18.2c2,0.9,4,1.7,6.1,2.6
				c-0.1,8.2,3.1,15.4,7.2,22.3C78,310.2,76.4,312.2,74.8,314.3z"/>
			<path class="st85" d="M79.8,308.1c-8.5-5.5-12-12.6-7.2-22.3c1.2-0.8,2.5-1.7,3.7-2.5c1,0.1,1.9,0.2,2.9,0.3
				c1.4,8,6.5,15.4,4.5,24l-0.2,0.3C82.2,307.9,80.9,308,79.8,308.1z"/>
			<path class="st86" d="M58.5,314.7c8.1-11.1,9.9,0.7,14,3.9c-3.4,3.8-2.5,12-10.8,10.8c-0.2-2.4,0.3-5-2.6-6.4
				C58.9,320.2,58.8,317.5,58.5,314.7z"/>
			<path class="st87" d="M57.2,294.5c3.3,3.5,3.1,7.2,0.3,10.9c-1.9-2.6-3-5.5-2.2-8.8C55.8,295.9,56.5,295.2,57.2,294.5z"/>
			<path class="st88" d="M114.3,312.3c1.9-0.3,3.3,0.3,4.4,1.9c-6.3,8.5-2.2,17-0.3,25.7c0.7,3.3,1.3,7.3-2.4,9.8
				c-1,0.4-1.9,0.2-2.7-0.4c-1.5-2-1.8-4.5-2.6-6.8c-1.3-3.7-3.2-7.1-3.1-11.2c-0.7-2-1.4-3.9-2.1-5.9
				C110.2,322.1,113.5,318.1,114.3,312.3z"/>
			<path class="st89" d="M83.7,307.5c-1.6-8-8.3-15-4.5-24c1.1-4.9,3.6-4.7,4.9-0.6c2.4,7.4,4.6,15,5.6,22.7
				C90.2,311.2,85.7,306.9,83.7,307.5z"/>
			<path class="st90" d="M101.2,325c-4.8,12.2-1.2,25-2.4,37.5c-0.4,4.5,1.8,9.5-2.2,13.4c-2.9-3.2-3.3-7.2-3-11.2
				c1.2-14.6-3.4-29.5,2.9-43.7c1.5-0.7,3-1.5,4.5-2.2C102.8,320.7,102.9,322.8,101.2,325z"/>
			<path class="st91" d="M87.8,375.9c0.1-0.7,0.1-1.4,0.1-2c2.4-13.3,0.4-26.8,1.1-40.1c0.2-4.3-1.2-8.7,1.1-12.8
				c0.7,0.1,1.5,0.2,2.2,0.2c4.3,9.1,1.3,18.6,2,27.9c0.5,7.6-0.2,15.3,0.4,22.9c0.5,1.3,0.4,2.6-0.3,3.8
				C92.2,375.8,90,375.9,87.8,375.9z"/>
			<path class="st92" d="M94.4,375.8c0-0.8,0-1.5,0-2.3c-1.7-17.5-1.4-35-0.2-52.5c0.8,0,1.6-0.1,2.4-0.1c0,18.3,0,36.6,0,54.9
				C95.9,375.8,95.2,375.8,94.4,375.8z"/>
			<path class="st93" d="M94.2,321c0.1,17.5,0.1,35,0.2,52.5c-4.7-9.6-1.3-19.8-2-29.6c-0.5-7.5,0-15.2,0-22.7
				C93,320.9,93.7,320.9,94.2,321z"/>
			<path class="st94" d="M90.2,320.9c0,14.2,0,28.5-0.2,42.7c0,3.5,1.3,7.4-2.1,10.2c0-17.6,0-35.3,0-52.9
				C88.7,320.9,89.4,320.9,90.2,320.9z"/>
			<path class="st95" d="M94.4,239.5c0.2,8.8,0.3,17.6,0.5,26.4c-0.8,0.7-1.6,1.3-2.4,2c-0.1-9.5-0.1-19-0.2-28.4
				C93.2,238.5,93.8,238.6,94.4,239.5z"/>
			<path class="st96" d="M101.2,325c-0.1-2.1-0.1-4.2-0.2-6.3c4.5,0.2,4.5,3.3,4.4,6.6C104,325.2,102.7,325.1,101.2,325z"/>
			<path class="st97" d="M107.8,331.2c2.7,3.5,3.8,7.5,3.8,11.8c-0.5,0-1-0.1-1.5-0.1C107.3,339.4,104.2,336,107.8,331.2z"/>
			<path class="st97" d="M114.3,349.3c0.5,0.1,1.1,0.2,1.6,0.3c0.8,3.5,1.6,7,2.4,10.5c-5.7-0.1-3.9-5.9-6.4-8.4
				C112.2,350.4,113,349.6,114.3,349.3z"/>
			<path class="st98" d="M114.3,349.3c-0.8,0.8-1.6,1.6-2.4,2.4c-3.2-2.4-1.5-5.8-1.9-8.9c0.5,0.1,1,0.1,1.5,0.1
				C112.4,345.1,113.4,347.2,114.3,349.3z"/>
			<path class="st99" d="M94.4,239.5h-1h-1c0.5-8.7-2.6-17.6,1.9-26C94.3,222.2,94.4,230.9,94.4,239.5z"/>
		</g>
	</g>
</g>
</svg>
