<?xml version="1.0" encoding="utf-8"?>
<!-- Generator: Adobe Illustrator 21.1.0, SVG Export Plug-In . SVG Version: 6.00 Build 0)  -->
<svg version="1.1" id="Lag_1" xmlns="http://www.w3.org/2000/svg" xmlns:xlink="http://www.w3.org/1999/xlink" x="0px" y="0px"
	 viewBox="0 0 400 400" style="enable-background:new 0 0 400 400;" xml:space="preserve">
<style type="text/css">
	.st0{fill:#FEFEFE;}
	.st1{fill:#FCFCFD;}
	.st2{fill:#F2F2F3;}
	.st3{fill:#F6F6F6;}
	.st4{fill:#FDFDFD;}
	.st5{fill:#505053;}
	.st6{fill:#7D818D;}
	.st7{fill:#424A61;}
	.st8{fill:#C4C4C4;}
	.st9{fill:#131416;}
	.st10{fill:#232329;}
	.st11{fill:#9E9E9E;}
	.st12{fill:#020202;}
	.st13{fill:#5B9DCA;}
	.st14{fill:#EFEFF0;}
	.st15{fill:#F9F9F9;}
	.st16{fill:#5C9DCA;}
	.st17{fill:#FCFCFC;}
	.st18{fill:#FAFAFA;}
	.st19{fill:#E4E6E7;}
	.st20{fill:#FBFBFB;}
	.st21{fill:#F4F5F5;}
	.st22{fill:#F8F8F8;}
	.st23{fill:#213874;}
	.st24{fill:#0B0C0F;}
	.st25{fill:#5F9ECB;}
	.st26{fill:#E0E4EE;}
	.st27{fill:#F5F5F5;}
	.st28{fill:#CCD6E6;}
	.st29{fill:#E9E9E9;}
	.st30{fill:#EFEFEF;}
	.st31{fill:#EAEAEA;}
	.st32{fill:#5C5C5C;}
	.st33{fill:#65A1CC;}
	.st34{fill:#EBEBEB;}
	.st35{fill:#BDBDBE;}
	.st36{fill:#EEEEEE;}
	.st37{fill:#EDEDED;}
	.st38{fill:#1F4297;}
	.st39{fill:#E6E7E8;}
	.st40{fill:#E4E6E8;}
	.st41{fill:#F9F9FA;}
	.st42{fill:#E9E9EA;}
	.st43{fill:#F4F5F6;}
	.st44{fill:#F3F4F5;}
	.st45{fill:#F9FAFB;}
	.st46{fill:#27292D;}
	.st47{fill:#E8E8E9;}
	.st48{fill:#1A1E2A;}
	.st49{fill:#E9EAEA;}
	.st50{fill:#2549A3;}
	.st51{fill:#C3C4C6;}
	.st52{fill:#0D101B;}
	.st53{fill:#4B5263;}
	.st54{fill:#010000;}
	.st55{fill:#1F4296;}
	.st56{fill:#2049A0;}
	.st57{fill:#080A0F;}
	.st58{fill:#14499B;}
	.st59{fill:#1F4196;}
	.st60{fill:#184699;}
	.st61{fill:#104B9C;}
	.st62{fill:#C4C5C7;}
	.st63{fill:#07080C;}
	.st64{fill:#214499;}
	.st65{fill:#2247A4;}
	.st66{fill:#214192;}
	.st67{fill:#294796;}
	.st68{fill:#EAEBEC;}
	.st69{fill:#F3F3F3;}
	.st70{fill:#ECEDED;}
	.st71{fill:#F1F1F2;}
	.st72{fill:#E8E9EA;}
	.st73{fill:#D3D4D6;}
	.st74{fill:#5499C8;}
	.st75{fill:#F7F8F8;}
	.st76{fill:#ECEDEE;}
	.st77{fill:#214291;}
	.st78{fill:#0F121B;}
	.st79{fill:#23459A;}
	.st80{fill:#141C33;}
	.st81{fill:#13182A;}
	.st82{fill:#0C0908;}
	.st83{fill:#0B0806;}
	.st84{fill:#184799;}
	.st85{fill:#13499B;}
	.st86{fill:#0258A0;}
	.st87{fill:#1F4397;}
	.st88{fill:#1D4CA7;}
	.st89{fill:#194796;}
	.st90{fill:#01529E;}
	.st91{fill:#20459E;}
	.st92{fill:#1C2545;}
	.st93{fill:#253E81;}
	.st94{fill:#16161E;}
	.st95{fill:#274BA7;}
	.st96{fill:#13110D;}
	.st97{fill:#151C2F;}
	.st98{fill:#111421;}
	.st99{fill:#050305;}
	.st100{fill:#0C0907;}
</style>
<g>
	<g>
		<path class="st0" d="M359.1,283.5c0,36.9-0.3,73.8,0.2,110.6c0.1,7.3-2.2,8.2-8.6,8.2c-74.1-0.2-148.3-0.1-222.4-0.1
			c2.1-8,12.3-6.1,15.4-12.8c4.9-4.6,6.5-12,13.1-15.2c4.6-0.8,8.3,1.7,12,3.7c4.3,2.4,8.7,3.2,13.4,1.3c4-4.9,2.6-10.8,1.7-15.8
			c-2.3-12.8-1.7-25.5-1.6-38.3c0.1-36.2-3.7-72.3-2.4-108.5c0.2-5.5-0.5-11,2.8-16c1.5-2.1,3.6-3.5,5.7-4.8
			c14.2-7,29.5-10.8,44.4-15.8c32.9-11.1,65.9-22.1,98.9-33.1c4.1-1.4,8.6-2.2,11.8-5.5c4.8-4.6,4.8-11.4,7.8-16.9
			c0.6-4.9-0.8-10,0-12.4c-0.1,2.1,0.2,6.9-0.1,11.6c-0.2,1.2-0.9,2-2,2.4c-33.6,12.2-67.6,23-101.8,33.1
			c-16.1,4.7-32.3,8.9-48.4,13.6c-3.9,1.2-7.9,1.5-11.9,0.7c-7.9-2.6-7-9.4-7.1-15.5c-0.4-30.3,0.2-60.6,2.1-90.9
			c0.5-7.3-0.1-14.6,0.1-21.9c5.3-7.8,14.3-2.2,20.8-5.7c2.2-1,4.4-1.8,6.8-2.4c8.1-0.8,16.1-2.5,24-4.6c5.8-0.6,11.6-1.4,17.4-2.6
			c9.3-0.6,18.1-4,27.3-4.6c8.4-0.1,16.1-3.6,25.2-4.9c-6.5-2.7-12.5-2.1-18.4-3.1c-9.6-1.6-19.1-3.7-28.9-4.1
			c-5.9-2-13.4-0.7-16.8-8c-0.4-1.2-0.1-2.3,0.6-3.3c36.9,0,73.8,0.3,110.6-0.2c7.3-0.1,8.2,2.2,8.2,8.6
			c-0.2,77.8-0.1,155.6-0.1,233.4c-1.1,0.8-2.1,0.7-3-0.2c-4.5-6.3-4.2-14-5.8-21.1c-0.5-2.9-1.3-5.7-1-8.7c0-6.1,0-12.2,0-18.3
			c-0.1-5.4,0.2-10.8-0.2-16.2c0.5,5.4,0,10.9,0.2,16.3c0,6.3,0,12.7,0,19c0,4.5,1.3,8.8,1.7,13.3c0.2,1.3,0.3,2.6,0.3,3.8
			c1.3,23-2.3,45.7-2.4,68.6c-0.1,1.1-0.3,2.2-0.6,3.3c-0.4,1.6-1.2,3.1-1.6,4.7c-0.3,1.4,1,1.9,0.4,0.6c-0.5-1.4,1.9-0.3,0.5-0.8
			c5.3-7.5,3.3-17.5,8.7-24.9C357.2,282.8,358.2,282.8,359.1,283.5z"/>
		<path class="st0" d="M60.2,239.6C60.2,163,60.3,86.4,60,9.9C60,3.3,61.3,2,67.9,2c49.4,0.3,98.9,0.2,148.4,0.2
			c0.7,1.2,0.6,2.2-0.5,3c-1.6,0.8-3.4,0.5-5.1,0.3c-5.3-0.3-10.7,0.6-16.1-0.4c5.8,1.3,12-1,17.7,1.5c-1.5,5.9-6.6,5.3-10.6,5
			c-16.2-0.9-31.6,4.1-47.4,6.3c-5.5,0.7-11,1.5-15.9,4.5c-7.5,3.8-16.3,1.6-23.8,5.4c-1.4,0.6-2.9,1.1-4.4,1.7
			c-8.8,4.8-7,14.5-10.1,21.9c-1.7,4-2.1,8.5-2.6,12.8c-2.2,4.9,1,10.2-1,15.1c-3.1,3.9-2.6,8.7-3.7,13.2c-1.4,4.1-1.1,8.4-2.1,12.6
			c-0.8,2.6-1.3,5.2-1.2,7.9c0.2,6-0.8,12,1.1,17.8c0.8,2.1,1.6,4.2,2.3,6.4c0.9,3.4,1,6.9,1.1,10.4c-0.1,3.5,0,6.9,0,10.4
			c0,4.4-0.1,8.8,0,13.2c-0.2,2.7,1.3,4.8,2.6,7c0.8,2,0.9,4,0.1,6c-0.9,1.8-2.5,3.2-3.8,4.7c-7,5.7-15.6,9.7-19.7,18.5
			c-2.3,3.1-3.6,6.7-4.6,10.4c-1.3,4.1-2.5,8.2-2.2,12.6c0.1,1,0.1,2,0,3c-0.5,2.5-1.4,4.8-3.3,6.6C61.9,240.5,61,240.3,60.2,239.6z
			"/>
		<path class="st1" d="M121.7,402.2c-18.3,0-36.6-0.2-54.9,0.2c-5.5,0.1-6.8-1.2-6.7-6.7c0.3-33.7,0.1-67.4,0.1-101.1
			c1.1-0.7,2.1-0.6,3,0.3c3.3,5.1,1.1,11.2,3.1,16.5c0.9,4.2,1.7,8.5,3.2,12.5c0.9,3,1.9,6.1,2.5,9.2c1.1,4,1.9,8.1,3.2,12.1
			c2.5,7.6,4.5,15.5,8.2,22.6c7.9,15.2,18.7,27,36.3,30.6C121.2,399.2,122.4,400.2,121.7,402.2z"/>
		<path class="st2" d="M152.5,15.4c16.3-2.6,32.2-7.8,49.1-6.7c3.5,0.2,7.4,1.3,10.3-2.1c-0.8-0.5-1-0.9-0.8-1.4
			c0.2-0.5,0.5-0.7,0.7-0.7c1.5,0,3.1-0.1,4.6-0.1c0.6-0.8,1.3-1.5,2-2.1c3.7,0,7.3,0,11,0c3.1,3.8,7.3,1.7,11,2.2
			c3.5,6.1,10.8,3.1,15.4,6.6c1.1,1,2.5,1.1,3.9,1.2c2.3,0.1,4.4,1.2,4.8,3.5c0.5,3.3-2.5,3.9-4.9,4.5c-2.4,0.6-4.8,1.3-7.2,2
			c-9.2,2-18.5,3.8-27.7,5.7c-9.4,1.9-18.7,2.1-28-0.1c-12-2.7-24.2-4.7-36.3-7C157.2,20.2,152.8,20.7,152.5,15.4z"/>
		<path class="st3" d="M121.7,402.2c-0.9-0.8-1.9-1.7-2.8-2.5c7.7-6.6,16.9-8.8,26.8-9c-3.2,7.8-12.2,6.7-17.4,11.5
			C126.1,402.2,123.9,402.2,121.7,402.2z"/>
		<path class="st4" d="M240.4,4.4c-7.8,3.7-10.2,3.2-11-2.2c3.7,0,7.3,0,11,0C240.4,2.9,240.4,3.7,240.4,4.4z"/>
		<path class="st5" d="M60.2,268.1c0-6.6,0-13.2,0-19.8c1.3-0.7,2.4-0.5,3.3,0.7c2.6,6.1,2.6,12.3,0,18.4
			C62.6,268.6,61.5,268.8,60.2,268.1z"/>
		<path class="st6" d="M62.3,294.7l-1-0.3l-1.1,0.1c0-6.6,0-13.2,0-19.8c2.2-0.5,3.3,0.9,4.1,2.7c1.4,4.8,1.3,9.6,0.2,14.4
			C64,293,63.3,293.9,62.3,294.7z"/>
		<path class="st7" d="M62.4,248.4c-0.7,0-1.5,0-2.2,0c0-2.9,0-5.9,0-8.8c0.5-0.7,1.1-0.9,1.8-0.5c4.5-0.2,4.2,2.9,4,5.9
			C65.5,246.7,64.3,247.9,62.4,248.4z"/>
		<path class="st8" d="M359.1,283.5l-0.9,0.3l-0.9-0.1c-4.2-3.7-3.6-8-1.6-12.5c0.9-1.2,2-1.5,3.3-0.8
			C359.1,274.7,359.1,279.1,359.1,283.5z"/>
		<path class="st8" d="M357.3,243.8c0.6-0.2,1.2-0.2,1.8,0.1c0,4.4,0,8.8,0,13.2c-1.3,0.7-2.4,0.4-3.3-0.8
			C353.8,251.9,353.2,247.6,357.3,243.8z"/>
		<path class="st9" d="M357.3,256.4c0.7,0,1.3,0.2,1.8,0.7c0,4.4,0,8.8,0,13.2c-0.5,0.5-1.1,0.8-1.8,0.7
			C353.1,266.2,353.1,261.3,357.3,256.4z"/>
		<path class="st10" d="M62.7,277.1c-0.8-0.8-1.7-1.6-2.5-2.4c0-2.2,0-4.4,0-6.6c0.7-0.1,1.4-0.2,2-0.1c1.9,0.9,2.8,2.6,3.5,4.4
			c0.4,1.5,0.3,2.9-0.5,4.3C64.5,277.4,63.6,277.6,62.7,277.1z"/>
		<path class="st11" d="M218.4,2.2c-0.7,0.7-1.3,1.4-2,2.1c-0.1-0.7-0.2-1.4-0.2-2.1C217,2.2,217.7,2.2,218.4,2.2z"/>
		<path class="st12" d="M145.7,390.7c-8.5,4.2-17.1,8.4-26.8,9c-19.1-1.2-29-14.1-37-29.3c-4.2-8-8-16.1-9.2-25.2
			c0.8-0.7,1.8-1,2.8-0.9c5.5,3.1,6.7,9.1,9.4,14c3.6,6.6,7,13.4,12.7,18.6c3.4,4,6.4,8.4,11.6,10.4c3.9,1.6,7.8,1.5,11.7,0
			c6-2.6,9.4-7.4,11.7-13.3c1.8-4.3,2.4-9.1,4.8-13.2c4-8.6,3.6-18.3,6.3-27.2c1.9-8.2,1.6-16.4,0.3-24.6c-2.2-13.7-4.6-27.5-11-40
			c-2.2,0.8-2.7,2.9-3.9,4.5c-1.7,2.4-3.2,5-5,7.3c-3.4,2.9-6.7,6.5-10.7,0.9c-1.6-4.8,1-8.5,3.3-12.3c14.1-20.7,14.3-21.3,0.6-42.1
			c-5.7-8.6-10.3-18.5-20.6-23.1c-4.6-2-9.3-1.9-13.9-0.1c-3.8,1.2-5.7,5.8-10.3,5.7c-1.6-0.6-2.8-1.5-1.7-3.5
			c3.4-9.9,12.7-13.5,20.2-19c6.4-4.6,13.1-2.2,19.7-0.7c1.1,0.3,2.2,0.7,3.2,1.2c16.1,9.9,26.4,24.7,33.8,41.7
			c4.5,10.4,8,21.1,11.5,31.8c4.6,17.3,8.7,35.1,8.4,52.8c-0.4,18,1,36.6-5.8,54.1c-0.7,3.2-2.8,5.5-5.2,7.6
			C153.1,380.8,149.4,385.7,145.7,390.7z"/>
		<path class="st13" d="M91.1,147.2c-0.4-3.7-0.7-7.4-1.1-11.1c3.8-5.9,7.5-1.2,10.6,0.6c9.5,5.6,18.3,12.6,28.2,17.7
			c3.9,2.9,8.3,5,12.5,7.4c18.1,14.7,38.3,15.9,59.9,9.7c43.1-12.3,86.1-24.9,128.6-39.3c6.8-2.3,13-6.6,20.5-6.9l0,0.1
			c1-1.3,1.6-1.1,1.8,0.4c-0.4,6.4-0.8,12.8-6.3,17.3c-32.6,12.5-66.2,22.3-99.2,33.7c-19.6,6.8-39.5,12.9-59,19.9
			c-10.1,3.6-19.5,0.8-28.6-3.5c-22.5-10.8-43-24.9-63.5-39C93.4,152.4,92.7,149.5,91.1,147.2z"/>
		<path class="st14" d="M350.4,125.3c-26.2,12.2-54.2,19.5-81.6,28.2c-24.4,7.6-49.2,14-73.5,21.7c-21.2,6.7-39.5,2-56.1-11.8
			c-1.4-2.2-3.8-3.7-4.4-6.5c-0.9-19.6-1.2-39.1,0.8-58.7c1.9-19.1,0.8-38.5,0.3-57.8c0-1.5-1-2.7-2.2-3.6c-3-1.6-6.1-3-9.4-3.6
			c-3.1-1-6.3-1.7-9.3-2.9c-1.4-0.9-2.6-1.9-2-3.9c6.8-7,16.8-1.7,24.2-6.6c9.9-3.2,19.2,0.7,28.7,2.1c11.8,1.7,23.5,4,35.1,6.9
			c4.7,2.2,12.9,1.5,8.7,10.8c-1.5,0.7-2.9,1.5-4.4,2.2c-7.4,2.4-15,0.2-22.4,1.2c-4.3,0.3-8.5-0.7-12.7-1.4
			c-4.6-1.6-9.4-1.3-14.1-2.1c-4.7-0.9-6.9,1-6.8,5.8c0.9,37.2-4.1,74.2-2.1,111.4c0.1,1.5,0.7,2.8,1.4,4.1c3.5,3.3,6.7,7,11.6,8.5
			c7.1,3.9,14.6,4.4,22.4,3.3c2.4-0.3,5.1,0.9,7.3-1.1c18.1-2.5,35.4-8.3,52.7-13.6c33.8-10.3,68.1-19.2,100.6-33.4
			C346,123.2,348.1,124.2,350.4,125.3z"/>
		<path class="st15" d="M156.8,375.8c0.8-2.1,1.7-4.3,2.5-6.4c2-0.8,4.4-1.1,5.2-3.7c0.8-1.9,1.4-3.9,2.1-5.9
			c4-21,2.7-41.9,0.5-62.9c0-4.4,0.5-8.8-0.4-13.1c-0.3-1-0.6-2-0.8-3.1c-0.5-3.6-1-7.2-3.4-10.2c-2.1-5-4.1-10-1.6-15.4
			c3.2-14.7,0.5-29.6,1.6-44.4c0.9-12.5,4.1-14.6,16.9-10.8c1.8,17.4,0.7,34.9,1.5,52.4c1.6,37.8,1.7,75.7,3.5,113.6
			c0.3,5.7,1.5,11.8-3.2,16.7C171.1,387.1,165.4,375.9,156.8,375.8z"/>
		<path class="st16" d="M238.2,74.9c3.5,3.1,8.6,4.8,9.1,10.4c-2.9,3.6-0.3,7.8-1,9.6c0.2-1.8-1.5-5.9,1.1-9.5
			c5.3,14.2,3.5,17.1-10.7,18c-10.1,0.7-19.2,3.9-26.9,10.7c-7.2-0.3-7.2-6-7.5-10.8C201,87.3,217.6,68.1,238.2,74.9z"/>
		<path class="st16" d="M316.9,57.2c10.9,6,12.6,15.1,9.1,26.1c-9.6,2.4-20.1,0.4-28.8,6.5c-3.6,0.3-5.9,6-9.5,3.5
			c-3.8-2.6-3.8-7.6-3.3-12c1.1-11.2,6.2-19.8,16.8-24.5C306.4,55.9,311.7,55.2,316.9,57.2z"/>
		<path class="st17" d="M181.1,382.4c1-42.8-3-85.4-2.7-128.2c0.1-14-1.6-28.3-1.7-42.5c0-4.1,0-8.1,2.2-11.7c2.2-1.9,4.4-1.9,6.6,0
			c-2.5,4-2.3,8.4-2.2,12.8c0.7,46,1.3,92,2.4,137.9c0.2,9,2.7,18,2,27.1C187.4,382.2,187.3,386.6,181.1,382.4z"/>
		<path class="st18" d="M181.1,41.8c8.1,0,16.1,0,24.2,0c-7,4.5-14.7,1.2-22,2.2c-2.6,19.5-0.2,39.1-2.1,58.7
			c-1.9,19.9-1.2,39.9-1.3,59.9c0,4,0.1,8.1-2.9,11.3c-8.8,3-12.1-1.4-12.4-9.5c-0.3-8.4-0.4-16.7,0-25.1c7-24.4,5.2-49.1,2.7-73.8
			c-0.7-4.4-0.7-8.7-0.5-13.1C167.4,41.1,169,39.9,181.1,41.8z"/>
		<path class="st19" d="M95.6,151.4c18.5,11.7,37.1,23.2,55.6,35c16,10.2,32.4,10.7,50.2,4.5c44.5-15.4,89.3-30,134-44.8
			c3.4-1.1,7-1.9,10.5-2.9c-2.6,4.9-7.9,4.8-12.2,6.3c-47.9,16.2-95.9,32.3-143.8,48.4c-9.8,2-19.6,1.1-29.4,0.9
			c-4.8-2.8-10-4.9-14.9-7.5c-7.4-4.7-15.6-8.2-22.5-13.7c-9.3-6.8-19.2-12.9-28.3-19.9c-1.1-1.1-1.7-2.6-2.2-4
			C92.8,151.7,93.6,150.7,95.6,151.4z"/>
		<path class="st20" d="M176.7,173.6c-1.3-40.4,3.8-80.8,2.2-121.2c-0.1-3.5-1.1-7.7,4.3-8.5c4.3,15.8,2.7,31.9,1.2,47.8
			c-2.4,24.8-0.4,49.7-1.1,74.5c-0.1,4.6,2.9,5.3,6.6,5.3c-1.6,2.6-4.2,2.1-6.6,2.2C181.1,175.1,178.9,175.1,176.7,173.6z"/>
		<path class="st21" d="M159.1,195.6c10,4.4,20.5,1.3,30.8,2.2c-0.9,1.8-2.6,2.2-4.4,2.2c-2.2,0-4.4,0-6.6,0
			c-10.3-1.8-14.2,2.1-13.4,12.8c0.9,11.9,0.3,23.9,0.2,35.9c0,3.5,1,7.6-4.3,8.4c-5.9-2.9-5.8-8.7-7-14c0.1-4.3-1.5-8.3-3.1-12.2
			c-0.3-1.1-0.4-2.2-0.4-3.3c2.1-7.8,0.6-15.8,1.2-23.7C152.4,200.1,150.8,193.3,159.1,195.6z"/>
		<path class="st22" d="M253.6,19.8c2.1-3.8,6.7-0.8,9.3-3.4c-0.7-4.2-5.8-2.2-7.1-5.4c10.5-0.3,20.7,1.3,30.8,4.4
			c2.2,6.6-0.1,10.9-6.6,13.2c-9.5,1.5-19,2.9-28.6,4.4c-0.1-3.6-4.6-4.6-4.8-8.2c3.9-5,10.2-1.5,14.4-4.1c1.9-0.4,0.4-2.5,0.7-1.1
			c0.1,0.4-0.1,0.5-0.4,0.7C258.7,21.3,256.1,22.2,253.6,19.8z"/>
		<path class="st23" d="M346.3,305.3c0.7-24.7,1.4-49.4,2.2-74.2c1.7-0.3,3,0.4,3.3,2c5.5,23.2,6.1,46.2-1.6,69.1
			C349.5,304,348.5,305.5,346.3,305.3z"/>
		<path class="st24" d="M346.3,305.3c10.4-24.4,9.9-49.2,2.2-74.2c0-0.8-0.1-1.7-0.1-2.5c2.6-1.4-1.6-7.1,4.1-6.6
			c1.6,7.3,3.3,14.5,4.9,21.8c0,4.2,0,8.4-0.1,12.6c0,4.9,0,9.7,0,14.6c0,4.2,0,8.4,0.1,12.6c-2,9.8-2,20.3-9.2,28.5
			c-5.4-0.6-2.9-4-2.4-6.7L346.3,305.3z"/>
		<path class="st25" d="M280.1,115.7c2.5-0.3,4.7-0.2,4.3,3c-0.6,5.1-4.2,8.3-8.3,10.7c-3.8,2.2-7.7,2.3-11.1-0.5
			c-3.7-3.1-5-6.9,0.5-9.1C270.2,117.8,275.2,117,280.1,115.7z"/>
		<path class="st20" d="M280,28.6c4.9-3.1,4.1-8.9,6.6-13.2c7.7-0.9,14.9,1.8,24.6,3.2C300.9,26.5,289.8,25.8,280,28.6z"/>
		<path class="st26" d="M238.2,74.9c-19.5-0.9-31,6.8-34.2,23.1c-1.3,6.3-1.1,12.5,5.7,16.1c-4.9,4.3-6.5-0.7-7.9-3.4
			c-3.8-7.3,0-22.2,7-29.5C217,72.5,227.1,70.3,238.2,74.9z"/>
		<path class="st2" d="M209.6,39.6c1.7-7.6-6.2-5.5-8.8-8.8c6.7-4.2,14.2-1.2,21.2-2.3c5.4-0.4,11.1-1.1,11.8,6.7
			C226.1,38.3,218.1,40.1,209.6,39.6z"/>
		<path class="st27" d="M233.8,35.2c-2.2-5.1-6.8-4.4-11-4.4c7.1-7,15.2-7.8,24.2-4.4c2.6,0.5,6-1.4,7.5,1.8
			c1.1,2.3-2.4,2.9-3.1,4.8C245.7,34.7,239.8,35.7,233.8,35.2z"/>
		<path class="st28" d="M297.2,89.8c8.2-8.4,18.8-6,28.8-6.5C316.4,85.5,306.8,87.6,297.2,89.8z"/>
		<path class="st29" d="M352.2,125.8c-0.6-0.1-1.2-0.3-1.8-0.4c0-5.9,0-11.7,0-17.6c0.6,0,1.2,0,1.8,0
			C352.2,113.9,352.2,119.8,352.2,125.8z"/>
		<path class="st30" d="M348.4,216c-0.1-6.8-0.2-13.6-0.3-20.4c0.7-1,1.4-1,2.1,0c-0.1,6.8-0.2,13.6-0.3,20.4l-0.8,0.5L348.4,216z"
			/>
		<path class="st31" d="M350.3,195.6l-1.1,0c0,0-1.1,0-1.1,0c0-5,0-10,0-15c0.7,0,1.4,0,2.1-0.1
			C350.3,185.5,350.3,190.6,350.3,195.6z"/>
		<path class="st32" d="M348.4,216c0.5-0.1,1-0.1,1.6,0c0.8,2,1.6,4.1,2.4,6.1c-3.6,0.8-1.5,5.1-4.1,6.6
			C348.3,224.4,348.4,220.2,348.4,216z"/>
		<path class="st33" d="M316.9,57.2c-5.2-0.1-10.5-0.2-15.7-0.3C306.5,53.7,311.7,53,316.9,57.2z"/>
		<path class="st34" d="M203.3,390c-6.4,1.4-9.9,1.6-14.4,0.2C193.5,388.5,197,388.8,203.3,390z"/>
		<path class="st35" d="M345.7,305.4c1.4,2-0.8,5.3,2.4,6.7c-0.9,0.9-1.9,1.9-2.8,2.8C342.5,311.6,343.5,308.5,345.7,305.4z"/>
		<path class="st36" d="M294.6,359.3c2.4-1.9,4.4-3.9,8.1-2.4C300.2,359.2,298.2,361.1,294.6,359.3z"/>
		<path class="st37" d="M287.6,11.9c3.7-0.9,5.9-1.7,8,0.4C293.2,13.6,291,13.6,287.6,11.9z"/>
		<path class="st37" d="M257.6,7.7c2.3-1.6,4.5-1.4,7.5-0.1C262.3,9.2,260.1,9.3,257.6,7.7z"/>
		<path class="st38" d="M98.2,202c18,11,27.3,28.5,32.7,47.7c2.3,8-7.2,13.9-11.5,20.6c-5.3,3.2-9.8,1.5-14-2.3
			c-4.2-14.4-1.3-29.2-1.9-43.6c-2.4,13.8,1,27.6-2,41.2c-2,3.6-3.9,7.7-9.1,4c-1.8-4.6-3.1-9.4-5.1-13.9c-0.6-4.6-2.8-8.8-4-13.3
			c-0.2-1-0.3-2-0.2-3c0.3-5,0.2-9.9-4.1-13.6c-3.1,1.5-0.9,3.8-0.8,5.7c0.7,2.3,1.5,4.5,2.3,6.8c0.9,2.8,2.2,5.3,3.5,7.9
			c1.5,3.2,2.6,6.5,3.1,10c1.4,3.9,4,7.6,2.9,12.1c-2.1,6-6.7,8.8-12.7,9.9c-4.5,0.2-8-1.4-10.6-5.2c-6.2-7.2-2.1-15.8-3.2-23.7
			c3.8-5.3,1.1-11,1.2-16.5c-0.3-0.6-0.4-1.3-0.4-2c0.7-4,1.1-8,3.1-11.7c2.1-3.4,2-8.1,6-10.4c2.6-2.4,4-6.3,8.1-6.9
			C87.1,200.6,92.7,200.7,98.2,202z"/>
		<path class="st39" d="M112.9,26.3c0.7,0.7,1.5,1.5,2.2,2.2c7.5,1.9,7.7,7.9,7.6,13.8c-0.5,26.5,1.2,53-1.6,79.4
			c-0.9,8-2.6,16.6,1.3,24.5c2.5,3.1,7.5,4.8,5.8,10.3c-10.5-4.1-18.9-11.9-28.7-17.3c-2.9-1.6-5.2-5.5-9.5-3.1
			c-0.5-1.4-0.9-2.8-1.4-4.2c1.8-1.8,0.8-3.8,0.3-5.8c-0.2-5.4-0.4-10.8,0.2-16.1c2.1-8.4,3.3-16.9,4.4-25.4c0.4-2.4,2.3-4,2.9-6.3
			c-1.3-6.4,0.7-12.6,1.5-18.9c3.9-10.9,3.4-23.1,10.6-32.9C110,26.4,111.5,26.4,112.9,26.3z"/>
		<path class="st40" d="M95.4,156c10.2,5.6,19.7,12.3,28.6,19.8c3,4.8,3.9,9.7,1,14.9c-4.7,4-8.2-1.6-12.4-1.4l0.2,0.1
			c-5.4-3.3-11.9-2.8-17.7-5c0.1-2.1,0.2-4.3,0.3-6.4C92.3,170.7,91.8,163.4,95.4,156z"/>
		<path class="st41" d="M247,26.4c-8.3-0.1-16.4,1.5-24.2,4.4c-7.3,0-14.7,0-22,0c-21.2-3.7-42.5-7.3-63.7-11c4.7-2.9,10-4,15.4-4.4
			c30.1,7.2,60.2,16.2,91.5,5.9c3-1,6.4-1,9.6-1.5c2.8,0,5.6,0,9.1,0C258.3,25.7,251.1,22.2,247,26.4z"/>
		<path class="st42" d="M108.6,26.4c-2.9,11-5.9,21.9-8.8,32.9c-2.4,0.5,0.2,6.1-4.4,4.4C98,50.7,97.1,36.4,108.6,26.4z"/>
		<path class="st43" d="M95.4,83.5c-0.2,9-1.3,17.8-4.4,26.3c-1.7-1-2.1-2.6-2.2-4.4c0.7-4.4-1.8-9.3,2.2-13.2
			c2.2-2.8,0.3-6.3,1.4-9.1C93.4,80.7,94.8,79.5,95.4,83.5z"/>
		<path class="st44" d="M95.3,63.8c2.9-0.1,0.4-5.5,4.4-4.4c-0.7,6.6-1.5,13.2-2.2,19.8c-0.7,0.9-1.5,0.8-2.2,0
			C95.9,74,91.1,68.9,95.3,63.8z"/>
		<path class="st45" d="M88.7,105.5c1.8,0.9,2.2,2.6,2.2,4.4c0,6.6,0,13.2,0,19.8c-5.1,0.1-2.8-3.8-3.2-6.1c-0.7-3.8,1-7.8-1.2-11.4
			C86.6,109.7,86.2,107.1,88.7,105.5z"/>
		<path class="st43" d="M95.4,156c0,7.3,0,14.7,0,22c-2.9-0.1-4.3-1.6-4.4-4.4c2.3-4.8,0.6-10,1.1-14.9c0-1.7-0.2-3.4,1.2-4.8
			C94,154.6,94.7,155.3,95.4,156z"/>
		<path class="st46" d="M73.5,208.9c-1.3,3.7-1.7,7.7-4.6,10.6c-1.3-0.2-2.2-0.8-2.5-2.1c0.3-4.2,1.5-8.1,4.6-11.1
			C71.8,207.1,72.7,208,73.5,208.9z"/>
		<path class="st47" d="M86.6,112.1c5.3,4.9-0.9,12.7,4.4,17.5c1.7,3.4-1.5,1.6-2.4,2.2C84.5,125.7,87.5,118.7,86.6,112.1z"/>
		<path class="st19" d="M95.1,184.5c6.3,0.4,12.8-0.4,17.7,5c-7.2-1-14.2-3.8-21.6-2.1C91.6,185.2,93.3,184.7,95.1,184.5z"/>
		<path class="st48" d="M66.4,217.4c0.8,0.7,1.7,1.4,2.5,2.1c-2.6,3.4-0.9,8.4-4.5,11.4C60.5,225.8,64.9,221.8,66.4,217.4z"/>
		<path class="st29" d="M211.8,4.5c0,0.7,0,1.4,0,2.1c-6.4,0-12.9,0-19.3,0c0-0.7,0-1.4,0-2.1C198.9,4.5,205.4,4.5,211.8,4.5z"/>
		<path class="st49" d="M95.3,79.1c0.7,0,1.5,0,2.2,0c0,1.8-0.4,3.4-2.2,4.4c-4.8,1.3-0.2,7.2-4.4,8.8
			C92.4,87.9,87.5,81.4,95.3,79.1z"/>
		<path class="st50" d="M64.8,233c3,5.1,3.3,10.2-0.2,15.3c-0.6-0.5-0.9-1-0.7-1.5c0.2-0.5,0.4-0.8,0.6-0.8c0-2.6,0.2-5.3-2.5-7
			C61,236.1,63.8,235,64.8,233z"/>
		<path class="st29" d="M93.1,158.1c-0.7,5.2,2.1,10.8-2.1,15.5c0-5.2,0.1-10.3,0.1-15.5C91.7,157.2,92.4,157.2,93.1,158.1z"/>
		<path class="st51" d="M93.1,158.1l-1,0.1c0,0-1-0.1-1-0.1c0-3.6,0-7.3,0-10.9c1.5,1.4,3,2.8,4.5,4.2c-0.8,0.8-1.6,1.7-2.3,2.5
			C93.2,155.3,93.1,156.7,93.1,158.1z"/>
		<path class="st52" d="M75.2,345.1c-0.8,0-1.7,0.1-2.5,0.1c-2.9-3.2-1.6-7.7-3.3-11.2c0.5-1.4,1.1-2.7,2.4-3.5
			c3.9-2.4,5.8-6.5,8.3-10c1-1.6,1.8-3.4,2.7-5.1c1.6-2.5,3.5-4.8,6-6.4c1.5-0.5,3-0.4,4.5,0.3c5.4,4.5,1.3,8.5-0.7,12.6
			C86.7,329.5,83.3,339.1,75.2,345.1z"/>
		<path class="st53" d="M62.3,294.7c0.2-0.8,0.5-1.5,0.7-2.3c3.8,0.3,3.5,3.5,4.2,6c0.2,3.3,1.2,6.4,1.5,9.7
			c-0.1,1.8-0.6,3.4-1.9,4.6c-1.2,0.6-2.2,0.4-3-0.6C61.3,306.5,63.2,300.5,62.3,294.7z"/>
		<path class="st54" d="M63.7,312.2c0.9,0.1,1.9,0.2,2.8,0.3c2.1,0.9,3.2,2.6,4,4.6c0.8,2.6,0.8,5.2-0.5,7.7
			c-0.8,0.9-1.7,1.1-2.7,0.5C64.8,321.2,63.8,316.8,63.7,312.2z"/>
		<path class="st52" d="M67.3,325.2c0.5-0.1,1-0.1,1.4,0c5.2,0.4,4.1,3.3,2.6,6.4c-0.6,0.8-1.2,1.6-1.9,2.4
			C68.7,331.1,68,328.2,67.3,325.2z"/>
		<path class="st55" d="M64.5,246c0,0.8,0.1,1.5,0.1,2.3c1.1,8.2-3.3,17.3,4.3,24.4c-1.5,1.2-2.9,1.1-4.3-0.1
			c-2-0.9-2.1-2.7-2.4-4.5c0.1-6.6,0.1-13.1,0.2-19.7C63.1,247.6,63.8,246.8,64.5,246z"/>
		<path class="st56" d="M64.9,298.8c-0.4-2.2,0.2-4.7-1.9-6.4c-0.1-5.1-0.2-10.2-0.3-15.3c0.6-0.1,1.2,0,1.7,0.2
			c3.3-0.4,5.3,1.2,5.9,4.4c-0.3,4.9-0.6,9.8-1.7,14.6C67.9,297.9,66.9,299.1,64.9,298.8z"/>
		<path class="st57" d="M69,281.3c-1.5-1.3-3.1-2.6-4.6-4c0.1-1.6,0.2-3.2,0.3-4.8c1.4,0,2.8,0.1,4.3,0.1c2.2,2.7,5.3,3.8,8.6,4.7
			c5.6-0.2,9,2.3,9.8,8.1c-0.8,2.2-2.5,3.3-4.7,3.7c-2.7,0.2-5-0.9-7.3-2C72.7,285.9,70.2,284.3,69,281.3z"/>
		<path class="st58" d="M85.9,285.4c-0.7-4.8-5.9-5-8.4-8c4-3.1,8.8-5.1,11.7-9.5c1.3-1.1,2.6-1.1,3.9,0.1c3.9,4.6,4.3-1.8,6.6-2.1
			c1,0.3,1.9,0.8,2.9,1.1c0.7,0,1.4,0,2.1,0c0.8-0.1,1.4,0.3,1.6,1.1c4.3,0.7,8.7,1.5,13,2.2c-1.3,3.7-5.1,6.4-4.1,10.9
			c-0.8,7.8,1.8,14.9,4.5,22c1,3.8,2.5,7.3,5.2,10.2c3.8,8.2-3.4,11-7.6,15.2c-0.9,0-1.8-0.3-2.6-0.7c-1.3-1.2-2.1-2.9-3.7-3.7
			c-1.4-0.1-2.7,0.2-4,0.5c-0.9,0.2-1.7,0.3-2.6,0.4c-0.9,0.1-1.7,0.1-2.6,0.1c-0.9,0-1.8-0.1-2.6-0.2c-0.9-0.1-1.8-0.3-2.7-0.4
			c-2.1-0.8-6,1.2-5.5-3.5c0.9-3.6,5.4-6.5,2.1-10.9c0.4-0.3,0.7-0.6,1.1-0.9c0.7-0.2,1.4-0.3,2.1-0.1c-2.4-7.5-0.1-16.8-8.1-22.2
			C87.2,286.6,86.5,286.2,85.9,285.4z"/>
		<path class="st59" d="M108.5,389.1c-5.6-1.7-10.4-4.2-11.1-10.9c0.3-0.4,0.6-0.8,0.9-1.2c1.6-1.1,3.5-1.6,5.3-2.4
			c0.8-0.7,1.3-1.5,1.7-2.5c0.8-10.8,0.1-21.6,0.4-32.4c0.1-4.7,0-9.5,4.3-12.8c1.8-0.9,3.6-0.9,5.2,0.4l0.2,0.1
			c1.8,1.8,3.2,3.7,3.3,6.3c-0.1,3.9,1.2,7.4,2.4,11c0.8,2.6,1.1,5.4,2.4,7.9c1.6,2.8,2.8,5.8,5,8.1c0.7,0.7,1.3,1.4,1.9,2.1
			c4,3.4,4.5,8,4.3,12.8c-2.6,6.1-6,11.5-12.9,13.4C117.4,388.9,112.9,388.9,108.5,389.1z"/>
		<path class="st38" d="M91,321c1.2,3.7,5-0.6,6.5,2.1c3.6,3.9,3.1,8.8,3,13.4c-0.3,12.7,1,25.4-0.8,38c-0.6,1.3-1.4,2.5-2.3,3.5
			c0,0-0.1,0.2-0.1,0.2c-7.4-1.2-8.6-8.1-11.6-13c-4-6.4-7-13.4-10.5-20.1C78.8,335.9,85.3,328.7,91,321z"/>
		<path class="st19" d="M112.6,189.3c4.1-1.1,7.5,1.7,11.4,1.9c10.4,2.4,13.4,12.1,19.1,19.1c3.8,6.5,8.2,12.7,9.4,20.5l0,0
			c1.8,3.5,2.4,7.5,4.4,11c0,5.6,2.4,10.4,4.4,15.4c1.4,4.4,1.1,9.4,4.3,13.2c2.6,3.3-0.5,7.7,2.2,11l0,0c2.7,4.1-0.6,9.1,2.2,13.2
			c0.8,20,4.5,40.1,0.1,60.2c-0.6,2.7,0.5,5.9-2.2,8c-2.9-2.5-2.4-5.8-2.2-9c3-31,0-61.4-7.6-91.5c-0.3-1.1-0.7-2-1.5-2.7
			c-5-12.4-8.8-25.2-15.1-37.1C134.4,209.1,125.5,197.4,112.6,189.3z"/>
		<path class="st55" d="M146.2,334c-1.9,9.8-1.5,20.2-6.6,29.3c1.5,0.1-2.3-0.3-0.9-0.7c0.1,0,0-0.6,0-0.9c-3.1,4.2-6.5,4.3-10.3,1
			l-0.4-0.4c-2.5-3.2-3.9-6.7-3.6-10.8c1.4-5.1,1.1-10.2-0.7-15c-3.2-8.4-2.1-15.4,5.5-20.9C143.3,317.8,147.3,322.1,146.2,334z"/>
		<path class="st60" d="M132.4,265.3c1.1-4.1,3.6-5.8,4.6-0.6c2.6,14.5,9.3,28,9.2,43c0.9,3.7,2.7,9.4-0.9,10.5
			c-5.7,1.8-10.5-2.5-13.9-7.3c1.9-11.8-2.3-22.2-8-32.1c1.5-2.2,3-4.4,4.5-6.6C131.5,271.4,131.8,268.3,132.4,265.3z"/>
		<path class="st61" d="M123.3,278.8c10.6,8.2,14,18.5,9.3,31.2c-6.2,3.1-9.7-3.7-15-4.1c-1.9-8.1-8.9-15.7-2.4-24.7
			C119.8,286.6,120.7,279.7,123.3,278.8z"/>
		<path class="st62" d="M156.5,259.5c6.2,6.2,5.3,14.8,6.9,22.3c4.9,23.7,7.6,47.7,4.4,72.1c-2.7,4.1,0.5,9.2-2.1,13.3
			c-0.2,2,0.6,4.5-1.8,5.5c-2.7,1-2.8-2.5-4.6-3.2C168.5,332.5,164.6,295.9,156.5,259.5z"/>
		<path class="st63" d="M117.7,306c6.7-4.9,9.3,5.3,15,4.1c3.9,2.5,7.8,5,11.7,7.6c2.9-3.4,1-6.8,1.8-9.9c3.2,8.7,3.1,17.5,0,26.2
			c1-13-10.7-12.9-17.8-17.6c-1.6-0.4-3-1-4.4-1.9C119,313.8,119.8,308.8,117.7,306z"/>
		<path class="st64" d="M128.4,362.7c2.1-3.3,7.2,4.1,8.6-2.3c0.1-0.7-0.1-3.8,2-1.4c0.8,0.9,0.4,2.8,0.5,4.3
			c-3.3,3.5-1,9.2-4.8,12.4C132.6,371.4,130.5,367,128.4,362.7z"/>
		<path class="st65" d="M108.5,389.1c4.5-3.5,8.9-3.5,13.3,0C117.4,392.2,112.9,392.1,108.5,389.1z"/>
		<path class="st66" d="M132.4,265.3c0.8,2.6,4,5.1,1.3,7.9c-1.9,2-3.9-0.5-5.9-1C128.5,269.4,130.1,267.1,132.4,265.3z"/>
		<path class="st67" d="M98.2,202c-5.5,0-11.1,0-16.6,0C87.1,198.3,92.6,198.5,98.2,202z"/>
		<path class="st68" d="M128.2,156.6c-0.4-4-4.8-4.3-6.5-7.2c-1-2.8-1.3-5.7-1.1-8.6c3-34.9,2-69.8,2.2-104.8c0-1.8,0.2-3.6,1.1-5.3
			c3.2-0.3,6.1,0.7,8.8,2.2c1.7,2,3,4.3,3,6.9c-0.2,20.7,0.7,41.4-0.9,62.2c-1.4,18.6-4.4,37.7,2.3,56.1c0.7,1.7,1.3,3.4,2,5.1
			C135,161.9,131.1,160.1,128.2,156.6z"/>
		<path class="st69" d="M156.9,37.4c4.4,0.7,9.3-1.8,13.2,2.2c-4.1,3.2-5.1,7.7-5.4,12.6c-1.2,25.6-3.3,51.1-2.4,76.7
			c0.5,14.3,0,28.5-3.2,42.5c-5.1,0.2-6.9-5-11-6.6c-3.4-5.5-0.7-11.4-1-17.2c-1.5-33.2,2.2-66.3,2.3-99.5
			C149.4,43.6,147.7,36.3,156.9,37.4z"/>
		<path class="st3" d="M159.1,171.4c-1.9-3.3-2.9-6.9-2.1-10.5c4-16.5,2.2-33.3,1.8-49.9c-0.5-21.5,3.8-42.7,2.4-64.1
			c-0.4-6.9,3.5-7.8,8.8-7.4c3.7,0.5,7.9-1.5,11,2.2c-9.1-1.5-12.1,2.7-11.1,11.4c0.5,4.2,0.1,8.5,0.1,12.8
			c-2.6,24.1,0.2,48.4-2.2,72.5c0,9,0.4,17.9-0.1,26.9c-0.4,6.9,2.7,9,8.9,8.3c2.2,0,4.4,0,6.6,0
			C174.7,178.5,166.8,175.6,159.1,171.4z"/>
		<path class="st70" d="M137.1,158.2c-6.6-3-6.6-8.7-6.7-14.8c-0.2-36.8,3.8-73.6,2.3-110.5c7.6,0.8,6.7,6.5,6.6,11.5
			C138.6,82.4,137.9,120.3,137.1,158.2z"/>
		<path class="st71" d="M156.9,37.4c-5.4,0.8-4.3,5-4.4,8.5c-0.5,33.9-3.7,67.8-2.1,101.7c0.3,6-2.3,11.4-2.3,17.3
			c-4.6-2.1-4.3-6.2-4.4-10.3c-1.5-36.9,3.4-73.7,2.3-110.7C145.8,36.4,149.1,32.5,156.9,37.4z"/>
		<path class="st72" d="M123.9,30.8c4.2,19.8,2.6,39.7,0.8,59.6c-0.4,4.7-1.2,9.4-0.1,14c3.6,15.3,0,30.2-2.9,45
			c-3.9-2-5.3-4.4-4.8-9.5c3.1-32.9,2.7-65.9,2.7-98.8c0-4.9,0.1-9.5-4.5-12.6C118.3,28.2,121.2,29.3,123.9,30.8z"/>
		<path class="st73" d="M165.8,367.1c0.5-4.5-1.7-9.3,2.1-13.3c0,2.9,0.1,5.9,0.1,8.8C167.8,364.5,167.4,366.1,165.8,367.1z"/>
		<path class="st21" d="M170.1,294.5c-3.9-3.9-1.5-8.8-2.2-13.2C171.9,285.2,169.4,290.1,170.1,294.5z"/>
		<path class="st21" d="M167.9,281.3c-3.6-3.1-1.7-7.3-2.2-11C169.4,273.4,167.4,277.6,167.9,281.3z"/>
		<path class="st74" d="M247.3,85.4c-0.2,4.5-0.5,9.1-0.7,13.6C244.8,94.2,243.3,89.5,247.3,85.4C247.3,85.3,247.3,85.4,247.3,85.4z
			"/>
		<path class="st75" d="M167.9,138.5c-3.6-3.2-2.1-7.5-2.1-11.3c-0.2-16.7-0.1-33.3-0.1-50c0-4.3-0.7-8.9,4.4-11.3
			c3.1,22.1,4.7,44.2-1.1,66.2C168.4,134.2,168.2,136.3,167.9,138.5z"/>
		<path class="st71" d="M152.5,230.8c-4.5-6.1-8.3-12.6-11-19.8c-1.8-4.6-3.6-9.3-2.7-14.4c0.7-4,1.8-7.8,7.1-7.6
			c4.2,2.7,9.9,2.2,13.2,6.6c-6.1,1-4.2,5.9-4.3,9.5C154.5,213.7,156.3,222.5,152.5,230.8z"/>
		<path class="st76" d="M145.9,189c-8.4,5.9-2.8,14.7-4.4,22c-5.9-6.6-11.7-13.2-17.6-19.8c0-5.1,0-10.3,0-15.4
			C131.3,180.2,138.6,184.6,145.9,189z"/>
		<path class="st71" d="M156.9,241.8c-3.5-2.9-4.5-6.7-4.4-11C156,233.6,157,237.5,156.9,241.8z"/>
		<path class="st77" d="M102.3,270.2c-2-0.7-2.4-2.4-2.6-4.2c0-14.9-0.1-29.8,0.2-44.7c0-2.2-3-8.4,4.3-5.8c0,0.6,0,1.2-0.1,1.8
			c-0.1,8.6,0,17.2,0,25.8C103.5,252.1,105.8,261.3,102.3,270.2z"/>
		<path class="st55" d="M106.4,268.1c-0.6,0-1.1,0-1.7,0c-3.4-8.5-0.7-17.4-1.6-26.1c0.5-8.8-1.1-17.6,0.9-26.4c0,0,0.3-0.3,0.3-0.3
			c4.5,10.4,1.2,21.4,2,32C106.8,254.3,106.4,261.2,106.4,268.1z"/>
		<path class="st78" d="M93.1,268c-1.3,0-2.6-0.1-3.9-0.1c-1.5-3.6-2.9-7.2-4.4-10.8c0.8-1.6,1.4-3.4,3.8-2.1
			C92,258.7,93.2,263.2,93.1,268z"/>
		<path class="st79" d="M79.7,224.7c6.3,3.4,7.7,8.5,4.8,14.9c-1.6-0.2-2.8-1-3.7-2.3c-1.4-2.7-2.9-5.3-2.8-8.5
			C78.1,227.2,78.5,225.8,79.7,224.7z"/>
		<path class="st80" d="M88.6,255c-1.3,0.7-2.5,1.4-3.8,2.1c-0.9-3.6-1.9-7.2-2.9-10.8c0.2-1.8,0.6-3.6,2.4-4.6
			C87.4,245.6,88.7,250.1,88.6,255z"/>
		<path class="st81" d="M79.7,224.7c0,1.4-0.1,2.7-0.1,4.1c-1,1.5-0.5,4.3-3.4,4.2c0-3.2-4.4-5.6-2-9
			C76,221.3,77.9,223.8,79.7,224.7z"/>
		<path class="st82" d="M84.4,241.7c-0.2,1.9-0.5,3.7-2.4,4.6c-2.1-1.9-3-4.3-3.1-7c0.3-1.6,1.1-2.5,2.9-1.7c0.9,0.7,1.8,1.3,2.7,2
			C84.4,240.3,84.3,241,84.4,241.7z"/>
		<path class="st83" d="M81.8,237.5c-1,0.6-1.9,1.1-2.9,1.7c-0.9-2.1-1.8-4.2-2.7-6.3c1.1-1.4,2.3-2.8,3.4-4.2
			C80.3,231.7,81,234.6,81.8,237.5z"/>
		<path class="st84" d="M69,281.3c2.4,1.4,4.7,2.7,7.1,4.1c-2.6,8.1-1.5,15.5,4.7,21.5c2.8,2.7,2.5,6.4,3.6,9.6
			c0.1,1.9-0.6,3.3-2.3,4.3c-1.5-0.2-2.7-0.7-3.8-1.7c-3.8-3.2-7-4-10.1-2.3c-0.5-1.5-1.1-3-1.6-4.5c0.2-1.6,0.4-3.2,0.6-4.8
			c-0.2-3.6,0.6-7.3-0.3-10.9C66.9,291.5,65.9,286.1,69,281.3z"/>
		<path class="st85" d="M84.5,316.5c-3.2-4.3-6.4-8.6-9.5-12.9c-4.5-6.3-5.7-12.5,1.2-18.2c2,0.9,4,1.7,6.1,2.6
			c-0.1,8.2,3.1,15.4,7.2,22.3C87.7,312.4,86.1,314.4,84.5,316.5z"/>
		<path class="st86" d="M89.4,310.3c-8.5-5.5-12-12.6-7.2-22.3c1.2-0.8,2.5-1.7,3.7-2.5c1,0.1,1.9,0.2,2.9,0.3
			c1.4,8,6.5,15.4,4.5,24c0,0-0.2,0.3-0.2,0.3C91.8,310.1,90.6,310.2,89.4,310.3z"/>
		<path class="st87" d="M68.2,316.9c8.1-11.1,9.9,0.7,14,3.9c-3.4,3.8-2.5,12-10.8,10.8c-0.2-2.4,0.3-5-2.6-6.4
			C68.6,322.4,68.4,319.7,68.2,316.9z"/>
		<path class="st88" d="M66.8,296.7c3.3,3.5,3.1,7.2,0.3,10.9c-1.9-2.6-3-5.5-2.2-8.8C65.5,298.1,66.2,297.4,66.8,296.7z"/>
		<path class="st89" d="M124,314.5c1.9-0.3,3.3,0.3,4.4,1.9c-6.3,8.5-2.2,17-0.3,25.7c0.7,3.3,1.3,7.3-2.4,9.8
			c-1,0.4-1.9,0.2-2.7-0.4c-1.5-2-1.8-4.5-2.6-6.8c-1.3-3.7-3.2-7.1-3.1-11.2c-0.7-2-1.4-3.9-2.1-5.9
			C119.9,324.3,123.2,320.3,124,314.5z"/>
		<path class="st90" d="M93.3,309.7c-1.6-8-8.3-15-4.5-24c1.1-4.9,3.6-4.7,4.9-0.6c2.4,7.4,4.6,15,5.6,22.7
			C99.9,313.4,95.3,309.1,93.3,309.7z"/>
		<path class="st91" d="M110.9,327.2c-4.8,12.2-1.2,25-2.4,37.5c-0.4,4.5,1.8,9.5-2.2,13.4c-2.9-3.2-3.3-7.2-3-11.2
			c1.2-14.6-3.4-29.5,2.9-43.7c1.5-0.7,3-1.5,4.5-2.2C112.5,322.9,112.6,325,110.9,327.2z"/>
		<path class="st92" d="M97.5,378.1c0.1-0.7,0.1-1.4,0.1-2c2.4-13.3,0.4-26.8,1.1-40.1c0.2-4.3-1.2-8.7,1.1-12.8
			c0.7,0.1,1.5,0.2,2.2,0.2c4.3,9.1,1.3,18.6,2,27.9c0.5,7.6-0.2,15.3,0.4,22.9c0.5,1.3,0.4,2.6-0.3,3.8
			C101.9,378,99.7,378.1,97.5,378.1z"/>
		<path class="st93" d="M104.1,378c0-0.8,0-1.5,0-2.3c-1.7-17.5-1.4-35-0.2-52.5c0.8,0,1.6-0.1,2.4-0.1c0,18.3,0,36.6,0,54.9
			C105.6,378,104.8,378,104.1,378z"/>
		<path class="st94" d="M103.9,323.2c0.1,17.5,0.1,35,0.2,52.5c-4.7-9.6-1.3-19.8-2-29.6c-0.5-7.5,0-15.2,0-22.7
			C102.7,323.1,103.3,323.1,103.9,323.2z"/>
		<path class="st95" d="M99.9,323.1c0,14.2,0,28.5-0.2,42.7c0,3.5,1.3,7.4-2.1,10.2c0-17.6,0-35.3,0-52.9
			C98.3,323.1,99.1,323.1,99.9,323.1z"/>
		<path class="st96" d="M104.1,241.7c0.2,8.8,0.3,17.6,0.5,26.4c-0.8,0.7-1.6,1.3-2.4,2c-0.1-9.5-0.1-19-0.2-28.4
			C102.8,240.7,103.5,240.8,104.1,241.7z"/>
		<path class="st97" d="M110.9,327.2c-0.1-2.1-0.1-4.2-0.2-6.3c4.5,0.2,4.5,3.3,4.4,6.6C113.7,327.4,112.3,327.3,110.9,327.2z"/>
		<path class="st98" d="M117.4,333.4c2.7,3.5,3.8,7.5,3.8,11.8c-0.5,0-1-0.1-1.5-0.1C117,341.6,113.8,338.2,117.4,333.4z"/>
		<path class="st98" d="M124,351.5c0.5,0.1,1.1,0.2,1.6,0.3c0.8,3.5,1.6,7,2.4,10.5c-5.7-0.1-3.9-5.9-6.4-8.4
			C121.9,352.6,122.7,351.8,124,351.5z"/>
		<path class="st99" d="M124,351.5c-0.8,0.8-1.6,1.6-2.4,2.4c-3.2-2.4-1.5-5.8-1.9-8.9c0.5,0.1,1,0.1,1.5,0.1
			C122.1,347.3,123.1,349.4,124,351.5z"/>
		<path class="st100" d="M104.1,241.7c0,0-1,0-1,0s-1,0-1,0c0.5-8.7-2.6-17.6,1.9-26C104,224.4,104.1,233.1,104.1,241.7z"/>
	</g>
</g>
</svg>
