<?xml version="1.0" encoding="utf-8"?>
<!-- Generator: Adobe Illustrator 21.1.0, SVG Export Plug-In . SVG Version: 6.00 Build 0)  -->
<svg version="1.1" id="Lag_1" xmlns="http://www.w3.org/2000/svg" xmlns:xlink="http://www.w3.org/1999/xlink" x="0px" y="0px"
	 viewBox="0 0 400 400" style="enable-background:new 0 0 400 400;" xml:space="preserve">
<style type="text/css">
	.st0{fill:#FEFEFE;}
	.st1{fill:#754C29;}
	.st2{fill:#0D59A4;}
	.st3{fill:#BF1E2E;}
	.st4{fill:#613813;}
	.st5{fill:#F7F7F7;}
	.st6{fill:#FBFBFB;}
	.st7{fill:#F4F3F2;}
	.st8{fill:#F5F3F3;}
	.st9{fill:#F9F8F8;}
	.st10{fill:#EFEAEA;}
	.st11{fill:#FBF7F7;}
	.st12{fill:#E6DBDB;}
	.st13{fill:#E1D3B8;}
	.st14{fill:#E0C8B5;}
	.st15{fill:#DCE5DD;}
	.st16{fill:#DEE7E7;}
	.st17{fill:#C6D4E1;}
	.st18{fill:#EAE5EA;}
	.st19{fill:#F68D28;}
	.st20{fill:#803F98;}
	.st21{fill:#2BB774;}
	.st22{fill:#F8BE12;}
	.st23{fill:#7F3F99;}
	.st24{fill:#00A69B;}
	.st25{fill:#044E80;}
	.st26{fill:#064E80;}
	.st27{fill:#00A59B;}
	.st28{fill:#248EC2;}
	.st29{fill:#FEC212;}
	.st30{fill:#248FC3;}
	.st31{fill:#F9BF4C;}
	.st32{fill:#2490C4;}
	.st33{fill:#F5BC12;}
	.st34{fill:#FCDD68;}
	.st35{fill:#F5B448;}
	.st36{fill:#FADB65;}
	.st37{fill:#FBE270;}
	.st38{fill:#F9C235;}
	.st39{fill:#D7D675;}
	.st40{fill:#FCE16C;}
	.st41{fill:#F5B751;}
	.st42{fill:#F8BF33;}
	.st43{fill:#F4B141;}
	.st44{fill:#EFBB30;}
	.st45{fill:#F0B344;}
	.st46{fill:#F2B346;}
	.st47{fill:#F6BB2C;}
	.st48{fill:#FDC413;}
	.st49{fill:#FEC415;}
	.st50{fill:#F0B82C;}
	.st51{fill:#F88D2D;}
	.st52{fill:#FEC115;}
	.st53{fill:#1A8ECA;}
	.st54{fill:#FCC511;}
	.st55{fill:#FAC02A;}
	.st56{fill:#C01E2E;}
	.st57{fill:#F9B448;}
	.st58{fill:#F8B927;}
	.st59{fill:#BF162D;}
	.st60{fill:#DB3140;}
	.st61{fill:#F8B045;}
	.st62{fill:#F7CA2B;}
	.st63{fill:#FBB040;}
	.st64{fill:#5FBD76;}
	.st65{fill:#0DB7B7;}
	.st66{fill:#25A9E0;}
	.st67{fill:#944097;}
	.st68{fill:#FAD664;}
	.st69{fill:#FBE473;}
	.st70{fill:#03B6BA;}
	.st71{fill:#F4C764;}
</style>
<g>
	<g>
		<path class="st0" d="M241.8,337c-12.5,0-24.9,0-37.4,0c-0.4-1.4-0.2-2.7,0.5-4c4-4.3,2.7-9.7,2.7-14.7c0.1-66.6,0-133.2,0.1-199.8
			c0.5-4.3-0.9-7.8-4.9-10c-2-1.2-4-1.2-6.1-0.1c-4.1,2.1-4.9,5.8-4.5,9.9c0.1,66.5,0,132.9,0.1,199.4c0,5.1-0.7,10.3,1.4,15.1
			c0.3,1.4,0.2,2.8-0.3,4.1c-11.7,0-23.4,0-35.2,0c-0.4-1.4-0.2-2.7,0.5-4c4-4.3,2.7-9.7,2.7-14.7c0.1-66.6,0-133.3,0.1-199.8
			c0.5-4.4-0.9-7.8-5-10c-2-1.2-4.1-1.1-6.2-0.1c-5.9,1.9-4.4,6.8-4.4,11.1c0.7,66.4-3.7,132.6-2.1,198.9c0.1,5-1.2,10.3,2.8,14.6
			c0.7,1.3,0.9,2.6,0.5,4c-10.3,0-20.5,0-30.8,0c-0.7-1.3-0.8-2.6-0.3-3.9c1.7-3,1.4-6.4,1.4-9.7c0-67.7,0-135.5,0-203.2
			c0-2.6,0.2-5.1-0.9-7.5c-1.3-1.9-2.7-3.8-3.8-5.8c-1.3-2.4-3.1-4.6-3.4-7.6c-0.7,2.3-1.3,4.5-2.9,6.1c-2.5,2.7-4.8,5.6-5.8,9.2
			c-0.4,1.1-0.7,2.3-0.8,3.5c-0.4,40-0.1,80.1-0.1,120.1c-0.1,19.9,0,39.7,0,59.6c0.2,8.6-0.1,17.2,0.1,25.9c0.1,3.6-0.2,7.3,3,9.9
			c0.7,1.1,0.9,2.2,0.5,3.5c-11.7,0-23.4,0-35.2,0c-0.7-1.3-0.6-2.6,0.1-3.9c3.9-5.9,2.9-12.7,2.9-19.1
			c-0.1-65.3,0.3-130.6,0.2-195.9c0.5-4.8-2-8.4-4.5-12.1c-1.7-2.6-4.1-4.8-4.5-8c0.1-1.1,0.5-2,1.2-2.7c107.7,0,215.4,0,323.1,0
			c15.4,0,15.4,0,15.4,15.4c-1,1.2-2.3,1.4-3.8,1.1c-2.1-0.9-3.7-2.6-5.7-3.6c-1.9-1.4-3.9-1-5.7,0.2c-5.7,2.2-5.3,7.3-5.6,12
			c-0.1,66.5,0,133-0.1,199.4c0,4.8,0.2,9.5,3.6,13.3c0.6,1.4,0.5,2.7-0.2,3.9c-12.5,0-24.9,0-37.4,0c-0.4-1.4-0.2-2.7,0.5-4
			c4-4.3,2.7-9.7,2.7-14.7c0.1-66.7,0-133.3,0.1-199.9c0.5-4.5-1.2-7.9-5.3-10c-1.6-0.8-3.3-1.4-5.2-1.2c-5.8,1.5-5.2,6.2-5.1,10.6
			c0.3,38.7,1.3,77.5-0.3,116.1c-1.1,27-1.3,54-1.5,80.9c-0.1,6.2-0.5,12.5,2.8,18.2c0.6,1.3,0.7,2.6,0.3,4c-13.2,0-26.4,0-39.6,0
			c-0.5-2.4,0.9-3.8,2.5-5.2c3.9-2.9,3-7.2,3-11.1c0-67.9,0.2-135.8-0.1-203.7c-0.9-3.3-1-7.2-5.2-8.6c-7.7-0.9-10.3,3.2-10.2,10.1
			c0.1,66.7,0,133.4,0.1,200c0,5-1.2,10.4,3.1,14.5c0.8,1.3,0.9,2.6,0.2,3.9c-12.5,0-24.9,0-37.4,0c-0.5-1.3-0.5-2.6-0.1-3.9
			c3-15.4,0.8-30.9,1.4-46.4c0.3-9-0.2-18.1,0.3-27.1c3.8-21.6,0.8-43.4,1.9-65.1c0.1-24.4,0.3-48.8-0.1-73.2
			c-0.2-1.1-0.4-2.2-0.6-3.3c0.1-3.9-0.2-7.6-4.2-9.8c-0.8-0.5-1.5-1.1-2.2-1.7c-1.8-1.4-3.3-0.4-4.7,0.8c-4.9,2.9-5.9,7.6-5.9,12.7
			c0,66.1,0,132.2,0,198.4c0,5-1.2,10.3,2.8,14.6C242,334.3,242.1,335.6,241.8,337z"/>
		<path class="st0" d="M63.7,95.2c0,0.8,0,1.6-0.1,2.4c-0.9,2.3-2.1,4.5-3.6,6.5c-2.7,4.1-5.4,8.1-5.7,13.2
			c-0.7,69.3-0.5,138.5-0.5,207.7c0,3,0.1,5.9,2.6,8.1c0.8,1.2,1,2.5,0.7,3.9c-11.7,0-23.4,0-35.2,0c-0.8-1.2-0.9-2.5-0.6-3.9
			c2.2-4.1,1.7-8.5,1.7-12.9c0-24.4,0.5-48.9-0.1-73.3c-1-37.2,3.2-74.3,2.2-111.5c-0.2-6.6,0.1-13.1-0.9-19.6
			c-0.7-3.4-2.2-6.4-4.7-8.7c-1-1.3-1.6-2.8-2-4.3c-0.5-2.5-1.4-5,0.1-7.5C33,95.2,48.4,95.2,63.7,95.2z"/>
		<path class="st1" d="M384.6,337c0-0.7,0-1.3-0.1-2c-2.9-4.5-3.2-9.5-3.2-14.7c0.1-63.2,0-126.3,0.1-189.5c0-4.7-0.1-9.5,1.7-14.1
			c0.5-1.4,1.4-2.5,2.8-3.2c2.8-1.2,5.7-1.2,8.5,0c1.4,0.7,2.2,1.8,2.4,3.4c-0.1,68.1,0,136.2,0,204.3c0,5.4,0.9,11.1-3.3,15.7
			C390.5,337,387.5,337,384.6,337z"/>
		<path class="st2" d="M290.1,337c0-0.7-0.1-1.3-0.1-2c-3.3-4-3.2-8.8-3.2-13.5c0-64.5,0-129,0-193.5c0-4.4-0.3-8.8,2.3-12.7
			c3.3-2.9,6.7-2.8,10.2-0.2c3.3,4.1,2.8,8.9,2.8,13.7c0,64.1,0,128.2,0,192.3c0,4.7,0.5,9.6-3.2,13.5c-0.7,0.8-1.5,1.7-2.2,2.5
			C294.5,337,292.3,337,290.1,337z"/>
		<path class="st3" d="M8.8,337c-0.7,0-1.5,0-2.2,0c-6.5-10-1.9-21.1-3.3-31.6c0-21,0-41.9,0-62.9c0-21.1,0-42.3,0-63.4
			c0.1-20.9-0.2-41.8,0.1-62.7c3.1-6.1,6.2-4.8,9.4-0.1c1.9,4.5,1.6,9.3,1.6,14.1c0,63,0,126,0,189c0,4.4,0.2,8.8-1.3,13.1
			C12.4,334.5,10.7,335.8,8.8,337z"/>
		<path class="st4" d="M393.4,337c0-69.3,0-138.6,0-207.9c0-4.7-0.8-9.5,2.2-13.8c2-1.5,3.8-1.7,5.2,0.7c0.4,23.1,0.1,46.3,0.2,69.4
			c0,46.1,0,92.3,0,138.4c0,5.2,0.3,10.4-5.5,13.1C394.9,337,394.1,337,393.4,337z"/>
		<path class="st5" d="M395.6,337c3.4-4,4.5-8.4,4.5-13.8c-0.1-46,0.1-91.9,0.3-137.9c0.6-1,1.2-1,1.8,0c0,48.4-0.1,96.7,0.1,145.1
			C402.4,335.9,401.1,338.1,395.6,337z"/>
		<path class="st6" d="M5.4,114.4c-2.5,21.4,0.1,42.9-1.4,64.4c-0.6,1-1.2,1-1.8,0c0-23.4,0.8-46.9-0.3-70.3
			C1.3,97,4.1,92.7,15.4,95.2c1,2,0.6,4-0.3,5.9c-0.4,0.9-1,1.8-1.6,2.6C11,107.3,7.4,110.2,5.4,114.4z"/>
		<path class="st7" d="M402.2,185.3l-0.9,0l-0.9,0c-0.2-23.7-0.4-47.3-0.6-71c-1.7-0.8-3.8-1.5-1.3-3.8c1.2,0,2.5,0.1,3.7,0.1
			C402.2,135.5,402.2,160.4,402.2,185.3z"/>
		<path class="st8" d="M4,242.4c0,21.2,0,42.5,0,63.7c-0.6,1-1.2,1-1.9,0c0-21.2,0-42.5,0-63.7C2.8,241.5,3.4,241.4,4,242.4z"/>
		<path class="st9" d="M4,242.4l-0.9,0l-0.9,0c0-21.2,0-42.5,0-63.7c0.6,0,1.2,0,1.8,0C4,200,4,221.2,4,242.4z"/>
		<path class="st10" d="M2.2,306.2c0.6,0,1.2,0,1.9,0C5.6,316.4,2.5,327,6.6,337c-2.2-0.2-4.8,1.2-4.5-3.3
			C2.5,324.5,2.2,315.3,2.2,306.2z"/>
		<path class="st11" d="M13.1,101.4c0.8-2.1,1.5-4.1,2.3-6.2c0.7,0,1.5,0,2.2,0c0.8,2.1,1.5,4.2,2.3,6.3
			C17.6,102.8,15.3,102.6,13.1,101.4z"/>
		<path class="st12" d="M8.8,337c0.7-0.9,1.4-1.7,2.1-2.6c2.6-1.9,5.4-2.4,8.4-1.5c1.2,0.4,2.1,1.1,2.7,2.2c0,0.6-0.1,1.2,0,1.9
			C17.6,337,13.2,337,8.8,337z"/>
		<path class="st13" d="M103.3,337c-0.1-0.6-0.1-1.2,0-1.8c0.3-0.5,0.6-0.9,1-1.4c3.1-1.8,6.4-1.8,9.7-0.9c1.1,0.4,1.9,1.1,2.5,2.1
			c-0.1,0.6-0.1,1.3,0,1.9C112.1,337,107.7,337,103.3,337z"/>
		<path class="st14" d="M57.1,337c-0.1-0.6,0-1.2,0.1-1.8c0.3-0.4,0.6-0.9,1-1.3c2.5-1.5,5.1-1.6,7.8-0.8c1,0.4,1.8,1.1,2.4,2.1
			c0,0.6-0.1,1.2-0.2,1.8C64.5,337,60.8,337,57.1,337z"/>
		<path class="st15" d="M158.2,335.1c0.1,0.6,0.1,1.2,0.1,1.8c-3.7,0-7.3,0-11,0c0-0.6,0-1.2,0.1-1.9c0.3-0.4,0.6-0.8,0.9-1.3
			c3-1.7,6-1.7,9,0C157.5,334.3,157.9,334.7,158.2,335.1z"/>
		<path class="st16" d="M193.4,337c0-0.6,0-1.2,0.1-1.8c0.3-0.4,0.6-0.8,0.9-1.3c3-1.7,6-1.7,9,0c0.3,0.4,0.6,0.9,0.9,1.3
			c0.1,0.6,0.1,1.2,0.1,1.8C200.7,337,197.1,337,193.4,337z"/>
		<path class="st17" d="M241.8,337c-0.1-0.6,0-1.2,0.1-1.8c0.3-0.4,0.6-0.9,0.9-1.3c3-1.7,6-1.7,9-0.1c0.3,0.4,0.6,0.9,0.9,1.3
			c0.1,0.6,0.1,1.2,0.1,1.8C249.1,337,245.4,337,241.8,337z"/>
		<path class="st18" d="M347.2,335.1c0.1,0.6,0.1,1.2,0.1,1.8c-3.7,0-7.3,0-11,0c0-0.6,0-1.2,0.1-1.8c0.3-0.4,0.6-0.9,0.9-1.3
			c3-1.7,6-1.7,9,0C346.6,334.3,346.9,334.7,347.2,335.1z"/>
		<path class="st19" d="M68.3,335.1c-0.7-0.3-1.5-0.5-2.2-0.8c-3.3-3-3.5-7.1-3.6-11.1c-1.3-68.6,1.7-137.2,2.7-205.8
			c0.3-1.4,0.9-2.7,1.6-3.9c2.3-2.6,4.8-2.4,7.5-0.6c0.1,47.1,0.3,94.2,0.4,141.2c0.1,23.7,0,47.5,0,71.2
			C74.7,330,75.8,335.3,68.3,335.1z"/>
		<path class="st20" d="M336.4,335.1c-6.8-0.4-6.7-5.2-6.7-10.2c0.8-70.5,1.6-140.9,2.3-211.4c3.3-1.5,5.3,0.3,7.2,2.6
			c2.7,4.3,2.7,9.1,2.7,13.8c0.1,63,0.1,125.9,0,188.9c0,5.7,1,12.1-5.7,15.4L336.4,335.1z"/>
		<path class="st21" d="M147.3,335.1c-5.1-0.2-6.7-3-6.7-7.9c0.1-42.1-1.4-84.3,0.6-126.3c1.4-28.9-0.2-57.7,1.6-86.5
			c2.6-1.6,5.1-1.4,7.5,0.6c0.8,1.1,1.4,2.4,1.8,3.8c1.1,44.5,2.2,88.9-0.7,133.3c-1.4,21.9-0.2,43.8-0.7,65.6
			c-0.1,5.7,1,11.8-3.6,16.6L147.3,335.1z"/>
		<path class="st22" d="M116.5,335c-0.7-0.2-1.4-0.4-2.1-0.7c-3.5-3.4-3.6-7.9-3.6-12.2c0-68.2-0.4-136.5,0.2-204.7
			c0.1-1.4,0.3-2.8,0.6-4.3c0.9-2.7,1.6-5.7,5.5-5.1c4.1,2.5,4,6.4,4,10.6c-0.1,69.1-0.1,138.2-0.3,207.3
			C120.8,329.2,123.2,334.4,116.5,335z"/>
		<path class="st23" d="M353.5,113.3c0.1,70.9,0.2,141.8,0.4,212.7c0,5-0.9,8.7-6.7,9.1l0.2-0.8c-4.3-2-3.7-5.9-3.7-9.5
			c0.3-66.1-0.1-132.3,0.2-198.4c0-2.9,0.2-5.8,0.9-8.7c0.6-2.1,1.6-3.8,3.4-5.1C350.1,111.4,351.9,111.3,353.5,113.3z"/>
		<path class="st24" d="M210.7,113.3c0.1,70.9,0.2,141.9,0.4,212.8c0,5-0.9,8.7-6.8,9c0,0,0.3-0.8,0.3-0.8
			c-3.8-3.7-3.6-8.6-3.6-13.3c0.1-66.1-0.4-132.3,0.2-198.4c0.3-2,0.5-4,1.1-6c0.7-1.9,1.8-3.4,3.6-4.5
			C207.7,111.4,209.5,111.2,210.7,113.3z"/>
		<path class="st21" d="M164.5,113.2c0.1,71.3,0.2,142.7,0.4,214c0,4.9-1.7,7.6-6.7,7.9c0,0,0.2-0.8,0.2-0.8
			c-3.5-3.4-3.6-7.9-3.6-12.3c-0.1-65.5-0.2-131,0-196.6c0-2.6,0.2-5.1,0.9-7.6c0.6-2.1,1.6-3.9,3.3-5.3
			C161,111.4,162.8,111.3,164.5,113.2z"/>
		<path class="st25" d="M298.9,334.4c0-73,0-145.9,0-218.9c0.1-0.4,0.3-0.9,0.4-1.3c1.4-1.4,3.1-1.7,5-1.5c1.8,3,1.2,6.4,1.2,9.6
			c0,67.2,0,134.3-0.1,201.5C305.4,328.4,307.7,335,298.9,334.4z"/>
		<path class="st26" d="M290.2,115.4c-0.1,73.2-0.2,146.4-0.3,219.6c-6-0.2-6.6-4.1-6.6-9c0.2-70.8,0.2-141.7,0.3-212.5
			C286.6,111.6,288.7,112.8,290.2,115.4z"/>
		<path class="st4" d="M384.5,115.4c0,18.1,0.1,36.3,0.1,54.4c0,55.1-0.1,110.2-0.1,165.2c-3.9-1.9-6.7-3.6-6.7-9.3
			c0.3-68.2,0.2-136.5,0.2-204.7c0-2.4-0.7-5.2,2.1-6.8C381.9,113.5,383.4,113.8,384.5,115.4z"/>
		<path class="st27" d="M193.5,335.1c-4.2-1.5-4.8-4.7-4.8-8.7c0.2-71,0.4-142,0.6-213c2.4-1.5,4.5-0.7,6.6,0.7c0.9,0.9,1.5,2,2,3.2
			c0.6,1.9,0.8,3.9,1.1,5.9c0.6,65.6,0.2,131.3,0.2,196.9c0,5.3,0.5,11.2-5.7,14.3L193.5,335.1z"/>
		<path class="st28" d="M241.8,335.2c-7.8-0.3-6.7-6.1-6.7-11.1c0-47.2,0-94.5,0.1-141.7c0-19.4-0.1-38.8,0.1-58.2
			c0-3.5-1.3-7.4,2.1-10.3c2.3-0.5,4.2-0.1,5.7,1.9c3.7,12.6,1.1,25.4,1.8,38.1c0.4,6.9-0.2,13.9,0.4,20.8
			c0.3,48.4,0.1,96.8,0.1,145.2c0,5,0.5,10.3-3.7,14.3L241.8,335.2z"/>
		<path class="st29" d="M103.3,335.2c-5,0.2-7-1.8-6.7-7.2c0.6-9.5,0.4-19,0.5-28.5c1.8-20.7,0.3-41.4,0.8-62.1
			c0-37.6,0-75.2,0-112.8c0-4-0.9-8,0.9-11.9l0.1,0c4.2-1,6.8,0.9,8.6,4.5c2,5.3,1.5,10.8,1.5,16.3c0,46.1,0.2,92.2-0.1,138.3
			c-0.1,17.5-2.9,35-2.3,52.6c0.1,3.7-0.5,7.3-3.5,10.1L103.3,335.2z"/>
		<path class="st30" d="M259,194c-0.3,22,2.7,44.1-1.8,66c-2.7,20.3-0.4,40.8-1.2,61.2c-0.2,3.9,1.4,8.1-1.5,11.6
			c-1.6,0.1-2.7-0.5-3.4-1.9c-2.1-5.3-1.4-10.8-1.4-16.2c-0.1-57.2,0-114.4-0.1-171.7c-0.2-8-0.4-16,0.5-24.1
			c0.3-1.3,0.8-2.5,1.6-3.6c1.5-1.6,3.4-1.9,5.4-1.2c0.1,0.9,0.1,1.7,0.2,2.6c2,20.3,0.3,40.7,0.9,61
			C258.4,183.2,257.4,188.7,259,194z"/>
		<path class="st31" d="M98.8,112.7c0,41.7,0,83.5,0.1,125.2c-0.5,1.1-1.1,1.1-1.8,0.2c0-39.8,0-79.6,0-119.5
			C97,116.6,96.6,114.2,98.8,112.7z"/>
		<path class="st32" d="M252.7,332.6c3.4-2.8,2.2-6.7,2.2-10.2c0.1-17.4,0-34.8,0.1-52.2c0-3.5-1.2-7.4,2.2-10.2
			c0.1,22.8,0.3,45.6,0.5,68.5c0,3.7-0.5,6.5-5,6.6c0,0,0.2-0.8,0.2-0.8c-0.6-0.3-0.8-0.7-0.6-1.1
			C252.4,332.8,252.6,332.6,252.7,332.6z"/>
		<path class="st32" d="M259,194c-3.7-6.9-1.6-14.3-1.7-21.4c-0.3-18.6,0-37.3,0.1-55.9c2.7,1.7,2,4.4,2,6.8
			C259.2,147,259.1,170.5,259,194z"/>
		<path class="st33" d="M97,238.1c0.6-0.1,1.2-0.2,1.8-0.2c0,17.1,0.1,34.1,0,51.2c0,3.5,1.1,7.3-1.8,10.4C97,279,97,258.6,97,238.1
			z"/>
		<path class="st34" d="M290.2,115.4c-2.2-0.7-4.4-1.3-6.5-2c2.2-6.2,5.3-10.9,13-7.3c3.4,2.1,5.1,4.7,2.2,8.5c0,0,0,0.9,0,0.9
			C296,115.5,293.1,115.5,290.2,115.4z"/>
		<path class="st35" d="M241.8,115.3c-1.5-0.5-2.9-1-4.4-1.5c-1.6-5.8,2.3-7.3,6.6-8.6c2.2-1.2,4.4-1.2,6.6,0l0.1,0.9
			c2.3,3,2.2,6.1,0.2,9.2C247.9,117.7,244.8,117.5,241.8,115.3z"/>
		<path class="st36" d="M160.8,113.3c-0.8,0.7-1.6,1.4-2.5,2.1c-3,2.1-6.1,2.1-9.1,0l0.2-0.7c-3.4-4-0.3-6.5,2.1-9.1
			c1.6-2.3,3.2-2.4,4.6,0.2C157.8,108.3,160.5,110,160.8,113.3z"/>
		<path class="st37" d="M349.8,113.4c-0.8,0.7-1.7,1.4-2.5,2c-2.8,1.9-5.7,2.3-8.6,0.3c-3.6-4.4-1.9-7.9,2-11c1.8-0.9,3.4-1,4.5,1.2
			C346.9,108.3,349,110.4,349.8,113.4z"/>
		<path class="st38" d="M105.4,115.2c-2.2-0.8-4.3-1.7-6.5-2.5c-0.3-4.6,3.3-6.4,6.1-8.9c2-0.9,3.9-1.7,6.1-0.9
			c0.9,0.5,1.5,1.3,1.8,2.3c-1.7,3.4-5.2,5.5-6.4,9.2C106.1,114.6,105.7,114.9,105.4,115.2z"/>
		<path class="st39" d="M207.1,113.4c-0.9,0.7-1.8,1.5-2.8,2.2c-3,2-5.9,1.8-8.9,0l0.1-0.9c-1.8-3.6,0.1-6.4,2.1-9.2
			c1.7-2.2,3.2-2.3,4.5,0.4C204.1,108.4,206.3,110.4,207.1,113.4z"/>
		<path class="st40" d="M393.4,114.8c-2.2,0-4.5,0.1-6.7,0.1c-2.3-3.1-2.4-6.1,0.4-8.9c2.1-2.3,4.1-1,6.1,0.1
			C395.8,109,395.8,111.8,393.4,114.8z"/>
		<path class="st41" d="M340.6,104.7c-0.7,3.3-1.4,6.6-2.1,10c-0.5,1.1-1.3,1.3-2.2,0.5c-1.4-0.6-2.9-1.1-4.3-1.7
			C332.3,108.1,334.8,104.8,340.6,104.7z"/>
		<path class="st42" d="M74.3,112.9c-2.1,0-4.2,0-6.3,0c-4.9-0.3-5.9-4.1-7.1-7.8c1.9-3.4,4.4-2.9,7-1
			C70.6,106.7,73.3,109.1,74.3,112.9z"/>
		<path class="st43" d="M387.2,106c-0.1,3-0.3,5.9-0.4,8.9c-0.7,0.2-1.5,0.3-2.2,0.5c-1.5-0.4-2.9-0.8-4.4-1.2
			C378.2,107.7,382.1,106.3,387.2,106z"/>
		<path class="st44" d="M250.7,114.7c0-2.8,0-5.7,0-8.5c5.2,0.2,8.2,2.2,6.4,8c-1.5,0.4-2.9,0.8-4.4,1.2
			C251.8,115.8,251.1,115.6,250.7,114.7z"/>
		<path class="st45" d="M197.7,105.6c0.4,3.3-0.4,6.3-2.1,9.2c-2.1-0.5-4.3-0.9-6.4-1.4C189.7,108.3,192.5,105.6,197.7,105.6z"/>
		<path class="st46" d="M151.6,105.6c-0.7,3-1.4,6.1-2.1,9.1c-2.2-0.1-4.4-0.2-6.7-0.3C142.5,108.2,145.5,105.5,151.6,105.6z"/>
		<path class="st47" d="M393.4,114.8c-0.1-2.9-0.1-5.8-0.2-8.7c3.9-1.1,4.5,1.7,5.2,4.4c0.4,1.3,0.9,2.5,1.3,3.8
			c-1.4,0.3-2.8,0.6-4.2,1C394.9,115.1,394.2,114.9,393.4,114.8z"/>
		<path class="st48" d="M349.8,113.4c-4.6-0.6-4.9-3.9-4.7-7.5c4.9,0.1,7.3,3,8.4,7.4C352.2,113.3,351,113.4,349.8,113.4z"/>
		<path class="st49" d="M207.1,113.4c-4.5-0.6-5.1-3.7-4.9-7.4c4.8,0.2,7.4,2.9,8.5,7.3C209.5,113.4,208.3,113.4,207.1,113.4z"/>
		<path class="st50" d="M299,114.7c-0.7-2.8-1.5-5.7-2.2-8.5c5.5-1.2,6.8,2.4,7.7,6.5C303.1,114.7,301.1,114.9,299,114.7z"/>
		<path class="st51" d="M68,104.1c-2.4,0-4.9-0.3-6.6,1.8c-0.8,0.7-1.7,0.8-2.6,0.3c-0.6-1.5-0.8-2.9,0.6-4.1c1-2,1.7-4.1,4.3-4.5
			C65.1,99.8,66.6,101.9,68,104.1z"/>
		<path class="st52" d="M160.8,113.3c-3.2-1.5-4.8-3.9-4.7-7.5c5,0,7.1,3.1,8.3,7.4C163.3,113.3,162,113.3,160.8,113.3z"/>
		<path class="st53" d="M250.6,105.3c-2.2,0-4.4,0-6.6,0c-0.5-2.8,1.1-5.5,3.3-5.5C249.5,99.8,251.1,102.4,250.6,105.3z"/>
		<path class="st54" d="M112.1,104.1c-2.4-0.1-4.7-0.2-7.1-0.3c3.1-7.6,6.1-7.5,9,0.2C113.4,105.1,112.8,105.1,112.1,104.1z"/>
		<path class="st55" d="M112.1,104.1c0.6,0,1.3-0.1,1.9-0.1c1,1.4,2.1,2.7,3.1,4.1c-2.1,1-2.7,2.8-2.9,4.9c-4.7-0.8-3.8-3.5-2.2-6.5
			C112,105.6,112,104.8,112.1,104.1z"/>
		<path class="st19" d="M57.2,335.1c-3.9-0.1-6.8-0.6-6.8-6c0.2-71.3,0.2-142.6,0.3-214c0-1,0.9-1.9,1.3-2.9c4.2-1.7,7,0.2,9,3.8
			c1.1,2.4,1.6,4.9,1.6,7.5c-0.1,36.9,1.1,73.8-1.4,110.8c-1.8,27.7-0.3,55.6-0.7,83.4c-0.1,5.7,1,11.9-3.7,16.6L57.2,335.1z"/>
		<path class="st56" d="M22,335.1c-0.7-0.3-1.4-0.5-2.1-0.8c-4.1-4.1-3.6-9.4-3.6-14.5c-0.1-63-0.1-125.9,0-188.9
			c0-4.8,0.1-9.5,2.1-14c1.9-2.8,3.2-6.4,7.6-5.7c1.7,4,2.7,8,2.6,12.5c-0.7,67.2-1.3,134.4-1.9,201.6
			C26.7,329.4,27.2,333.6,22,335.1z"/>
		<path class="st57" d="M59.2,115.2c-2.4-1-4.7-2-7.1-2.9c1.4-4.1,4.3-7.2,7.3-10.2c0,1.4,0,2.8,0,4.2c2.1,2.3,2.4,4.9,1,7.8
			C60,114.4,59.6,114.8,59.2,115.2z"/>
		<path class="st58" d="M26,111.2c-1.4,1.3-2.7,2.6-4.1,3.9c-0.8,0.7-1.7,0.8-2.6,0.2c-1.7-2.2-1.8-4.6-1.3-7.2
			c0.3-1,0.9-1.8,1.6-2.5C23.3,105.8,25.8,107.2,26,111.2z"/>
		<path class="st59" d="M13.1,101.4c2.3-2,4.6-2.2,6.8,0.2c-0.1,1.4-0.1,2.7-0.2,4.1c0,0,0,0.4,0,0.4c-1.1,1.4-2.5,1.6-4.1,1.2
			c-2-1.1-3.2-2.6-2.7-5L13.1,101.4z"/>
		<path class="st60" d="M19.9,114.7c0.7,0.1,1.3,0.3,2,0.4c-2.2,3.6-2.1,7.6-2.1,11.7c0.1,69.2,0.1,138.4,0.1,207.5c-3,0-6,0-9,0.1
			c0-73.1,0.1-146.2,0.1-219.3c0.7-0.9,1.6-1.5,2.7-1.9C16,112.7,18.1,113.3,19.9,114.7z"/>
		<path class="st61" d="M13.2,114.8c-0.7,0.1-1.5,0.2-2.2,0.3c-1.7-1.5-3.7-1.2-5.6-0.7c-0.2-5.8,2.5-9.7,7.5-12.2
			c1,1.2,2,2.3,2.9,3.5C16.1,109,15.8,112.2,13.2,114.8z"/>
		<path class="st62" d="M103.1,334.3c2.9-73,2.5-146.1,2.2-219.2c0,0,0.3-0.3,0.3-0.3c2.8-2.3,5.6-1.8,8.5-0.1
			c0.1,73.2,0.2,146.4,0.3,219.7C110.6,334.3,106.9,334.3,103.1,334.3z"/>
		<path class="st63" d="M56.9,334.3c-0.8-73,3.9-146,2.2-219.1c0,0,0.2-0.3,0.2-0.3c2.8-2.3,5.6-2,8.5-0.2
			c1.3,68.5-3.7,136.9-1.9,205.4c0.1,4.7,0.1,9.5,0.1,14.2C63.1,334.3,60,334.3,56.9,334.3z"/>
		<path class="st64" d="M149.2,115.4c3,0,6.1,0,9.1,0c0,73,0,146,0,219c-3.7,0-7.5,0-11.2,0C147.1,261.4,150.8,188.4,149.2,115.4z"
			/>
		<path class="st65" d="M193.3,334.4c3.2-4.2,2.2-9.1,2.3-13.7c0.1-67.1,0.1-134.2,0.1-201.3c2.9-2.3,5.8-2.4,8.7,0
			c0.1,71.7,0.1,143.3,0.2,215C200.8,334.4,197.1,334.4,193.3,334.4z"/>
		<path class="st66" d="M252.7,332.6c0,0.6,0.1,1.1,0.2,1.7c-3.8,0-7.6,0-11.3,0c0.1-53.3,0.1-106.6,0.2-159.9c2.4-16,0.6-32,1.1-48
			c0.2-6.7,0.9-12.2,9.9-9.1c0,8,0,16,0,24c-1.6,2.3-1.1,4.9-1.1,7.4c0,58.8,0,117.6,0,176.4C251.6,327.7,251.1,330.3,252.7,332.6
			L252.7,332.6z"/>
		<path class="st67" d="M336.3,115.2c0.7-0.2,1.5-0.4,2.2-0.5c2.9,0.2,5.8,0.5,8.7,0.7c0,67.2-0.1,134.5,0.1,201.7
			c0,5.7-2.1,11.5-0.1,17.2c-3.7,0-7.4,0-11.1,0c2.9-3.8,2.2-8.3,2.2-12.7c0-64.6,0-129.2,0-193.7
			C338.5,123.6,338.9,119.1,336.3,115.2z"/>
		<path class="st68" d="M67.9,114.8c-2.8,0.1-5.7,0.1-8.5,0.2c0-2.9,0-5.7,0-8.6c0.7-0.1,1.4-0.2,2.1-0.4c4.8-0.2,3.9,5.1,6.6,7
			C68.1,113.5,68,114.1,67.9,114.8z"/>
		<path class="st69" d="M114.1,114.7c-2.8,0-5.6,0.1-8.5,0.1c-0.1-4.5-0.9-9.5,6.4-8.5c0.2,2.3-0.1,4.9,2.2,6.5
			C114.2,113.5,114.1,114.1,114.1,114.7z"/>
		<path class="st70" d="M204.3,119.4c-2.9,0-5.8,0-8.7,0c0-1.2-0.1-2.5-0.1-3.7c3,0,5.9,0,8.9,0
			C204.3,116.9,204.3,118.1,204.3,119.4z"/>
		<path class="st32" d="M252.7,117.3c-6.7-0.7-8.9,2.8-8.8,9.1c0.2,12.6,0.1,25.3,0,37.9c0,3.5,1.1,7.3-2.1,10.2
			c0-19.7,0-39.4,0-59.1c3-0.2,6-0.4,8.9-0.7c0.7,0.3,1.4,0.5,2.1,0.7C252.7,116,252.7,116.6,252.7,117.3z"/>
		<path class="st32" d="M252.7,332.6c-3.3-2.9-2.1-6.8-2.1-10.3c-0.1-56.9-0.1-113.8,0-170.7c0-3.5-1.1-7.4,2.1-10.3
			C252.7,205.1,252.7,268.8,252.7,332.6z"/>
		<path class="st71" d="M13.2,114.8c0-3.3-0.8-6.8,2.7-9.1c1.3,0.1,2.5,0.2,3.8,0.4c0.1,2.9,0.2,5.8,0.3,8.7
			C17.7,114.7,15.4,114.7,13.2,114.8z"/>
	</g>
</g>
</svg>
