<?xml version="1.0" encoding="utf-8"?>
<!-- Generator: Adobe Illustrator 22.1.0, SVG Export Plug-In . SVG Version: 6.00 Build 0)  -->
<svg version="1.1" id="Lag_1" xmlns="http://www.w3.org/2000/svg" xmlns:xlink="http://www.w3.org/1999/xlink" x="0px" y="0px"
	 viewBox="0 0 400 400" style="enable-background:new 0 0 400 400;" xml:space="preserve">
<style type="text/css">
	.st0{fill:#D74127;}
	.st1{fill:#C87465;}
	.st2{fill:#F3EDED;}
	.st3{fill:#F5F2F1;}
	.st4{fill:#D66150;}
	.st5{fill:#C97869;}
	.st6{fill:#FEFDFD;}
	.st7{fill:#D43318;}
	.st8{fill:#E7462B;}
	.st9{fill:#D43016;}
	.st10{fill:#EA492B;}
	.st11{fill:#D43317;}
	.st12{fill:#D53718;}
	.st13{fill:#D63B20;}
	.st14{fill:#EB4B2D;}
	.st15{fill:#EF492B;}
	.st16{fill:#D32E12;}
	.st17{fill:#D5381C;}
	.st18{fill:#D73F25;}
	.st19{fill:#FEFEFE;}
	.st20{fill:#D63A20;}
	.st21{fill:#D63C22;}
	.st22{fill:#D63C23;}
	.st23{fill:#D63B21;}
</style>
<g>
	<g>
		<path class="st0" d="M396,18c0,2,0,4,0,6c-2.4,11.1-8.8,16.7-20.6,17.1c-8.7,0.3-16.2,5.3-23,10.6c-2.2,2-4,4.2-4.7,7.2
			c-7.4,14.5-4.4,30-4.8,45.2c-0.1,4.2,1.8,5.4,6.3,5c12.6-0.9,16.7,3.1,17.3,15.8c0.3,6.3,0.4,12.7-0.3,18.9
			c-1,9.3-6.2,14.3-15.3,12.7c-8.1-1.4-8.2,2.7-8.2,8.2c0,24.6,0,49.2,0,73.9c0,3.7,0.1,7.3-0.3,11c-1,10.5-5.4,13.2-15.4,8.9
			c-1.9-0.8-3.7-1.6-5.7-1.4c-2.3,0.5-3.4,2.1-4,4.2c-1.1,5.6-0.9,11.3-0.5,16.9c0.5,6.4,3.1,9.6,10.5,7.5
			c10.1-2.8,14.3,0.6,15,10.9c1.1,15.8-1.6,32,3.6,47.5c0.4,5.2,3.3,8.6,7.9,10.7c6.1,4.3,12.7,7.1,20.1,8.2
			c18,2.8,18.7,3.5,21.9,20.9c0,1.3,0,2.7,0,4c-2.1,6.6-3.1,14.2-13,13c-5.4,0-10.8,0-16.3,0c-5.3,0.3-10.5-0.5-15.6-1.8
			c-5.1-5.2-12.2-6.3-18.5-9.3c-3.7-2.3-7.7-4.5-10-8.1c-6.3-9.6-15.5-11.1-26.1-11.1c-80.8,0.2-161.7,0.2-242.5,0
			c-6.9,0-13.9,0.3-20.6-2.7C17.3,360.9,7.8,349.5,9,331c0-85.9,0-171.7,0-257.6c0.9-25.3,15.9-39.9,42.3-40c80-0.3,160-0.4,240,0.1
			c15.1,0.1,27.1-3.1,37-15C338.6,6,353.3,3,368.8,3c4,0,8,0,12,0C391.5,2.3,394.5,9.4,396,18z"/>
		<path class="st1" d="M9.8,332.6c-0.6-0.2-1.2-0.4-1.8-0.6c0-86.7,0-173.3,0-260c0.7,0,1.4-0.1,2-0.1C10,158.8,9.9,245.7,9.8,332.6
			z"/>
		<path class="st2" d="M396,18c-3.3-5.9-5.7-12.7-13.5-14.2C380.7,3.6,380.6,3,382,2C396,2,396,2,396,18z"/>
		<path class="st3" d="M384.3,400.2c6.3-1.7,7.9-8,11.7-12.2c0,0.7-0.1,1.4,0,2c2.2,10.3-1.8,14.3-12,12
			C382.5,401.1,382.6,400.5,384.3,400.2z"/>
		<path class="st4" d="M384.3,400.2c0,0.6-0.1,1.2-0.3,1.8c-6,0-12,0-18,0c-0.3-0.5-0.4-1.1-0.5-1.8
			C371.8,400.2,378.1,400.2,384.3,400.2z"/>
		<path class="st5" d="M382,2c0.3,0.6,0.5,1.2,0.5,1.8c-4.3,0-8.7,0.1-13,0.1c0.2-0.6,0.3-1.3,0.5-1.9C374,2,378,2,382,2z"/>
		<path class="st6" d="M90.2,237.9C85,221.7,81.6,205.2,84,188l0,0c2.9-9.8,5.7-19.6,10.5-28.8c23-44.8,85.4-62.8,132.1-27.8
			c26.8,20.2,38.7,49.8,33.4,83.7c-5.7,36.3-27,61.3-62.4,71.9c-34.8,10.4-65.7,1-91.2-24.5C99.6,255.7,95.5,246.1,90.2,237.9
			L90.2,237.9z"/>
		<path class="st7" d="M262.6,211.9c0-6.5,0-13,0-19.5c0.3,0,0.5,0,0.8-0.1c0,6.4,0,12.8,0,19.2
			C263.1,211.7,262.8,211.8,262.6,211.9z"/>
		<path class="st8" d="M351.9,395.6c-5.2-1.3-10-3.5-13.8-7.5C344.4,387.6,348.8,390.4,351.9,395.6z"/>
		<path class="st9" d="M81.3,194.8c0,4.4,0,8.9,0,13.3c-0.2,0-0.5,0-0.7,0c0-4.7,0-9.5,0-14.2C80.8,194.2,81,194.5,81.3,194.8z"/>
		<path class="st10" d="M342.6,348c2.4,3.2,4.9,6.4,7.3,9.6C343.7,357.3,342.6,353.1,342.6,348z"/>
		<path class="st11" d="M188.8,292.9c-3.1,1.9-5.9,1-9.2,0.8C182.7,291.3,185.5,292.2,188.8,292.9z"/>
		<path class="st12" d="M166,110c3.4,0,6.9,0,13.1,0c-6.2,2.4-9.7,1.4-13.2,1.3C165.9,110.9,165.9,110.5,166,110z"/>
		<path class="st13" d="M90.1,237.8c-0.6,1.1,0.6,3.7-2.1,3.1c-0.7-0.2-1.7-2.4-1.4-3.2c1.1-2.7,2.3,0.2,3.6,0.2
			C90.2,237.9,90.1,237.8,90.1,237.8z"/>
		<path class="st14" d="M318,250.5c-1.9,2.5-3.9,5-5.8,7.6C312.1,253.9,313.2,250.8,318,250.5z"/>
		<path class="st15" d="M348.4,48.6c-1.4,1.7-2.8,3.4-4.3,5.1C343,50,345.9,49.5,348.4,48.6z"/>
		<path class="st16" d="M166,110c0,0.4-0.1,0.9-0.1,1.3c-2.1,0-4.3,1.1-7.5-1.3C161.7,110,163.8,110,166,110z"/>
		<path class="st17" d="M84,188c-1.4-1.8-2.3-3.8-1.6-6.2C85.1,183.3,83.3,186,84,188L84,188z"/>
		<path class="st0" d="M244.3,222c-0.1,8.8-4.6,16-9.5,22.6c-26.6,35.2-67.8,44.6-103.6,20.7c-25.5-17-39.8-41.7-32.7-79.5
			c5.7-30,32.1-52.9,62.2-58.5c36.9-6.8,74.7,20.5,84.1,53c0.9,3.2,2.1,6.3,1.5,9.7C247.6,200.8,242.6,211.2,244.3,222z"/>
		<path class="st18" d="M244.3,222c-0.7,0.7-1.2,1.6-2,2.2c-2.3,1.7-2.1-0.4-1.8-1.5c2.5-11,5.2-22,1.8-33.3
			c-0.3-0.9-0.3-3.2,1.9-1.6c0.8,0.6,1.3,1.5,2,2.2l0.4,0.5l-0.4,0.5c1.3,7.4,1.3,14.8,0,22.2C244,215.7,244.7,219,244.3,222z"/>
		<path class="st0" d="M246.1,213.1c0-7.4,0-14.8,0-22.2C249,198.4,249,205.8,246.1,213.1z"/>
		<path class="st19" d="M172.2,251.9c-28.1-0.2-49.5-21.4-49.7-50c-0.2-27.3,22.3-49.6,49.4-49.6c27.7,0,50.5,22.3,50,49.9
			C221.4,231.5,201.1,251.3,172.2,251.9z"/>
		<path class="st20" d="M177.7,149.7c-3.8,0-7.6,0-11.5,0c0-0.3,0-0.7-0.1-1c4,0,7.9,0,11.9,0C178,149.1,177.9,149.4,177.7,149.7z"
			/>
		<path class="st21" d="M224.4,207.4c0-3.8,0-7.6,0-11.4c0.3,0,0.7,0,1,0c0,4.1,0,8.1,0,12.2C225.1,207.9,224.7,207.7,224.4,207.4z"
			/>
		<path class="st22" d="M118.8,197.2c2,3.1,1.1,6,0.8,9.2C117,203.4,118,200.5,118.8,197.2z"/>
		<path class="st23" d="M156.4,131.4c2.8-1.6,4.5-1.7,6.3-0.5C161.2,132.7,159.4,131.8,156.4,131.4z"/>
		<path class="st21" d="M181.5,130.5c1.7,0,3.4,0,5.5,0C184.9,132.9,183.2,131.6,181.5,130.5z"/>
	</g>
</g>
</svg>
