<?xml version="1.0" encoding="utf-8"?>
<!-- Generator: Adobe Illustrator 21.1.0, SVG Export Plug-In . SVG Version: 6.00 Build 0)  -->
<svg version="1.1" id="Lag_1" xmlns="http://www.w3.org/2000/svg" xmlns:xlink="http://www.w3.org/1999/xlink" x="0px" y="0px"
	 viewBox="0 0 400 400" style="enable-background:new 0 0 400 400;" xml:space="preserve">
<style type="text/css">
	.st0{fill:#F8F9FA;}
	.st1{fill:#FEFEFE;}
	.st2{fill:#EAE9EA;}
	.st3{fill:#E6E6E7;}
	.st4{fill:#6D6D6D;}
	.st5{fill:#F58C28;}
	.st6{fill:#F5F5F5;}
	.st7{fill:#E7E7E7;}
	.st8{fill:#E8E8E8;}
	.st9{fill:#F2F2F3;}
	.st10{fill:#EAEAEB;}
	.st11{fill:#EDEDEE;}
</style>
<g>
	<g>
		<path class="st0" d="M2,294.4c0-1.4,0-2.7,0-4.1c1.7-9.5,1.7-19,0-28.4c0-1.4,0-2.7,0-4.1c1.6-1.6,3-3.3,5.3-3.9
			c3.4-0.9,6.7-0.9,10,0.5c7,5.8,8.1,1.8,8.1-4.7c-0.1-29.4,0-58.7,0-88.1c0-3.7-0.1-7.4,0.2-11.1c0.3-3.3,0.3-7,3.7-8.9
			c3.9-2,6.1,1.1,8.7,3.2c6.3,5.1,10.7,3.5,11.5-4.6c0.7-7,0.6-14.2,0-21.2c-0.6-7.5-3.3-8.7-10-5.4c-11,5.5-13.7,4.1-14-7.9
			c-0.3-10.8-0.6-21.6,0.2-32.4c1.8-26.3,16.9-42.7,42.3-46.6c12.6,2,25.3,0.8,37.9,0.9c3.3,0,6.7-0.7,3-5.1
			C102.4,12,103.5,7.7,113.7,2c0.7,0,1.4,0,2,0c8.1,1.7,16.2,1.7,24.4,0c84.3,0,168.5,0.1,252.8-0.2c6.1,0,7.3,1.2,7.3,7.3
			c-0.3,45.7-0.2,91.4-0.2,137.1c-4.5,8.6-7.5,9.6-15.8,5.4c-2.2-1.1-4.1-4.2-6.9-0.9c-1.9,20.1-0.4,40.3-0.8,60.4
			c-0.2,12.4,0,24.8-0.1,37.2c0,4.3,0.6,8.9-3.2,12.2c-3.4,1.8-6.4,0.2-9.3-1.4c-5.2-2.9-9.5-2.3-12.6,3.1
			c-2.2,9.5-1.7,18.9-0.2,28.4c3.1,6.9,7.4,6.9,12.6,2.4c4-3.4,7.9-7.2,12.1-0.1c1.6,14.2,0.3,28.4,0.8,42.6
			c-0.8,23.9-18.7,42.1-42.4,43c-10.8,0.4-21.6,0.1-32.4,0.1c-6,0-10.7,0.4-5.5,8.3c4,6,3.1,11.6-3.9,15.2c-1.4,0-2.7,0-4.1,0
			c-10-2.3-20.1-0.4-30.1-1c-9.3-0.8-7.8-7.7-5.7-12.6c3.7-8.7,0-9.7-7.3-9.7c-28.4,0.1-56.8,0.1-85.3,0c-3.7,0-7.5,0.2-11.2-0.3
			c-8.4-1.2-10.2-5-6.2-12.6c4.3-8.3,3.1-10.6-6.1-11.2c-6.7-0.5-13.6-0.6-20.3,0.2c-5.7,0.7-7.6,3.4-4.5,9.1
			c5.9,10.9,3.9,14.4-8.3,14.8c-11.5,0.4-23,0.5-34.5,0c-24.1-1.2-43-20.9-43.5-45.1c-0.2-9.8,0-19.6-0.1-29.4
			c0-5.5-0.3-9.8-7.8-5.3C11.4,302.5,5.8,300.8,2,294.4z"/>
		<path class="st1" d="M6.1,255.8c-0.9,1.6-2.4,2-4.1,2c0-82.3,0.1-164.7-0.2-247c0-6.8,0.7-9.2,8.6-9.1C44.9,2.4,79.3,2,113.7,2
			c-4.7,5.6-11.6,11.1-2,18.3c3.8,4.3,5.8,8.9-2.5,8.9c-13.4,0.1-26.8,1.4-40.1-0.8c-14.7,3.7-27.6,9.7-35.3,24
			c-3.7,6.8-4.7,14.1-5.2,21.4c-0.7,11.5-0.2,23-0.2,34.5c0,2.5-0.9,5.9,2.6,6.9c2.7,0.7,4.3-1.4,5.5-3.6c2.7-5,7.3-4.5,11.6-3.6
			c5.5,1.1,4.6,5.9,4.6,9.9c0.1,8.1-0.2,16.2,0.1,24.4c0.2,4.6-1,7.5-5.9,9c-5,1.5-8.5,0.7-11.5-3.5c-1.4-1.9-0.9-6.3-5-4.8
			c-3.3,1.2-2.1,4.7-2.1,7.2c-0.1,33.2-0.1,66.3-0.1,99.5c0,2.4,0.1,4.7,0,7.1c-0.1,2.6,0.7,5.7-2.8,6.8c-3.3,1-4.9-1.2-6.3-3.7
			c-0.8-1.4-2-2.7-3-4C12.9,254.2,9.5,254.2,6.1,255.8z"/>
		<path class="st1" d="M2,294.4c6.4,3.5,12.9,7.2,18.2-1.6c1.2-2,3.1-2.6,5.3-2c3,0.8,2.9,3.4,2.9,5.8c0,12.8,0,25.7,0,38.5
			c0.1,19.7,18.4,39.5,38.1,40.4c13.5,0.6,27,0.1,40.6,0.1c2.3,0,5,0.4,6-2.5c1.1-3.2-0.6-5.2-3.3-6.4c-4.8-2.2-4.9-6-3.6-10.2
			c1.3-4.3,4.5-5.3,8.6-5.2c8.1,0.2,16.2,0.2,24.3,0c4.9-0.1,8.9,1.2,10.6,6c1.5,4.4,0,7.9-4.5,9.9c-2.5,1.1-3.6,3.3-2.7,5.8
			c1.4,3.9,5.1,2.7,7.9,2.7c32.8,0.1,65.6,0,98.4,0.1c12.7,0,12.7,0.4,6.7,11.9c-2.2,4.1-5,9.5,2.3,12.5c0.7,0.5,0.9,0.9,0.7,1.4
			c-0.2,0.4-0.5,0.7-0.7,0.7c-82.3,0-164.7-0.1-247,0.2c-6.7,0-9.2-0.6-9.1-8.6C2.4,360.6,2,327.5,2,294.4z"/>
		<path class="st1" d="M375.6,144.2c2.7,0,5.4,0.1,7.2,2.6c6,8.4,11.6,5.5,17.1-0.6c0,82.9-0.1,165.8,0.2,248.7
			c0,6.1-1.2,7.4-7.3,7.3c-33.5-0.4-67-0.2-100.5-0.2c5.2-6.2,5.7-12-1.4-17.1c-2.1-1.5-2.9-3.7-2.3-6.2c1-3.6,4.1-3,6.7-3
			c13.1-0.1,26.3-0.4,39.4,0.1c20,0.7,41.2-22.3,38.8-38.7c1.7-15.6,1.7-31.1,0-46.7c-4.6-0.9-6.1,3-8.7,5.4
			c-6.7,6.4-11.2,5.3-15.7-3.5c-1.6-10.8-1.6-21.6,0-32.3c7.3-8.6,9.2-8.6,20.3-0.1c8.2,2,4.9-4.6,4.9-7.4
			c0.3-32.4,0.1-64.9,0.2-97.3C374.7,151.5,373.7,147.7,375.6,144.2z"/>
		<path class="st2" d="M257.9,402c0-0.7,0-1.4,0-2c10.1,1.2,20.5-2.4,30.4,2C278.2,402,268,402,257.9,402z"/>
		<path class="st3" d="M2,261.9c3.3,9.5,3.3,19,0,28.4C2,280.9,2,271.4,2,261.9z"/>
		<path class="st4" d="M140.1,2c-8.1,3.3-16.2,3.3-24.4,0C123.9,2,132,2,140.1,2z"/>
		<path class="st5" d="M245.7,263.6c0-12.5-0.2-25,0.1-37.5c0.1-5.4-1.6-7-6.9-6.9c-12.5,0.3-25,0.3-37.5,0c-5.3-0.1-6.2,1.6-5,6.5
			c1.9,7.9,2.5,16,4.4,23.9c1.7,7.2-1,11.3-7.1,14.8c-16,9.2-35.7,8.1-49.9-5.1c-17.3-16.1-34.2-32.8-50.1-50.2
			c-15.8-17.4-15.3-40.7,0.8-57.9c15.5-16.5,31.5-32.6,48-48.1c16.4-15.4,39.9-15.9,56.5-2.4c4.6,3.7,7.1,7.4,4.4,13.8
			c-2.6,6.2-3.7,13-5.9,19.4c-2,5.9-1.1,8.2,6,8.1c28.1-0.4,56.1-0.2,84.2-0.2c25.7,0.1,35.6,9.9,35.6,35.5c0,38.9,0,77.8,0,116.7
			c0,22.5-9.9,33-32.2,34.1c-6.4,0.3-12.9,0-19.2-0.8c-16.7-2.1-25.9-12.6-26.1-29.2C245.6,286.6,245.7,275.1,245.7,263.6z"/>
		<path class="st6" d="M375.6,144.2c0,36.5,0.1,73-0.1,109.4c0,3.4,2.3,10.3-6,6.3c6.2-1.3,4-6.3,4-9.9c0.2-31.8,0-63.5,0.1-95.3
			C373.7,151.1,372.3,147.2,375.6,144.2z"/>
		<path class="st7" d="M142.1,28.4c38.4,0,76.8,0,115.2,0c0,0.7,0,1.3,0,2c-38.4,0-76.8,0-115.2,0c-0.5-0.4-0.7-0.9-0.5-1.3
			C141.8,28.7,142,28.4,142.1,28.4z"/>
		<path class="st8" d="M69.1,28.4c12.4,0,24.8-0.2,37.2,0.1c6.6,0.1,9-1.9,5.4-8.2c6.2,3.1,5.8,9.2,0.3,9.4
			C97.8,30.5,83.2,32.8,69.1,28.4z"/>
		<path class="st6" d="M375.1,69.7c0,14.6,0,29.1,0,43.7c-0.3,0-0.7,0-1,0c0-14.7,0-29.3,0-44C374.4,69.5,374.7,69.6,375.1,69.7z"/>
		<path class="st6" d="M373.6,290.4c3.3,15.6,3.3,31.1,0,46.7C373.6,321.5,373.6,305.9,373.6,290.4z"/>
		<path class="st7" d="M293.1,29c12.6,0,25.1,0,37.7,0c0,0.3,0,0.7,0,1c-12.7,0-25.3,0-38,0C292.9,29.7,293,29.3,293.1,29z"/>
		<path class="st8" d="M349.2,260c0,10.8,0,21.6,0,32.3C345.9,281.5,345.9,270.8,349.2,260z"/>
		<path class="st9" d="M262.9,55.2c8.3,0,16.6,0,24.9,0c0,0.3,0,0.7,0,1c-8.6,0-17.2,0-25.8,0C262.4,55.9,262.7,55.5,262.9,55.2z"/>
		<path class="st10" d="M142.1,28.4c0,0.7,0,1.3,0,2c-3-3-2.4-6,0.4-12C142.3,23.7,142.2,26.1,142.1,28.4z"/>
		<path class="st11" d="M6.1,255.8c3.4-3,6.8-3,10.2,0C12.9,255.8,9.5,255.8,6.1,255.8z"/>
		<path class="st0" d="M306.2,234.9c0,19.9,0.1,39.9,0,59.8c-0.1,11.9-4.1,15.7-15.8,15.9c-27,0.5-28.1-0.5-28.1-27.3
			c0-23.7-0.3-47.3,0.2-71c0.1-7.2-1.2-10.1-9.3-9.9c-24,0.6-48,0.4-72,0.1c-6.5-0.1-9.2,0.8-6.6,8.2c3.7,10.1,5.9,20.8,9.3,31
			c2.3,6.7-0.3,9.2-6.5,10.4c-9,1.8-16.6-0.5-23.1-7c-15.8-15.8-31.7-31.4-47.3-47.4c-9.6-9.8-10.8-22.8-1.4-32.9
			c16.3-17.6,33.7-34.1,50.8-51c3.8-3.7,8.8-4.9,13.9-5.5c12.1-1.4,15.8,3.1,12.4,14.7c-2.7,9.1-4.9,18.3-8.1,27.2
			c-2.5,7-0.6,8.5,6.4,8.4c35.5-0.3,71-0.1,106.5-0.1c15.1,0,18.7,3.6,18.7,18.3C306.3,196.3,306.2,215.6,306.2,234.9z"/>
	</g>
</g>
</svg>
