<?xml version="1.0" encoding="utf-8"?>
<!-- Generator: Adobe Illustrator 21.1.0, SVG Export Plug-In . SVG Version: 6.00 Build 0)  -->
<svg version="1.1" id="Lag_1" xmlns="http://www.w3.org/2000/svg" xmlns:xlink="http://www.w3.org/1999/xlink" x="0px" y="0px"
	 viewBox="0 0 400 400" style="enable-background:new 0 0 400 400;" xml:space="preserve">
<style type="text/css">
	.st0{fill:#F5F5F6;}
	.st1{fill:#FEFEFE;}
	.st2{fill:#EDEDEE;}
	.st3{fill:#D7D7D7;}
	.st4{fill:#D7D7D8;}
	.st5{fill:#EBEBEC;}
	.st6{fill:#E8E8E8;}
	.st7{fill:#77BC43;}
	.st8{fill:#FBFBFC;}
	.st9{fill:#E5E5E6;}
	.st10{fill:#CCCCCC;}
	.st11{fill:#FEFBFE;}
	.st12{fill:#F8F6FB;}
	.st13{fill:#A7D287;}
	.st14{fill:#E0E0E0;}
	.st15{fill:#FAFAFB;}
	.st16{fill:#CDCDCD;}
	.st17{fill:#F9F9FA;}
	.st18{fill:#C3DFB0;}
	.st19{fill:#F8F8F9;}
	.st20{fill:#FDFDFE;}
	.st21{fill:#DCDCDC;}
	.st22{fill:#E9E9EA;}
	.st23{fill:#F8F6FA;}
	.st24{fill:#F0F3F0;}
	.st25{fill:#FEFAFE;}
	.st26{fill:#E3E3E3;}
	.st27{fill:#ECECED;}
	.st28{fill:#F8F7FB;}
	.st29{fill:#ADD48F;}
	.st30{fill:#FCFCFC;}
	.st31{fill:#D8D8D9;}
	.st32{fill:#DDDDDD;}
	.st33{fill:#F9F9F9;}
	.st34{fill:#DBDBDC;}
	.st35{fill:#FCFCFD;}
	.st36{fill:#D3D4D4;}
	.st37{fill:#FCFCFE;}
	.st38{fill:#EFEFEF;}
	.st39{fill:#E4E4E4;}
	.st40{fill:#FDFDFD;}
	.st41{fill:#D6D6D6;}
	.st42{fill:#72BA3C;}
	.st43{fill:#EBEBEB;}
	.st44{fill:#F0F0F0;}
	.st45{fill:#D4D4D5;}
	.st46{fill:#E2E2E3;}
	.st47{fill:#E4E4E5;}
	.st48{fill:#DCEAD3;}
	.st49{fill:#72BA3D;}
	.st50{fill:#98CB72;}
	.st51{fill:#6BB632;}
	.st52{fill:#72BA3B;}
	.st53{fill:#CFE4C0;}
	.st54{fill:#96CB70;}
	.st55{fill:#6BB834;}
	.st56{fill:#71BA3A;}
	.st57{fill:#FCF8FE;}
	.st58{fill:#FDF9FE;}
</style>
<g>
	<g>
		<path class="st0" d="M258.6,2c12.1,0,24.2,0,36.4,0c0.7,0.6,1.1,1.4,1.3,2.2c0.1,0.9,0,1.8-0.1,2.6c-0.8,3.3-1.6,6.7-2.1,10.1
			c-0.5,2.1-1.9,3.8-2.9,5.6c0.1,9.2,7.2,3.2,10.7,4.9c12-0.5,24.1,1,36-1c19.3-1.3,38.8,17.7,38.9,38c-0.3,1.1-0.7,2.1-1.2,3
			c-2,9.9-0.5,19.9-1,29.8c-0.2,4.6,0.6,9.4-2.8,13.3c-0.8,0.8-1.7,1.3-2.8,1.6c-3,0.3-4.5-1.6-5.8-3.9c-2.1-3.7-4.9-1.6-7.6-1
			c-1.1,0.5-2.2,1-3.1,1.8c-2.1,1.8-2.4,4.1-1.7,6.6c1.5,6.2,1.3,12.4,0.9,18.7c-0.7,10.9,3.4,13.9,13,9.3c3.2-1.5,5.6-1.5,7.8,1.3
			c2.8,4.7,1.9,9.8,2,14.8c0.3,31.8-0.3,63.7,0.3,95.4c0.3,0.9,0.7,1.8,1.2,2.7c3.2,4,5.1,0.2,7.5-1.2c1.7-1.2,3.6-2.1,5.7-2.3
			c2.9-0.2,5.7,0.1,7.7,2.5c3.8,10,0.4,20.5,2.4,30.6c0.4,1.7,0.4,3.3,0.1,5c-1.4,3.9-3.7,6.5-8.3,5.9c-2.9-0.8-4.6-3.4-6.8-5.2
			c-2.1-1.8-4.6-2.6-7.3-2.6c-1.2,0.3-2.1,1-2.4,2.3c-0.3,11.4,0,22.8-0.1,34.2c0,3.4,0.2,6.7,2.3,9.6c2.1,5.1,1,10.1-2,14.2
			c-7.5,10.2-15.3,20.2-29,22.6c-17.6-1.7-35.2-0.9-52.7-0.6c-1,0.2-2,0.2-3,0c-4.8-3.4-2.5-6.7,0.3-9.9c2.7-3.1,5.7-5.9,3.1-10.5
			c-1.2-2.4-2.8-4.4-5.3-5.5c-8.8-1.1-17.6-1.3-26.4,0.2c-1.4,1.1-2.5,2.4-3.5,4c-2.4,4.3-2,8.3,0.5,12.4c1.5,2.5,4.1,5.1,0.1,7.7
			c-4.5,2-9.3,1.3-13.9,1.3c-32.6,0.3-65.2-0.6-97.7,0.5c-1.4,0.6-2.4,1.5-2.9,3c-3.5,5.1,2.8,4.6,4,6.9c0.3,0.9,0.4,1.8,0.4,2.8
			c-1,4.2-1.3,8.5-3.1,12.5c-0.9,0.5-1.9,0.7-3,0.7c-9.2,0.6-18.5-1.2-27.6,1c-2,0-4,0-6.1,0c-3.4-1.8-3.1-4.9-2.8-7.9
			c0.1-3,0.1-6,1.2-8.8c2.2-3.4,0.9-4.5-2.8-4.6c-9.6-0.1-19.2,0.1-28.8-0.1c-4.2-0.1-8.8,0.8-11.7-3.7c0.1-1.1,0.6-1.9,1.5-2.4
			c13.4-1,26.7-1.4,40,0.2c-16.5-1.3-33-1.9-49.4,1C39.5,370.1,24.1,349,28,334.8c3-9.8,0.8-19.9,1.4-29.8c0.3-4.6-0.6-9.4,2.6-13.5
			c0.7-0.8,1.6-1.3,2.6-1.7c1.7-0.3,3.2,0.1,4.7,0.9c9.7,4.7,12.9,2.6,12.7-8.4c-0.1-6.6-0.4-13.2,1.1-19.7c1-4-1.2-5.6-4.7-6.2
			c-3.6-0.4-6.6,0.9-9.5,2.8c-6.1,4.2-8.5,0.9-9.3-4.9c-0.5-3.7-0.3-7.4-0.3-11.1c-0.1-32.9,0.2-65.8-0.1-98.6
			c-0.2-0.9-0.4-1.8-0.8-2.6c-1.4-1.8-3.1-2.3-5.2-1.1c-0.5,0.7-0.9,1.3-1.4,2c-0.4,0.8-0.9,1.4-1.5,2.1c-1.8,2.1-4,3.7-6.8,4.6
			c-4.4,1-8.2,0.9-8.5-5.1c0.8-11.4-1.1-22.8,0.9-34.2c0.5-1.5,1.4-2.8,2.5-3.8c2-1.6,4.2-2.5,6.8-2.3c3.4,1.3,4.7,5.1,7.7,6.9
			c1.5,0.8,3.1,1,4.8,0.5c0.7-0.5,1.2-1,1.6-1.8c-0.3-14.1,0.9-28.2-0.8-42.2c-0.5-0.8-0.9-1.7-1.2-2.6c1.3-7.4-2-16.9,9.2-19.6
			c4.2-0.4,5.7-3.3,6.7-6.9c0.4-0.9,0.8-1.7,1.4-2.5c6.2-8.1,14-12,24.3-8.7c12.9,0.1,25.7,0,38.5,0c10,0.8,11.2,2.5,5.8,10.2
			c-3.4,4.8-2.7,8.6,0.2,12.8c0.5,0.7,1,1.5,1.5,2.2c0.8,1,1.7,1.9,2.8,2.6c7.5,0.8,15,1.9,22.4-0.9c0.5-0.8,1.1-1.6,1.7-2.3
			c0.6-0.8,1.3-1.5,2-2.3c4.4-4.5,4.5-8.7-0.5-12.8c-2.8-2.3-4.7-5-3.4-8.7c1.5-4.3,5.5-4.6,9.2-4.8c16.1-0.5,32.2-0.2,48.3-0.2
			c15.4,0,30.8,0,46.3-0.1c3.9,0,8.1,0.8,11.6-2c1.8-5-2.6-9-2.3-13.8C252.8,3.4,256.4,3.5,258.6,2z"/>
		<path class="st1" d="M56.6,262.6c-3.4,6.3-3.1,13.6-1.6,19.7c1.9,7.7-1.8,12-6.6,14.9c-5.6,3.3-8.1-3.7-12-6.2
			c-3.3-2.3-5-0.7-5.9,2.6c-0.2,13-0.7,26.1,0.3,39.1c0.5,1.7,0.7,3.3-0.5,4.7c-2.6,2.1-2.5,4.8-1.2,7.3
			c6.3,11.9,14.9,21.6,27.5,27.1c2.5,1.4,5.8-0.7,8,2c12.4,4.3,25.1,0.9,37.6,2c4.6,0.4,9.5-0.9,13.4,2.8c-0.2,4.2-5.2,2.4-6.5,5.2
			c-1.3,3.3-3.3,6.6-0.1,9.9c-1,2.1-1.3,4.2,0.1,6.3c-32.9,0-65.8-0.4-98.7,0.3c-7.9,0.1-8.5-2.3-8.5-9C2.1,308.6,2,226,2,143.4
			c0.6-0.7,1.3-1.1,2.2-1.2c0.9,0.1,1.7,0.4,2.4,1c0.4,0.9,0.2,1.6-0.5,2.2c1.6,4.8,5.2,2.1,8.1,2c3.8,1.3,4.4-2.2,6.1-4
			c0-0.7,0-1.3,0-2c3.9-2.2,7.4-3.3,9,2.6c0.1,36.8,0,73.6,0.1,110.4c0-36.5,0-72.9,0-109.4c0.1-1.9-0.4-3.9,0.9-5.6
			c3.4,2.9,2,6.9,2.1,10.4c0.1,32.8,0,65.7,0.1,98.5c0,3.6-0.9,7.3,1.4,11.6c4.9-7.2,11-9.7,18.7-5.4C54.7,256.7,55,260,56.6,262.6z
			"/>
		<path class="st1" d="M351.5,107c0.7-0.6,1.3-1.3,2-1.9c4,2.4,8.1-1.7,12.1,0c0.1,2.2-0.3,4.6,2.1,6c4.9,2,5.6-1.2,6-4.8
			c0.1-10.3,0-20.6,0.1-30.8c0-3.6-0.8-7.4,1.8-10.5c-1-8.6-3.6-16.8-10.1-22.6c-7.5-6.6-15.1-13.6-26-14.1
			c-13.1,2.2-26.3,0.4-39.5,1c-5.9-0.3-13.9,2-11.1-9.1c1.4-1.4,2.7-2.7,4.1-4.1c0.9-1.3,2-2.4,2.6-3.9c0.3-2.8,0.9-5.5-0.6-8.1
			c0-0.7,0-1.4,0-2.1c33.3,0,66.7,0.2,100-0.2c6-0.1,7.3,1.2,7.2,7.2c-0.3,82.5-0.2,165-0.2,247.5c-0.9,1.1-2.1,1.3-3.5,1
			c-1.2-0.5-1.9-1.6-2.9-2.2c-1-0.6-1.8-1.4-3-1.7c-1.6-0.1-3,0.6-4.5,0.9c-3.2,0.9-4.9,3.8-7.5,5.7c-4.4,1.6-5.8-1.3-6.8-4.6
			c-0.6-36.2,0.4-72.4-0.6-108.5c-0.6-1.8-2.2-2.7-3.6-3.7c-2.8-0.4-2.7,3.2-4,3.4c-3.6,0.7-6.1,7.7-10.2,2.9
			c-3-3.6-9.5-5.4-7.1-12.9c2.2-7,2.3-14.6-0.9-21.7C349,112.5,349.3,109.3,351.5,107z"/>
		<path class="st1" d="M258.6,20.2c3.7,8.7-3.5,6-6.8,6c-32.6,0.2-65.2,0.1-97.9,0.1c-2.4,0-4.7,0-7.1,0c-2.5,0-4.8,0.4-5.1,3.6
			c-0.2,2.3,0.8,4,3.2,4.3c6.9,0.9,5.5,6.6,6,10.9c0.7,5.4-4.1,5.9-7.6,7.5c-10,4.4-20.1,4.4-30.1,0c-6.1-5.5-10-11-0.7-17.3
			c1.9-1.3,6.9-5.6-1.5-5c-14.8-1.7-29.7-1.7-44.5,0c-10.6-6.2-14.9,5.1-22.1,8c-2,1.1-2.6,3.3-3.7,5.1c-0.6,1.2-1.3,2.2-2.4,3
			c-4.9,2.3-9.8,4.5-7.5,11.4c1,3.1-2.1,4.5-2.4,7.1c2.9,16.1,3.2,32.2-0.2,48.2c-2,2.5-4.1,2.5-6-0.1c-1.8-2.8-4.2-5.3-6-8.1
			c-2,0.7-4,1.3-6,2c-1.7,0-2.8,0.7-3.2,2.4c0,0.8-0.2,1.5-0.6,2.2c-0.7,0.4-1.5,0.6-2.3,0.6c-0.8-0.2-1.5-0.6-2-1.2
			C2,77.5,2.4,43.9,1.8,10.4c-0.1-7.9,2.3-8.5,9-8.5C93.4,2.1,176,2,258.6,2c-1.3,2.1-4.4,3-4,6.2C254.3,12.7,255.4,16.8,258.6,20.2
			z"/>
		<path class="st1" d="M260.6,367.6c-8.5-4.4-8.8-10.7-4-18.1c13-3.7,25.9-6.4,38.3,2c4.6,2.6,4.7,5.1,1.2,9.3
			c-2.7,3.3-8.3,5.1-7,11.1c15-0.2,30-0.1,44.9-0.1c4.5-1.5,9,1.7,13.5,0c7.7-4,14.1-9.4,20.1-15.7c5.2-5.4,8.3-11.1,8.1-18.6
			c-1.3-1.5-1.9-3.3-1.9-5.3c-0.2-11-0.1-21.9,0-32.9c0-3.5-1-7.4,2.3-10.3c3.8-1.8,6.9-0.6,9.8,2c-1.6,3.9,3.8,3.2,4,6
			c3.8,0.8,5.9-1.8,8.1-4c0.8-0.9,1.1-2,2.1-2.8c0.8-0.2,1.5,0,2,0.7c0,33.6-0.3,67.2,0.3,100.7c0.1,7.9-2.3,8.5-9,8.5
			c-81.9-0.2-163.8-0.2-245.8-0.2c-0.7-5.4,3.4-10.8,0-16.2c-3.5-1.5-7.6-2.7-6.1-8c3.9-3.6,8.7-2.9,13.3-2.9
			c33.4-0.1,66.8,0,100.1-0.1C257.9,372.3,262,373.1,260.6,367.6z"/>
		<path class="st2" d="M400,290.9c-0.7,0.7-1.4,1.3-2,2c0-1.4,0-2.7,0-4.1c-1.5-10.7-1.7-21.5,0-32.2c1.3,0,2.7,0,4-0.1
			c0,0.7,0,1.3,0,2C399,269.2,402.9,280.3,400,290.9z"/>
		<path class="st3" d="M2,111.1c0.7,0,1.4,0,2.1,0c3.1,10.8,3.2,21.6,0,32.4c-0.7,0-1.4,0-2,0C2,132.7,2,121.9,2,111.1z"/>
		<path class="st4" d="M400,290.9c1.1-10.8-2.2-21.8,2-32.3c0,10.8,0,21.5,0,32.3C401.3,290.9,400.6,290.9,400,290.9z"/>
		<path class="st5" d="M115.1,400c9.8-4.5,20.2-0.9,30.3-2c0.6,0.4,0.8,0.9,0.6,1.3c-0.2,0.4-0.4,0.7-0.6,0.7
			C135.3,400,125.2,400,115.1,400z"/>
		<path class="st6" d="M145.4,400c0-0.7,0-1.3,0-2c0-0.7,0-1.3,0-2c1.7-3.2,0-7,2-10.1c0-0.7,0-1.4,0-2.1c7.6,5.4,3.6,10.8,0,16.2
			C146.8,400,146.1,400,145.4,400z"/>
		<path class="st7" d="M201.9,83.1c14.9,0.2,24,10.5,33.4,19.9c13.4,13.3,26.5,26.9,39.7,40.4c15.5,15.8,15.5,41.3,0.5,57.4
			c-3.2,3.5-6.5,4.2-10.8,2.9c-6.7-1.9-13.5-3.7-20.3-5.5c-1.3,0.7-2.6,1.2-3.4-0.6c-7.5-3-4.7,3.3-4.7,5.8
			c-0.2,28.3-0.1,56.5-0.1,84.8c0,16.3-6.4,25.2-21.9,31.2c-1,0.5-2,0.7-3,0.6c-9.9-0.3-19.9,0.5-29.8-0.6c-0.5,0-1,0.1-1.6,0.1
			c-10.2-3.4-17.6-9.5-20.4-20.3c-0.7-1-1-2.2-1-3.4c0.5-31.2,0.3-62.4,0.1-93.6c-0.2-0.9-0.5-1.8-1-2.6c-1.6-2-4.2-0.3-6-1.6
			c-5.5,1.4-11.3,2-16.4,4.3c-10.8,4.7-17.2,0.2-21.8-9c-1.8-3.6-3-7.5-4.4-11.2c-0.9-1.2-1.4-2.5-1.3-4c1-4.2,1-8.4,0-12.5
			c-0.1-1.5,0.4-2.8,1.4-4c2.1-8.3,6.5-15.2,12.6-21.2c16-15.8,31.7-31.9,47.9-47.5c6.1-5.9,13.7-9.5,22.5-9.7
			C195.3,84.3,198.6,84.3,201.9,83.1z"/>
		<path class="st8" d="M260.6,367.6c4.1,2.7,2.1,5.4-0.1,8.1c-1.8-1.8-4-2-6.4-2c-36.5-0.2-72.9,0.4-109.4-0.3
			c-1.2-0.3-2.4-0.9-3.4-1.7c3-3.2,6.9-2,10.4-2c32.8-0.1,65.6,0,98.4-0.1C253.7,369.6,257.7,370.9,260.6,367.6z"/>
		<path class="st9" d="M141.4,371.7c0.7,0,1.4,0,2.1,0c5.2,2,10.6,0.9,15.8,0.9c29.7,0.1,59.5,0.1,89.2,0c3.3,0,6.7,0.8,9.8-0.9
			c1.7,0.8,2.1,2.2,2.1,3.9c-39.7,0-79.4,0-119.1,0C141.4,374.4,141.4,373,141.4,371.7z"/>
		<path class="st1" d="M369.7,143.4c1.3,0,2.7,0,4,0c1.8,3.1,1,6.6,1,9.8c0.1,32.5,0.1,65,0,97.4c0,3.3,0.8,6.7-0.8,9.9
			c-3.4-2.9-2-6.9-2.1-10.4c-0.1-31.3-0.1-62.6-0.1-93.9C371.7,151.8,372.1,147.4,369.7,143.4z"/>
		<path class="st10" d="M373.8,260.6c0-39-0.1-78.1-0.1-117.1c3.5,2.9,2,6.9,2,10.4c0.1,34.9,0,69.8,0,104.7
			c0.6,0.4,0.8,0.9,0.6,1.3c-0.2,0.4-0.4,0.6-0.6,0.6C375.1,260.5,374.5,260.5,373.8,260.6z"/>
		<path class="st5" d="M148.2,28.6c36.5,0,73,0,109.5,0c0,0.3,0,0.7,0,1c-36.6,0-73.3,0-109.9,0C148,29.2,148.1,28.9,148.2,28.6z"/>
		<path class="st11" d="M151.5,198c2-0.7,4-1.3,6-2c2.2,2.5,2,5.6,2,8.6c0,28.5,0,56.9,0,85.4c0,3.1-0.3,6-1.9,8.7
			c-4.4-1.6-2-5.3-2-7.8c-0.2-27.1-0.2-54.2-0.1-81.3C155.6,205.1,155.7,200.9,151.5,198z"/>
		<path class="st12" d="M241,197.6c1.1,0.2,2.3,0.4,3.4,0.6c-4.3,2.9-4,7.2-4,11.6c0.1,28.8,0,57.7-2,86.5c0-6.7,0-13.4,0-20.1
			c0-22.9,0-45.7,0-68.6C238.4,204.3,237.3,200.3,241,197.6z"/>
		<path class="st13" d="M157.7,298.7c-0.1-34.2-0.1-68.5-0.2-102.7c0.7,0,1.4,0,2.1,0c2.2,9.6,0.9,19.4,0.9,29.1
			c0,23.9,0.8,47.8-0.4,71.6c-0.2,0.8-0.4,1.7-0.6,2.5C158.8,299.1,158.3,298.9,157.7,298.7z"/>
		<path class="st14" d="M294.8,351.4c-12.6-4.2-25.5-0.9-38.3-2c0.7-1.3,1.3-2.7,2-4c10.8-1.8,21.5-1.6,32.3-0.1
			C293.5,346.6,294.9,348.5,294.8,351.4z"/>
		<path class="st8" d="M64.6,373.7c-2.8-0.3-5.9,0.8-8-2c19.5-3.2,39-3.6,58.5,0.1c-13.2,1.9-26.4,0.3-39.6,0.9
			c-3.6,0.2-7.3-0.9-10.7,1L64.6,373.7z"/>
		<path class="st15" d="M347.5,371.7c-2.6,4.2-7.1-0.7-10,2c-11.5-2.3-23.2-0.4-34.8-1.1c-3.9-0.2-8,1.1-11.7-1.1
			C309.8,368.3,328.6,368.7,347.5,371.7z"/>
		<path class="st1" d="M375.7,333.2c0,1.4,0,2.7,0,4.1c-1.1-0.6-3.2-1.3-3.2-1.9c-0.5-16.2-3.1-32.5,1.3-48.5
			c1.9,11.8,0.3,23.8,0.9,35.6C374.9,326.1,373.8,329.8,375.7,333.2z"/>
		<path class="st1" d="M30.3,337.3c0-1.4,0-2.8,0-4.2c-2.1-14.1-0.5-28.3-0.9-42.4c1.9-4,3.4-1.7,4.9,0.3c-4.2,11.1-0.9,22.6-2,33.9
			C31.9,329,33.9,333.7,30.3,337.3z"/>
		<path class="st4" d="M64.7,373.7c8.2-4.3,16.9-1.4,25.4-1.9c8.3-0.5,16.7,0,25,0c-8.9,4.1-18.3,1.2-27.4,1.8
			C80.1,374.1,72.4,373.7,64.7,373.7z"/>
		<path class="st1" d="M30,64.7c4.4,4.5,2.1,10.1,2.2,15.2c0.3,11-0.1,21.9-0.3,32.9c0,0.2-0.5,0.4-0.7,0.4c-0.3,0-0.6-0.2-0.9-0.3
			C28.6,96.9,29,80.8,30,64.7z"/>
		<path class="st16" d="M30,64.7c0.1,16.1,0.1,32.2,0.2,48.2c-0.6,0.1-1.3,0.1-1.9,0.2c0.1-16.1,0.1-32.2,0.2-48.2
			C29,64.8,29.5,64.8,30,64.7z"/>
		<path class="st1" d="M369.7,110.9c4.1-11.4,0.9-23.3,2-34.9c0.4-3.8-1.6-8.2,2.3-11.3c1.4,15.2,0.5,30.4,0.5,45.6
			C373.2,112.4,371.5,112.3,369.7,110.9z"/>
		<path class="st4" d="M290.9,371.6c12.4,0,24.7,0,37.1,0.2c3.2,0,6.8-1.1,9.4,2c-13,0-26,0.1-39.1,0c-3.2,0-6.8,1.1-9.4-1.9
			C289.6,371.8,290.3,371.7,290.9,371.6z"/>
		<path class="st16" d="M373.6,111.1c0.1-15.4,0.3-30.9,0.4-46.3c0.5,0,1,0.1,1.5,0.2c0,15.4,0.1,30.8,0.1,46.1
			C375,112,374.3,111.9,373.6,111.1z"/>
		<path class="st10" d="M375.7,333.2c-4.3-9.5-1.1-19.6-1.9-29.4c-0.4-5.6,0-11.3,0-17c0.7,0.7,1.5,1.4,2.2,2
			C375.9,303.7,375.8,318.5,375.7,333.2z"/>
		<path class="st5" d="M66.6,30.3c14.8-3.4,29.7-3.4,44.5,0C96.3,30.3,81.5,30.3,66.6,30.3z"/>
		<path class="st5" d="M299,28.3c13.5,0,27,0,40.5,0c-13.3,4.6-27,0.8-40.4,2c-0.7-0.4-0.9-0.9-0.7-1.3
			C298.5,28.5,298.7,28.3,299,28.3z"/>
		<path class="st17" d="M6.1,111.1c0-0.7,0-1.3,0-2c0.7-0.6,1.3-0.6,2,0c0.2,11,0.2,22.1,0.6,33.1c0.1,2.3-0.8,2.9-2.6,3.3
			c0-0.7,0-1.3,0-2C4.4,132.7,4.4,121.9,6.1,111.1z"/>
		<path class="st18" d="M211.9,318.8c0.8,0.2,1.5,0.4,2.3,0.6c-0.7,0.6-1.4,1.2-2.1,1.8c-10.1,3.2-20.2,3.2-30.3,0
			c-0.7-0.6-1.3-1.2-2-1.8c0,0,0-0.8,0-0.8C190.5,318,201.2,317.7,211.9,318.8z"/>
		<path class="st19" d="M398,256.6c0,10.7,0,21.5,0,32.2c-4.2-10.5-0.9-21.5-2-32.3c-0.5-0.5-0.7-0.9-0.5-1.4
			c0.2-0.5,0.3-0.7,0.5-0.7C396.6,255.2,397.3,255.9,398,256.6z"/>
		<path class="st20" d="M290.9,345.4c-10.8,0-21.5,0-32.3,0.1C269.3,342.1,280.1,342.2,290.9,345.4z"/>
		<path class="st21" d="M113.2,52.6c10,0,20.1,0,30.1,0c0,0.6,0,1.3,0,1.9c-10.1,3.5-20.1,3-30.2,0
			C113.2,53.8,113.2,53.2,113.2,52.6z"/>
		<path class="st22" d="M113.2,54.5c10.1,0,20.1,0,30.2,0c0,0.7,0,1.4,0,2c-9.4,1.7-18.9,1.6-28.3,0
			C114.5,55.9,113.8,55.2,113.2,54.5z"/>
		<path class="st23" d="M212.1,323.2c-10.1,3.3-20.2,3.3-30.3,0C191.9,321.6,202,321.6,212.1,323.2z"/>
		<path class="st24" d="M212.1,323.2c-10.1,0-20.2,0-30.3,0c0-0.7,0-1.3,0-2c10.1,0,20.2,0,30.3,0
			C212.1,321.9,212.1,322.5,212.1,323.2z"/>
		<path class="st17" d="M115.1,56.6c9.4,0,18.9,0,28.3,0C134,59.8,124.6,59.8,115.1,56.6z"/>
		<path class="st25" d="M107.1,181.6c-2.1-4.3-2.9-13.8-1.6-19.8c0-0.2,0.5-0.4,0.8-0.4c0.3,0,0.6,0.3,0.9,0.4
			C109.7,168.5,109.7,175.1,107.1,181.6z"/>
		<path class="st26" d="M258.6,20.2c-5.1-2.7-7.7-6.3-4-12C256.4,12,258.5,15.8,258.6,20.2z"/>
		<path class="st27" d="M299,28.3c0,0.7,0,1.3,0,2c-12.2-0.2-13-1.1-10.1-10.1C288.4,27.8,293.2,28.6,299,28.3z"/>
		<path class="st28" d="M290.4,163.9c0,5.1,0,10.3,0,15.4c-0.3,0-0.6,0-0.9,0c0-5.1,0-10.3,0-15.4
			C289.8,164,290.1,163.9,290.4,163.9z"/>
		<path class="st29" d="M107.1,181.6c0-6.6,0-13.2,0-19.8c0.6-0.2,1.2-0.3,1.8-0.4c0.1,1.5,0.3,2.9,0.4,4.4c1.1,3.9,1.1,7.8,0,11.8
			c-0.1,1.5-0.3,2.9-0.4,4.4C108.3,181.9,107.7,181.8,107.1,181.6z"/>
		<path class="st30" d="M365.6,105.1c-4,1.8-8,3.8-12.1,0C357.6,105.1,361.6,100.5,365.6,105.1z"/>
		<path class="st31" d="M375.7,260.4c0-0.6,0-1.3,0-1.9c2,1.3,4,1.3,6.1,0.1c0.6-0.9,1.2-0.9,1.8,0
			C381.2,260.2,380.4,269.1,375.7,260.4z"/>
		<path class="st32" d="M294.9,4.1c2.6,3,6,5.8,2,10c-5.3-1.5-2.8-5-2.1-8.1C294.9,5.5,294.9,4.8,294.9,4.1z"/>
		<path class="st33" d="M38.4,46.4c0-1.3,0-2.6,0-4c1.9-1,3.4-3.3,6.1-2.1C44.9,44.9,42.9,47,38.4,46.4z"/>
		<path class="st34" d="M109,393.7c-8-3.4-1.9-6.6,0.1-9.9C109.1,387.1,109,390.4,109,393.7z"/>
		<path class="st35" d="M294.9,6.1c0.3,2.8-0.8,5.9,2.1,8.1c-0.9,1.6-2.4,1.9-4,2C292.1,12.5,292.2,9.1,294.9,6.1z"/>
		<path class="st36" d="M28.3,143.4c-2.2-2.8-5.3-1.7-8.1-2c0-0.7,0-1.3,0-2c3.4-1.5,6.7-1.6,10.1,0.1c0,0-0.1,0-0.1,0
			c0,1.3,0,2.7-0.1,4C29.5,144.4,28.9,144.3,28.3,143.4z"/>
		<path class="st37" d="M395.9,254.5c0,0.7,0,1.4,0,2c-2.7,0-5.4,0-8.1,0c-0.5-0.4-0.7-0.9-0.7-1.4c0.1-0.5,0.1-0.8,0.3-0.8
			c2.1-1.3,4.8-1.7,6.5-3.9C395.5,251.4,395.9,252.9,395.9,254.5z"/>
		<path class="st6" d="M16.2,105c3.3,1.8,5.8,4,6,8.1C19,111.3,16.3,109.1,16.2,105z"/>
		<path class="st15" d="M147.5,385.8c-0.4,3.4,1.3,7.3-2,10.1C144.6,392.3,144.7,388.8,147.5,385.8z"/>
		<path class="st38" d="M387.9,254.5c0,0.7,0,1.3,0,2c-1.4,0.7-2.8,1.4-4.2,2.1c-0.6,0-1.2,0-1.8,0c1.2-2.8,3.3-4.8,6-6.1
			c0.7,0.5,0.9,0.9,0.7,1.3C388.3,254.3,388.1,254.5,387.9,254.5z"/>
		<path class="st39" d="M20.2,143.4c-0.9,3.1-0.8,7.6-6.1,4C16.1,146.1,18.2,144.8,20.2,143.4z"/>
		<path class="st40" d="M30.3,139.5c-3.4,0-6.7,0-10.1-0.1C23.6,136.4,26.9,136.4,30.3,139.5z"/>
		<path class="st14" d="M389.8,296.9c-1.6-1.8-7.3-0.9-4-6C387.1,293,390.2,293.8,389.8,296.9z"/>
		<path class="st41" d="M373.6,111.1c0.7,0,1.4,0,2.1,0c-2.7,5-5.3,3.1-8,0c0.7-0.1,1.4-0.1,2-0.2C371,111,372.3,111,373.6,111.1z"
			/>
		<path class="st42" d="M201.9,83.1c-3.3,2.5-6.6,2.6-9.9,0C195.3,83.1,198.6,83.1,201.9,83.1z"/>
		<path class="st43" d="M44.5,40.4c-2,0.7-4.1,1.4-6.1,2.1c1.7-1.8,1.9-6,6.1-4.1C44.5,39,44.5,39.7,44.5,40.4z"/>
		<path class="st26" d="M56.6,262.6c-2.6-2.1-3.7-4.9-4.1-8.1C56.1,256,56.7,259.1,56.6,262.6z"/>
		<path class="st44" d="M8.1,109.1c-0.7,0-1.4,0-2,0c-1.4-1.1-0.9-2.1,0.2-3c1.5-1.1,2.9-0.7,3.8,0.9C9.4,107.7,8.8,108.4,8.1,109.1
			z"/>
		<path class="st45" d="M34.3,291c-1.4-0.7-2.7-1.4-4.1-2.1c-0.5,1-1,1-1.6,0.1c3.7-3.8,5.9-1.2,7.8,2C35.7,290.9,35,291,34.3,291z"
			/>
		<path class="st46" d="M351.5,107c-0.3,3.2-1.4,6-4.1,8.1C347.2,111.6,347.9,108.6,351.5,107z"/>
		<path class="st10" d="M28.3,143.4c0.6,0,1.2,0,1.8,0c0,37.6,0,75.2,0,112.8c-0.6,0-1.2,0-1.8,0C28.3,218.7,28.3,181,28.3,143.4z"
			/>
		<path class="st10" d="M28.6,288.9c0.5,0,1.1,0,1.6-0.1c0,14.8,0,29.5,0,44.3C26,318.6,28.9,303.7,28.6,288.9z"/>
		<path class="st27" d="M6.1,111.1c0,10.8,0,21.6,0,32.4c0,0-1,0-1,0s-1,0-1,0c0-10.8,0-21.6,0-32.4C4.7,111.1,5.4,111.1,6.1,111.1z
			"/>
		<path class="st47" d="M387.9,254.5c0-0.7,0-1.3,0-2c2-0.7,4-1.4,6-2C393.7,254.6,390.8,254.5,387.9,254.5z"/>
		<path class="st0" d="M169.7,173.7c-11.5,3.4-22.9,6.8-34.4,10.3c-3.2,1-6.5,2.7-8.1-2.1c-0.5-0.5-0.7-1-0.7-1.6
			c0-0.6,0.1-0.9,0.2-0.9c0.4-5.1-0.4-10.1-0.3-15.1c-0.1-1,0.2-1.8,0.9-2.5c3.5-8.7,11.1-14.3,17.2-20.7
			c10.1-10.5,20.5-20.7,30.8-31c10.6-10.5,24.9-16.9,40.7-1.4c15.1,14.9,30,30,45,44.9c6.8,6.7,9.1,14.8,7.4,24
			c-1,5.7-3.2,9-10.2,6.4c-8.8-3.3-18-5.4-27.1-8c-12.8-3.8-12.8-3.8-12.8,10c0,33.7,0,67.3,0,101c0,4.6,0.9,9.6-4.1,12.7
			c-1.6-1.7-1.4-3.4,0-5c1.8-15.7,0.6-31.4,0.7-47.2c0.2-22.5,0.1-45.1,0-67.6c0,36.8,0,73.7,0,110.5c0.6,4-3.4,6.7-3.1,10.6
			c-11.9,1.9-24.1,6.6-34.6-3.9c0-0.6,0-1.2,0.1-1.8c-1.5-29.5-0.3-58.9-0.7-88.4c-0.1-10,0.4-20.1-0.3-30.1
			C175.4,173.1,173.4,171.6,169.7,173.7z"/>
		<path class="st48" d="M169.7,173.7c2.1-3,5.2-1.8,8-2c0.4,0.9,1,1.7,1,2.8c-0.1,40.7,0.6,81.4-0.4,122.1c0,0-0.8,0.5-0.8,0.5
			c-0.6-0.7-1.2-1.4-1.8-2.1c-2.8-3.9-1.9-8.4-1.9-12.7c-0.1-36.2,0-72.4,0-108.6C172.4,173.7,171,173.7,169.7,173.7z"/>
		<path class="st49" d="M173.9,294.9c-3.5-2.9-2.1-6.8-2.1-10.4c-0.1-31.5,0-63.1-0.1-94.6c0-3.9,0.8-7.8-1.3-11.8
			c-1.9-3.5,2.1-1.7,3.3-2.4c0.8,1.1,1.1,2.4,1.1,3.8c0,37.5,0.1,75,0,112.5C174.7,293.1,174.2,293.9,173.9,294.9z"/>
		<path class="st50" d="M173.9,294.9c-0.1-39.7-0.2-79.4-0.3-119.1c0-0.7,0.1-1.4,0.1-2c3.1,2.2,2,5.5,2,8.3c0,37.6,0,75.3,0,112.9
			C175.1,294.9,174.5,294.9,173.9,294.9z"/>
		<path class="st51" d="M160,296.6c-0.1-33.6-0.3-67.1-0.4-100.7c2.1,1.7,2,4.1,2,6.4c0,29.5,0,59.1,0,88.6
			C161.6,293,161.7,295.1,160,296.6z"/>
		<path class="st42" d="M211.9,318.8c-10.7-0.1-21.4-0.1-32.1-0.2C190.6,316.4,201.3,316,211.9,318.8z"/>
		<path class="st52" d="M209.9,306.6c-8.5,0-17,0-25.5,0c0-0.3,0-0.6,0-0.9c8.5,0,17,0,25.5,0C209.8,306,209.9,306.3,209.9,306.6z"
			/>
		<path class="st53" d="M127.3,161.7c0.1,0.7,0.2,1.4,0.3,2.2c0.9,5.2,1,10.5-0.1,15.7c-0.1,0.8-0.3,1.5-0.4,2.3
			c-0.7-1.3-1.5-2.6-2.2-4c-2.7-4.8-2.3-9.5,0.3-14.2C126,163,126.7,162.4,127.3,161.7z"/>
		<path class="st54" d="M125.3,163.7c-0.1,4.7-0.2,9.5-0.3,14.2c-0.6-0.1-1.1-0.1-1.7-0.1c-1.8-4-1.6-8.1-0.1-12.1
			C123.9,165,124.6,164.3,125.3,163.7z"/>
		<path class="st55" d="M109.3,177.6c0-3.9,0-7.8,0-11.8C112,169.8,112.1,173.7,109.3,177.6z"/>
		<path class="st56" d="M123.2,165.6c0,4,0.1,8.1,0.1,12.1C120.1,173.8,120.2,169.7,123.2,165.6z"/>
		<path class="st23" d="M214.1,294.9c0.1,1.6,0.1,3.1,0.2,4.7c-0.8,0.5-1.5,0.9-2.3,1.4C208.6,297.5,212,296.4,214.1,294.9z"/>
		<path class="st4" d="M258.4,371.8c-2.1,2.4-4.9,1.9-7.5,1.9c-33.3,0-66.6,0-99.9,0c-2.6,0-5.5,0.5-7.5-1.9
			C181.8,371.8,220.1,371.8,258.4,371.8z"/>
		<path class="st57" d="M178.3,296.6c-0.2-41.6-0.4-83.2-0.6-124.9c2.5,2,2.1,4.8,2.1,7.4c0,37.3,0,74.5,0,111.8
			C179.8,292.9,179.9,295,178.3,296.6z"/>
		<path class="st23" d="M214.6,294.9c0-39.6,0-79.2,0-118.8c0.2,0,0.4,0,0.6,0c0,39.6,0,79.2,0,118.8
			C214.9,294.9,214.8,294.9,214.6,294.9z"/>
		<path class="st58" d="M127.6,179.6c0-5.2,0-10.5,0-15.7C130.2,169.1,130.3,174.3,127.6,179.6z"/>
	</g>
</g>
</svg>
