<?xml version="1.0" encoding="utf-8"?>
<!-- Generator: Adobe Illustrator 21.1.0, SVG Export Plug-In . SVG Version: 6.00 Build 0)  -->
<svg version="1.1" id="Lag_1" xmlns="http://www.w3.org/2000/svg" xmlns:xlink="http://www.w3.org/1999/xlink" x="0px" y="0px"
	 viewBox="0 0 400 400" style="enable-background:new 0 0 400 400;" xml:space="preserve">
<style type="text/css">
	.st0{fill:#F8F9FA;}
	.st1{fill:#FEFEFE;}
	.st2{fill:#BCBBBC;}
	.st3{fill:#BAB9BA;}
	.st4{fill:#656465;}
	.st5{fill:#6D6D6D;}
	.st6{fill:#248DC1;}
	.st7{fill:#F5F5F6;}
	.st8{fill:#F6F6F6;}
	.st9{fill:#F7F7F7;}
	.st10{fill:#F6F6F7;}
	.st11{fill:#F5F5F5;}
</style>
<g>
	<g>
		<path class="st0" d="M292.4,402c-0.7,0-1.4,0-2,0c-9.6-2.4-19.4-0.4-29.1-1c-9.5-1.6-11.8-6-7.8-14.4c1.3-2.8,5.4-4.8,2.3-8.7
			c-3.5-2.1-7.3-1.3-11-1.3c-29.3-0.1-58.7,0-88-0.1c-4.6,0-9.6,0.9-13.2-3.3c-1.8-3.7,0.7-6.2,2.4-9.2c3.6-6.3,1.9-10.2-5.3-11.5
			c-7.6-1.4-15.5-0.8-23.2-0.7c-6.7,0.1-9.1,5.4-5.9,11.4c1.5,2.9,4.5,5.2,3.3,9.1c-2.6,4.7-7.3,4-11.5,4.1
			c-12.3,0.4-24.6-0.6-36.9,0.6c-19.2-2-33.8-14.9-38.6-33.6c-2.8-11-2-22.1-2.3-33.3c-0.1-4.9,1.1-10.1-1.6-15.7
			c-5.1,2.8-9.7,8.1-16.3,4.2c-3.7-2.2-4.8-5.4-4.5-9.4c0-8.5,0-17.1,0-25.6c1.3-11.4,6.2-14.3,16.3-9.6c2.3,1,4.2,3.6,7,1.2
			c2-3.9,1-8,1.1-12c0.5-32.1-0.8-64.2,0.7-96.3c2.8-6.5,7-4.6,11.1-1.6c5.9,4.4,10.3,3.4,13.5-3.1c2.2-8.8,1.9-17.7,0.1-26.5
			c-3.7-7.9-8.7-7.2-14.4-2.3c-4.3,3.7-8.2,5.3-10.5-2c-1.2-13.6,0.4-27.3-1-40.9C28.7,45.9,45.1,29.1,69.9,27
			c13.4,0.2,26.9,2.5,40.1-1.3c0.7-2.8-1.6-4.3-2.6-6.3c-5.1-10.1-1.8-15.7,9.7-16.4c7.9,0,15.8,0,23.7,0
			c11.5,0.6,14.7,5.9,9.9,16.1c-1.1,2.3-3.9,4.1-1.9,7.1c3.5,2.1,7.3,1.2,11,1.2c29.1,0.1,58.1,0,87.2,0.1c5,0,10.3-0.9,14.2,3.5
			c2.6,3.4,0.8,6.1-1.4,8.8C255,46,257,50.3,263.7,53c8.4,1.6,16.8,1.7,25.2-0.1c7.2-3.1,7.2-7.7,3-13.4c-2.7-3.6-5.2-7.4,0.3-10.9
			c13.7-2.4,27.6,0.2,41.2-1.6c24.3,1.1,40.8,15.9,43.6,39c-0.1,14.9-2.5,29.8,1.4,44.5c4.1,1.7,6.1-2,9-3.4
			c7.7-3.7,12-1.3,13.7,7.9c0,8.9,0,17.8,0,26.7c-1.7,11.1-7.4,13.9-16.9,8.3c-2.1-1.2-3.6-4.5-6.6-1.4c-2.1,6-1,12.1-1,18
			c-0.2,27.2,0,54.4-0.1,81.6c0,4.5,1,9.6-4,12.7c-2.4,0.8-4.5-0.1-6.7-1c-9.9-3.9-12.9-2.2-13.5,8.1c-0.4,6-0.5,12.1,0.1,18
			c0.9,8.1,3.9,9.8,11.4,7c4-1.5,8-4.3,11.6,0.7c2.5,14.8,0.6,29.7,1.2,44.6c-3.4,22.9-13.4,33.1-37.1,38
			c-14.8,0.6-29.7-0.9-44.5,0.9c-3.5,2.9-0.2,4.5,1.2,6.5C302.3,392.8,301.7,395.8,292.4,402z"/>
		<path class="st1" d="M69,28.4C46.6,33,33,46.6,28.4,69c2.2,10.9,0.3,21.9,1,32.9c0.2,3.9-1,8,1,11.8c3.2,3.3,4.3,0.1,6-1.8
			c7.5-8.2,12.3-7.7,18.3,1.8c1.6,10.1,1.6,20.3,0,30.4c-6.1,9.6-9.8,10.4-17.6,3c-2.2-2-4-3.1-6.8-3c-1.9,3.1-1,6.6-1,9.9
			c-0.1,32.7,0,65.3-0.1,98c0,3.3,0.9,6.7-1,9.9c-3.6,0.3-5.9-1.4-8.5-4c-6.9-6.9-11.7-5.4-16,4.3c-0.7,0.7-1.4,0.6-1.9-0.2
			C2,178.2,2.1,94.5,1.9,10.8c0-6.8,0.7-9.2,8.6-9.1C45.5,2.4,80.6,2,115.7,2c0.6,0.4,0.9,0.8,0.7,1.2C116.3,3.7,116.1,4,116,4
			c-3.9,0-7.7,0.5-8.2,5.5c-0.4,4-1,8.3,3.6,10.6c3.5,1.8,4.6,4.7,4.3,8.3C100.2,30.1,84.6,30.1,69,28.4z"/>
		<path class="st1" d="M142.1,28.4c-0.3-3.7,0.8-6.6,4.3-8.3c4.6-2.3,4-6.6,3.6-10.6c-0.5-5-4.3-5.4-8.2-5.5c-0.5-0.5-0.7-1-0.4-1.4
			c0.2-0.4,0.4-0.6,0.7-0.6c83.7,0,167.4,0.1,251.1-0.2c6.7,0,9.2,0.7,9.1,8.6c-0.6,34.4-0.3,68.8-0.3,103.3c-0.6,0.9-1.2,1-2,0.2
			c-2.1-8.2-7-8.1-12.4-3.7c-3.7,2.9-6.6,6.6-12,5.6c-1.6-16.9-1.6-33.8,0-50.8c-6-20.6-19.1-33.2-40.6-36.5
			c-10.9,2.2-21.9,0.3-32.9,1c-3.9,0.2-8-1-11.8,1c-0.7,3.9,2.3,5.6,4.5,8.1c6.1,7,4.5,12.2-4.5,16.3c-9.5,1.6-18.9,1.6-28.4,0
			c-11.4-5.3-11.4-11,0-20.3c-1.2-6.2-6.1-5.1-10.4-5.1c-32.8,0-65.6,0-98.4-0.1C149.4,29.4,145.7,30.3,142.1,28.4z"/>
		<path class="st1" d="M261.9,375.6c0.6,4.4-1.4,7.2-4.7,10.2c-6,5.5-4.7,10.3,2.8,14.2c0.6,0.5,0.7,1,0.5,1.4
			c-0.2,0.4-0.5,0.6-0.7,0.6c-83,0-166-0.1-249.1,0.2c-6.7,0-9.2-0.7-9.1-8.6C2.4,359.2,2,324.8,2,290.4c0.6-0.9,1.2-1,1.9-0.2
			c4.9,9.9,9.5,10.8,15.9,2.9c1.7-2.1,2.9-5.1,6.2-4c3.4,1.1,2.3,4.5,2.3,7.1c0.1,10.8-0.5,21.7,0.2,32.4c1.4,23,8.2,37.8,36.4,47.1
			c14.1-2.2,28.3-0.3,42.4-1.1c3-0.2,8.4,1.9,6.3-5c-9.7-8.4-10.1-12.1-2.6-19.3c1.6-1.5,2.7-2.5,5.1-1.8c6.6,1.8,13.3,0.8,20,0.8
			c6.4,0.1,12.7,1.3,15.2,7.5c2.4,6.1-3.4,9.3-7.2,12.9c-2,8.2,4.7,4.9,7.5,4.9c32.4,0.3,64.9,0.1,97.3,0.2
			C253.3,374.7,257.7,373.6,261.9,375.6z"/>
		<path class="st1" d="M373.6,292.4c-3.2-0.2-5.6,1.1-8.2,3c-8.4,6-15.1,3-16-7.2c-0.6-6.7-0.1-13.5-0.2-20.2
			c-0.1-5.2,0.2-10.8,5.4-13.2c6.1-2.9,10.9,0.7,14.9,5.2c8.2,2,4.9-4.6,4.9-7.4c0.3-31.8,0.1-63.5,0.2-95.3c0-5-1.1-10.1,0.9-15
			c3.7,0,6.4,0.1,8.9,4.4c3.9,6.7,11.8,5.1,15.7-2.4c0.7-0.9,1.3-0.9,1.9,0.1c0,83.6-0.1,167.2,0.2,250.8c0,6.1-1.2,7.4-7.3,7.3
			c-34.2-0.4-68.4-0.2-102.5-0.2c6.4-6.8,8.8-13.2-1.2-19.1c-2.9-1.7-4-4.5-0.8-7.3c12.9-2.2,26-0.4,38.9-1c3.9-0.2,8,1,11.8-1
			c18.4-3.3,29.2-14.1,32.5-32.5C375.3,324.9,375.3,308.6,373.6,292.4z"/>
		<path class="st2" d="M402,144.2l-0.9,0c0,0-0.9-0.1-0.9-0.1c0-10.1-0.1-20.1-0.1-30.2c0.7-0.1,1.3-0.2,2-0.2
			C402,123.9,402,134,402,144.2z"/>
		<path class="st3" d="M259.9,402c0-0.7,0.1-1.3,0.2-2c10.1,1.1,20.4-2.5,30.3,2C280.2,402,270.1,402,259.9,402z"/>
		<path class="st4" d="M4,290.1c-0.6,0.2-1.3,0.3-1.9,0.2c0-9.5,0-19,0-28.4c0.7,0,1.3,0,1.9,0.2C4,271.5,4,280.8,4,290.1z"/>
		<path class="st5" d="M142.1,2c0,0.7-0.1,1.3-0.2,1.9c-8.6,0-17.3,0-25.9,0c-0.2-0.6-0.3-1.3-0.2-2C124.5,2,133.3,2,142.1,2z"/>
		<path class="st6" d="M211.3,213.5c-15.6,0-30.1,0.2-44.6-0.1c-6.4-0.1-6,3.7-6,8c0,23,0,46,0,69c0,20-10.1,30.8-30,32.1
			c-37.1,2.5-47.5-7.3-47.5-44.3c0-35.8,0-71.7,0-107.5c0-23.6,10.5-34.2,33.8-34.2c27.4,0,54.8,0,82.2,0c3.7,0,7.3,0,12,0
			c-2.8-9.8-5-18.6-8-27.2c-2.1-6.1-0.5-9.9,4.3-13.9c15.3-12.6,38-13.6,53.3-0.3c19.1,16.7,37.1,34.6,53.7,53.7
			c13.4,15.3,13,38.8-1,53.9c-16.5,17.8-33.7,35.1-51.6,51.6c-15.4,14.2-39.3,13.4-54.9,0.2c-4.3-3.7-6.1-7.2-3.9-13.1
			C206.3,232.6,208.5,223.4,211.3,213.5z"/>
		<path class="st7" d="M142.1,28.4c36.6,0,73.3,0,109.9,0c4.3,0,10.2-1.9,9.9,6c-2.9-4.2-7.2-4.1-11.6-4.1
			c-32.6,0.1-65.1,0.1-97.7,0C149.1,30.4,145.1,31.7,142.1,28.4z"/>
		<path class="st8" d="M375.6,142.1c0,37.2,0.1,74.3-0.1,111.5c0,3.4,2.3,10.3-6,6.3c6.2-1.3,4-6.3,4-9.9
			c0.2-32.4,0.1-64.9,0.1-97.3C373.7,149.1,372.4,145.1,375.6,142.1z"/>
		<path class="st8" d="M261.9,375.6c-37.2,0-74.3,0.1-111.5-0.1c-3.4,0-10.3,2.3-6.3-6c1.3,6.2,6.3,4,9.9,4
			c32.4,0.2,64.9,0.1,97.3,0.1C255,373.7,258.9,372.3,261.9,375.6z"/>
		<path class="st8" d="M28.4,261.9c0-35.8,0-71.5,0.1-107.3c0-3.5-1.3-7.5,2-10.5c0,35.8,0,71.5-0.1,107.3
			C30.4,255,31.7,258.9,28.4,261.9z"/>
		<path class="st7" d="M113.7,369.5c4.6,7.6-1.9,6-5.3,6c-14.5,0.2-29,0.1-43.5,0.1c12.8-4.4,25.9-0.8,38.8-2.1
			C107.4,373.2,112.4,375.7,113.7,369.5z"/>
		<path class="st9" d="M375.6,65c0,16.9,0,33.8,0,50.8C372.3,98.8,372.3,81.9,375.6,65z"/>
		<path class="st8" d="M373.6,292.4c3.8-0.1,2,2.8,1.9,4.1c-1.1,14.9,2.7,29.9-1.9,44.6C373.6,324.9,373.6,308.6,373.6,292.4z"/>
		<path class="st8" d="M341.1,373.6c-7.5,4.2-15.7,1.5-23.6,1.9c-9,0.5-18.1,0.1-27.2,0.1c7.5-4.2,15.7-1.5,23.6-1.9
			C323,373.2,332,373.6,341.1,373.6z"/>
		<path class="st9" d="M69,28.4c15.6,0,31.1,0,46.7,0C100.2,31.7,84.6,31.7,69,28.4z"/>
		<path class="st7" d="M290.4,30.5c9.6-4.3,19.7-1.1,29.6-1.9c5-0.4,10.1-0.1,15.1-0.1c-9.6,4.3-19.7,1.1-29.6,2
			C300.5,30.8,295.4,30.5,290.4,30.5z"/>
		<path class="st10" d="M30.5,113.7c-4.3-9.6-1.1-19.7-2-29.6c-0.4-5-0.1-10.1-0.1-15.1c4.3,9.6,1.1,19.7,2,29.6
			C30.8,103.6,30.5,108.7,30.5,113.7z"/>
		<path class="st11" d="M54.8,144.2c0-10.1,0-20.3,0-30.4C58.1,123.9,58.1,134,54.8,144.2z"/>
		<path class="st10" d="M261.9,54.8c9.5,0,18.9,0,28.4,0C280.9,58.1,271.4,58.1,261.9,54.8z"/>
		<path class="st0" d="M100.3,228.9c0-19.6-0.1-39.2,0-58.8c0.1-13.1,3.7-16.9,17-16.9c35.5-0.1,71-0.3,106.5,0.1
			c8.5,0.1,10.6-1.9,7.6-10.1c-3.5-9.8-5.5-20.2-9-30.1c-2.2-6.1,0.5-8.2,5.4-9.3c8.7-2,16.9-0.8,23.5,5.7
			c16.3,16.2,32.7,32.3,48.7,48.8c9.6,9.8,9.6,23.9,0,33.7c-15.8,16.2-32,32.1-48,48.1c-4.2,4.2-9.4,6.7-15.2,7.3
			c-12.7,1.4-16.5-3.1-13-15.2c2.7-9.4,5.1-19,8.3-28.2c2.2-6.4,0.2-7.4-5.7-7.3c-24.7,0.2-49.4,0.3-74-0.1
			c-6.7-0.1-8.5,1.8-8.4,8.5c0.4,27.4,0.2,54.8,0.1,82.2c0,14-3.4,17.4-17.2,17.5c-26.5,0.2-26.6,0-26.6-26.3
			C100.3,262,100.3,245.5,100.3,228.9z"/>
	</g>
</g>
</svg>
